<?xml version="1.0" encoding="utf-8"?>
<!-- Generator: Adobe Illustrator 18.0.0, SVG Export Plug-In . SVG Version: 6.00 Build 0)  -->
<!DOCTYPE svg PUBLIC "-//W3C//DTD SVG 1.1//EN" "http://www.w3.org/Graphics/SVG/1.1/DTD/svg11.dtd">
<svg version="1.1" xmlns="http://www.w3.org/2000/svg" xmlns:xlink="http://www.w3.org/1999/xlink" x="0px" y="0px" width="32px"
	 height="32px" viewBox="0 0 32 32" style="enable-background:new 0 0 32 32;" xml:space="preserve">
<style type="text/css">
	.st0{display:none;}
	.st1{display:inline;}
</style>
<g id="Layer_1" class="st0">
	<polygon class="st1" points="30.29,0 1.71,0 1.71,16.01 6.28,16.01 6.28,4.57 25.72,4.57 25.72,20.58 17.69,20.58 21.7,16.56 
		18.87,13.74 9.71,22.87 18.87,32 21.7,29.17 17.69,25.15 30.29,25.15 	"/>
</g>
<g id="Layer_2">
	<g>
		<polygon points="28.1,0 24.07,4.03 3.9,4.03 3.9,18.15 7.93,18.15 7.93,8.07 20.03,8.07 2.39,25.71 3.9,27.22 29.61,1.51 		"/>
		<polygon points="25.07,22.18 17.99,22.18 21.28,18.89 18.79,16.4 10.96,24.2 18.79,32 21.28,29.5 17.99,26.22 29.11,26.22 
			29.11,6.05 25.07,10.08 		"/>
	</g>
	<g>
	</g>
	<g>
	</g>
	<g>
	</g>
	<g>
	</g>
	<g>
	</g>
	<g>
	</g>
</g>
</svg>
