<svg xmlns="http://www.w3.org/2000/svg" width="32" height="32" viewBox="0 0 32 32"><path d="M27.698 14.221v-4.21h-2.151v4.21h-4.213v2.06h4.213v4.208h2.151v-4.208h4.208v-2.06zM16.855 18.18l-1.537-1.169c-.465-.381-1.104-.881-1.104-1.802s.639-1.511 1.192-2.056c1.787-1.382 3.573-2.851 3.573-5.951 0-3.184-1.938-4.724-2.917-5.519h2.521l2.756-1.683h-8.871c-2.297 0-5.395.234-7.817 2.204-1.828 1.55-2.427 3.827-2.427 5.754 0 3.267 2.552 6.579 7.058 6.579.427 0 .89-.042 1.359-.083-.208.5-.421.921-.421 1.636 0 1.296.677 2.091 1.276 2.846-1.917.128-5.489.335-8.124 1.93-2.51 1.467-3.277 3.601-3.277 5.109-.001 3.103 2.859 6.025 9.025 6.025 7.312 0 11.302-4.013 11.302-7.95 0-2.894-1.697-4.319-3.567-5.87zm-5.574-4.712c-3.655 0-5.317-4.65-5.317-7.459 0-1.091.213-2.325.937-3.205.683-.837 1.87-1.278 2.979-1.278 3.525 0 5.354 4.693 5.354 7.708 0 .756-.083 1.991-1.062 2.956-.681.668-1.828 1.278-2.891 1.278zm.038 16.74c-4.547 0-7.485-2.136-7.485-5.112s2.724-3.982 3.656-4.315c1.788-.587 4.084-.671 4.468-.671.422 0 .636 0 .975.041 3.233 2.267 4.64 3.395 4.64 5.535 0 2.591-2.172 4.522-6.254 4.522z"/></svg>