<svg xmlns="http://www.w3.org/2000/svg" width="32" height="32" viewBox="0 0 32 32"><path d="M6.84 22.154c1.586 0 3.011-.684 4.012-1.762l9.001 4.843c-.103.413-.162.849-.162 1.298 0 3.021 2.453 5.467 5.472 5.467 3.018 0 5.471-2.445 5.471-5.467 0-3.023-2.453-5.47-5.471-5.47-1.586 0-3.019.679-4.014 1.757l-9.457-5.174-.074-2.792 9.74-5.456c.988.953 2.326 1.543 3.805 1.543 3.018 0 5.471-2.451 5.471-5.474s-2.454-5.467-5.472-5.467c-3.019 0-5.472 2.445-5.472 5.468 0 .554.081 1.09.243 1.597l-9.297 5.686c-.988-.948-2.326-1.537-3.797-1.537-3.025 0-5.473 2.444-5.473 5.467.001 3.028 2.448 5.473 5.474 5.473"/></svg>