<?xml version="1.0" encoding="utf-8"?>
<!-- Generator: Adobe Illustrator 18.0.0, SVG Export Plug-In . SVG Version: 6.00 Build 0)  -->
<!DOCTYPE svg PUBLIC "-//W3C//DTD SVG 1.1//EN" "http://www.w3.org/Graphics/SVG/1.1/DTD/svg11.dtd">
<svg version="1.1" id="Layer_1" xmlns="http://www.w3.org/2000/svg" xmlns:xlink="http://www.w3.org/1999/xlink" x="0px" y="0px"
	 width="61.73px" height="30px" viewBox="1964.27 -4.21 61.73 30" style="enable-background:new 1964.27 -4.21 61.73 30;"
	 xml:space="preserve">
<style type="text/css">
	.st0{fill-rule:evenodd;clip-rule:evenodd;}
</style>
<g>
	<path d="M1978.46,18.85c-0.29,0-0.56-0.02-0.81-0.06c-0.25-0.04-0.5-0.12-0.75-0.23c-0.24-0.11-0.47-0.27-0.7-0.47
		c-0.22-0.2-0.44-0.46-0.67-0.78c-0.4,0.54-0.84,0.93-1.32,1.17c-0.48,0.25-1.03,0.37-1.64,0.37c-0.63,0-1.2-0.12-1.69-0.36
		c-0.5-0.24-0.92-0.57-1.26-0.97c-0.34-0.4-0.6-0.87-0.78-1.39c-0.18-0.52-0.27-1.07-0.27-1.63c0-0.48,0.08-0.92,0.22-1.34
		c0.15-0.42,0.35-0.79,0.59-1.12h-1.11v-1.23h5.43c-0.06-0.5-0.2-0.9-0.41-1.19c-0.22-0.3-0.47-0.44-0.76-0.44
		c-0.05,0-0.09,0.01-0.13,0.03c-0.04,0.02-0.09,0.06-0.15,0.12c-0.06,0.06-0.14,0.14-0.22,0.25c-0.09,0.1-0.19,0.24-0.31,0.41
		c-0.3,0.39-0.64,0.58-1.02,0.58c-0.73,0-1.1-0.38-1.1-1.13c0-0.27,0.09-0.55,0.28-0.84c0.19-0.29,0.45-0.53,0.8-0.72
		c-0.31-0.29-0.56-0.61-0.74-0.96c-0.18-0.35-0.28-0.73-0.28-1.12c0-0.6,0.12-1.15,0.37-1.64c0.25-0.49,0.62-0.91,1.11-1.26
		c0.49-0.35,1.11-0.61,1.84-0.8c0.74-0.19,1.59-0.28,2.57-0.28c0.97,0,1.84,0.09,2.6,0.27c0.76,0.18,1.41,0.44,1.94,0.79
		c0.53,0.35,0.93,0.76,1.21,1.26c0.27,0.49,0.41,1.05,0.41,1.66c0,0.38-0.11,0.76-0.33,1.16c-0.22,0.39-0.49,0.75-0.83,1.06
		c0.29,0.21,0.5,0.48,0.64,0.8c0.14,0.32,0.21,0.63,0.21,0.95c0,0.56-0.12,1.1-0.37,1.62c0.47,0.33,0.85,0.75,1.13,1.28
		c0.27,0.52,0.41,1.1,0.41,1.73c0,0.57-0.1,1.13-0.3,1.67c-0.2,0.54-0.48,1.02-0.84,1.44c-0.36,0.42-0.79,0.75-1.3,1
		C1979.61,18.72,1979.06,18.85,1978.46,18.85z M1972.55,12.03c-1.66,0-2.49,0.66-2.49,2c0,0.74,0.22,1.28,0.67,1.62
		c0.45,0.34,1.11,0.51,1.98,0.51c0.35,0,0.67-0.04,0.94-0.12c0.28-0.08,0.51-0.23,0.7-0.44c0.19-0.21,0.34-0.49,0.44-0.85
		c0.1-0.36,0.16-0.81,0.16-1.35h1.24c0,0.54,0.05,0.99,0.16,1.35c0.1,0.36,0.25,0.64,0.44,0.85c0.19,0.21,0.43,0.36,0.71,0.44
		c0.28,0.08,0.6,0.12,0.96,0.12c0.81,0,1.45-0.18,1.92-0.54c0.47-0.36,0.7-0.89,0.7-1.59c0-1.33-0.82-2-2.46-2h-2.6
		c0.02-0.7,0.1-1.32,0.23-1.87c0.13-0.55,0.32-1.02,0.57-1.4c0.25-0.38,0.56-0.68,0.93-0.88c0.37-0.21,0.82-0.31,1.33-0.32
		c0.39-0.3,0.7-0.57,0.92-0.84c0.22-0.26,0.33-0.51,0.33-0.74c0-0.28-0.09-0.53-0.28-0.74c-0.18-0.22-0.47-0.4-0.85-0.55
		c-0.39-0.15-0.88-0.26-1.49-0.34c-0.61-0.08-1.33-0.12-2.17-0.12c-0.8,0-1.49,0.04-2.06,0.12c-0.57,0.08-1.04,0.19-1.41,0.34
		c-0.37,0.15-0.63,0.33-0.8,0.55c-0.17,0.22-0.25,0.46-0.25,0.74c0,0.39,0.12,0.73,0.37,1c0.25,0.27,0.6,0.46,1.05,0.58
		c0.39,0.12,0.75,0.28,1.07,0.48c0.31,0.21,0.58,0.48,0.81,0.84c0.22,0.35,0.4,0.79,0.52,1.3c0.12,0.52,0.2,1.13,0.22,1.85H1972.55z
		 M1978.83,9.79c-0.43,0-0.76,0.1-1,0.3c-0.24,0.2-0.39,0.44-0.46,0.71c0.66,0,1.19,0.01,1.59,0.02c0.4,0.01,0.71,0.03,0.9,0.06
		c0.01-0.02,0.01-0.08,0.01-0.16c0-0.11-0.03-0.21-0.08-0.32c-0.05-0.11-0.13-0.2-0.22-0.29c-0.1-0.09-0.21-0.16-0.33-0.22
		C1979.12,9.81,1978.98,9.79,1978.83,9.79z"/>
	<path d="M1989.79,13.3c0,0.41-0.08,0.8-0.25,1.16c-0.16,0.37-0.38,0.69-0.66,0.96c-0.28,0.28-0.6,0.49-0.97,0.65
		c-0.37,0.16-0.76,0.24-1.17,0.24c-0.42,0-0.81-0.08-1.18-0.24c-0.37-0.16-0.68-0.38-0.95-0.65c-0.27-0.27-0.49-0.59-0.65-0.96
		c-0.16-0.36-0.24-0.75-0.24-1.16c0-0.4,0.08-0.79,0.24-1.15c0.16-0.37,0.38-0.69,0.65-0.97c0.27-0.28,0.59-0.5,0.96-0.67
		c0.37-0.16,0.75-0.25,1.16-0.25c0.4,0,0.79,0.08,1.15,0.25c0.37,0.16,0.69,0.39,0.97,0.67c0.28,0.28,0.5,0.6,0.67,0.97
		C1989.7,12.51,1989.79,12.89,1989.79,13.3z M1985.09,13.3c0,0.22,0.04,0.43,0.13,0.63c0.09,0.2,0.2,0.37,0.35,0.53
		c0.15,0.16,0.32,0.28,0.52,0.37c0.2,0.09,0.42,0.14,0.65,0.14c0.24,0,0.46-0.04,0.66-0.14c0.21-0.09,0.38-0.21,0.54-0.37
		c0.15-0.16,0.27-0.33,0.36-0.54c0.08-0.2,0.13-0.41,0.13-0.62c0-0.23-0.04-0.45-0.14-0.65c-0.09-0.21-0.21-0.38-0.36-0.54
		c-0.15-0.15-0.33-0.27-0.54-0.36c-0.21-0.09-0.42-0.13-0.65-0.13c-0.22,0-0.43,0.04-0.63,0.13c-0.2,0.09-0.37,0.2-0.53,0.35
		c-0.15,0.15-0.27,0.32-0.36,0.53C1985.14,12.84,1985.09,13.06,1985.09,13.3z"/>
	<path d="M1999.02,17.41c0.26,0.07,0.5,0.11,0.7,0.14c0.2,0.03,0.39,0.04,0.54,0.04c0.48,0,0.9-0.1,1.28-0.3
		c0.37-0.2,0.69-0.47,0.95-0.82c0.26-0.35,0.45-0.75,0.59-1.22c0.13-0.47,0.2-0.97,0.2-1.5c0-0.6-0.09-1.15-0.27-1.64
		c-0.18-0.5-0.43-0.93-0.74-1.29c-0.31-0.36-0.67-0.64-1.09-0.84c-0.41-0.2-0.86-0.3-1.33-0.3c-0.29,0-0.56,0.06-0.81,0.2
		c-0.26,0.13-0.49,0.32-0.72,0.57c-0.22,0.25-0.43,0.55-0.62,0.9c-0.19,0.35-0.38,0.75-0.55,1.18c0.31,0.01,0.59,0.08,0.84,0.21
		c0.25,0.14,0.46,0.32,0.63,0.56c0.17,0.23,0.31,0.5,0.4,0.81c0.09,0.31,0.14,0.63,0.14,0.98c0,0.42-0.1,0.85-0.29,1.3
		c-0.2,0.45-0.47,0.85-0.82,1.22c-0.35,0.36-0.78,0.67-1.29,0.9c-0.51,0.23-1.08,0.35-1.7,0.35c-0.48,0-0.96-0.1-1.45-0.3
		c-0.49-0.2-0.94-0.48-1.33-0.85c-0.4-0.37-0.73-0.82-0.98-1.36c-0.25-0.54-0.37-1.15-0.37-1.84c0-0.48,0.08-0.92,0.23-1.34
		c0.16-0.41,0.38-0.79,0.68-1.11c0.3-0.33,0.66-0.6,1.1-0.83c0.43-0.22,0.93-0.38,1.49-0.47c-0.03-0.22-0.06-0.43-0.09-0.62
		c-0.04-0.19-0.08-0.35-0.14-0.5c-0.05-0.14-0.12-0.26-0.19-0.34c-0.07-0.08-0.15-0.12-0.23-0.12c-0.18,0-0.34,0.06-0.47,0.17
		c-0.14,0.11-0.27,0.3-0.4,0.55c-0.2,0.38-0.39,0.63-0.58,0.77c-0.19,0.14-0.41,0.2-0.68,0.2c-0.35,0-0.62-0.12-0.83-0.35
		c-0.21-0.23-0.31-0.52-0.31-0.87c0-0.27,0.07-0.53,0.2-0.78c0.13-0.25,0.31-0.47,0.54-0.67c0.23-0.2,0.49-0.35,0.79-0.47
		c0.3-0.12,0.63-0.18,0.99-0.18c0.42,0,0.79,0.1,1.11,0.31c0.32,0.21,0.59,0.5,0.81,0.88c0.21,0.38,0.38,0.84,0.49,1.37
		c0.11,0.53,0.17,1.13,0.17,1.8c-0.45,0-0.87,0.05-1.25,0.15c-0.38,0.1-0.7,0.25-0.98,0.44c-0.27,0.19-0.49,0.41-0.64,0.67
		c-0.15,0.26-0.23,0.55-0.23,0.87c0,0.3,0.08,0.59,0.24,0.86c0.16,0.27,0.38,0.51,0.65,0.71c0.28,0.2,0.6,0.36,0.97,0.48
		c0.37,0.12,0.77,0.18,1.2,0.18c0.27,0,0.54-0.03,0.79-0.09c0.25-0.06,0.48-0.14,0.67-0.26c0.19-0.11,0.35-0.27,0.47-0.45
		c0.12-0.18,0.18-0.41,0.18-0.67c0-0.37-0.06-0.63-0.18-0.79c-0.12-0.16-0.25-0.24-0.41-0.24c-0.16,0-0.29,0.03-0.39,0.11
		c-0.1,0.07-0.2,0.23-0.29,0.49l-1.01-0.37c0.34-1.16,0.68-2.14,1.04-2.96c0.36-0.81,0.74-1.48,1.15-1.99
		c0.41-0.52,0.86-0.9,1.35-1.13c0.49-0.24,1.05-0.36,1.66-0.36c0.76,0,1.42,0.14,1.97,0.43c0.54,0.28,0.99,0.66,1.34,1.13
		c0.35,0.47,0.61,1.02,0.77,1.65c0.16,0.63,0.25,1.29,0.25,1.98c0,0.78-0.1,1.54-0.31,2.27c-0.21,0.73-0.51,1.38-0.91,1.95
		c-0.4,0.57-0.89,1.03-1.47,1.37c-0.58,0.34-1.24,0.52-1.98,0.52c-0.26,0-0.53-0.02-0.79-0.06c-0.26-0.04-0.51-0.1-0.75-0.17
		L1999.02,17.41z"/>
	<path d="M2014.23,22.79c-1.15,0-2.21-0.17-3.19-0.52c-0.98-0.35-1.83-0.84-2.54-1.47c-0.72-0.63-1.28-1.38-1.68-2.27
		c-0.41-0.88-0.61-1.86-0.61-2.92c0-1.11,0.21-2.15,0.62-3.11c0.41-0.96,1-1.81,1.76-2.52c0.76-0.71,1.69-1.28,2.77-1.69
		c1.08-0.41,2.29-0.62,3.63-0.62c0.89,0,1.72,0.1,2.47,0.31c0.75,0.21,1.41,0.49,1.95,0.86c0.54,0.36,0.96,0.78,1.27,1.26
		c0.3,0.48,0.46,0.99,0.46,1.52c0,0.43-0.1,0.86-0.29,1.26c-0.19,0.41-0.46,0.77-0.79,1.08c-0.33,0.31-0.72,0.57-1.17,0.76
		c-0.45,0.19-0.93,0.29-1.45,0.29c-0.43,0-0.81-0.08-1.15-0.23c-0.34-0.15-0.63-0.36-0.88-0.62c-0.25-0.26-0.44-0.57-0.59-0.93
		c-0.15-0.36-0.25-0.75-0.29-1.16h-2.17v-1.24h5.95v1.24h-2.47c0.11,0.26,0.31,0.49,0.58,0.68c0.27,0.19,0.63,0.29,1.08,0.29
		c0.29,0,0.57-0.05,0.82-0.15c0.25-0.1,0.48-0.24,0.67-0.41c0.19-0.17,0.34-0.36,0.44-0.59c0.11-0.22,0.16-0.45,0.16-0.69
		c0-0.28-0.11-0.56-0.33-0.84c-0.22-0.28-0.53-0.52-0.94-0.74c-0.41-0.21-0.91-0.39-1.5-0.52c-0.6-0.14-1.27-0.2-2.01-0.2
		c-0.84,0-1.64,0.13-2.4,0.39c-0.76,0.26-1.43,0.64-2,1.13c-0.58,0.49-1.03,1.09-1.37,1.8c-0.34,0.71-0.5,1.51-0.5,2.4
		c0,0.88,0.17,1.72,0.5,2.53c0.34,0.81,0.8,1.52,1.38,2.14c0.59,0.62,1.27,1.12,2.05,1.49c0.78,0.37,1.61,0.56,2.5,0.56
		c0.77,0,1.49-0.11,2.14-0.34c0.65-0.23,1.22-0.55,1.7-0.97c0.48-0.42,0.85-0.94,1.11-1.55c0.27-0.61,0.4-1.29,0.4-2.06h1.24
		c0,0.93-0.16,1.78-0.47,2.55c-0.32,0.77-0.78,1.44-1.4,2c-0.62,0.56-1.39,1-2.3,1.31C2016.46,22.64,2015.41,22.79,2014.23,22.79z"
		/>
</g>
</svg>
