<?xml version="1.0" encoding="utf-8"?>
<!-- Generator: Adobe Illustrator 18.0.0, SVG Export Plug-In . SVG Version: 6.00 Build 0)  -->
<!DOCTYPE svg PUBLIC "-//W3C//DTD SVG 1.1//EN" "http://www.w3.org/Graphics/SVG/1.1/DTD/svg11.dtd">
<svg version="1.1" id="Layer_1" xmlns="http://www.w3.org/2000/svg" xmlns:xlink="http://www.w3.org/1999/xlink" x="0px" y="0px"
	 width="73.37px" height="15.5px" viewBox="2043.22 3.79 73.37 15.5" style="enable-background:new 2043.22 3.79 73.37 15.5;"
	 xml:space="preserve">
<style type="text/css">
	.st0{fill-rule:evenodd;clip-rule:evenodd;}
	.st1{fill:#1E1E1E;}
</style>
<g>
	<path d="M2047.72,12.79l-1.64-1c-1.03-0.63-1.76-1.25-2.2-1.86c-0.44-0.61-0.65-1.31-0.65-2.1c0-1.19,0.41-2.16,1.24-2.9
		c0.83-0.74,1.9-1.11,3.22-1.11c1.26,0,2.42,0.35,3.47,1.06v2.46c-1.09-1.05-2.26-1.57-3.52-1.57c-0.71,0-1.29,0.16-1.74,0.49
		c-0.45,0.33-0.68,0.75-0.68,1.25c0,0.45,0.17,0.88,0.5,1.27c0.33,0.4,0.87,0.81,1.61,1.24l1.65,0.98c1.84,1.1,2.77,2.5,2.77,4.2
		c0,1.21-0.41,2.2-1.22,2.95c-0.81,0.76-1.87,1.14-3.16,1.14c-1.49,0-2.85-0.46-4.08-1.38v-2.75c1.17,1.48,2.52,2.22,4.06,2.22
		c0.68,0,1.24-0.19,1.69-0.57c0.45-0.38,0.68-0.85,0.68-1.42C2049.71,14.48,2049.05,13.61,2047.72,12.79z"/>
	<path d="M2061.09,3.79c2.33,0,4.28,0.74,5.83,2.22c1.55,1.48,2.33,3.33,2.33,5.56c0,2.23-0.78,4.07-2.35,5.53
		c-1.57,1.46-3.54,2.19-5.93,2.19c-2.28,0-4.17-0.73-5.69-2.19c-1.52-1.46-2.28-3.29-2.28-5.49c0-2.26,0.76-4.12,2.29-5.6
		C2056.83,4.53,2058.76,3.79,2061.09,3.79z M2061.18,5.85c-1.73,0-3.15,0.54-4.26,1.62c-1.11,1.08-1.67,2.46-1.67,4.14
		c0,1.63,0.56,2.99,1.67,4.07c1.12,1.08,2.51,1.62,4.19,1.62c1.69,0,3.09-0.55,4.22-1.65c1.13-1.1,1.69-2.48,1.69-4.12
		c0-1.6-0.56-2.95-1.69-4.04C2064.21,6.39,2062.82,5.85,2061.18,5.85z"/>
	<path d="M2083.49,4.01h2.02v15.11h-2.17V7.36l-4.65,5.84h-0.4l-4.7-5.84v11.76h-2.16V4.01h2.05l5.02,6.21L2083.49,4.01z"/>
	<path d="M2093.59,3.92h1.52l6.78,15.2h-2.21l-2.01-4.48h-6.45l-1.89,4.48h-2.22L2093.59,3.92z M2096.77,12.71l-2.44-5.47
		l-2.26,5.47H2096.77z"/>
	<path d="M2103.54,4.01h2.16v13.14h6.8v1.97h-8.97V4.01z"/>
	<path d="M2114.42,4.01h2.16v15.11h-2.16V4.01z"/>
</g>
</svg>
