<?xml version="1.0" encoding="utf-8"?>
<!-- Generator: Adobe Illustrator 18.0.0, SVG Export Plug-In . SVG Version: 6.00 Build 0)  -->
<!DOCTYPE svg PUBLIC "-//W3C//DTD SVG 1.1//EN" "http://www.w3.org/Graphics/SVG/1.1/DTD/svg11.dtd">
<svg version="1.1" id="Layer_1" xmlns="http://www.w3.org/2000/svg" xmlns:xlink="http://www.w3.org/1999/xlink" x="0px" y="0px"
	 width="83.05px" height="30px" viewBox="2741.35 -4.21 83.05 30" style="enable-background:new 2741.35 -4.21 83.05 30;"
	 xml:space="preserve">
<style type="text/css">
	.st0{fill-rule:evenodd;clip-rule:evenodd;}
</style>
<g id="O_x27_zbek_2_">
	<path d="M2761.58,11.52c0,4.34-3.32,7.77-8.26,7.77c-4.74,0-7.97-3.5-7.97-7.71c0-4.01,2.92-7.79,8.08-7.79
		C2758.46,3.79,2761.58,7.47,2761.58,11.52z M2747.58,11.59c0,3.43,2.7,5.69,5.87,5.69c1.62,0,3.37-0.67,4.41-1.79
		c0.95-1.04,1.51-2.68,1.51-3.98c0-2.5-1.9-5.67-5.85-5.67C2749.29,5.83,2747.58,9.06,2747.58,11.59z"/>
	<path d="M2765.47,9.28c-2.59-0.82-2.59-3.17-2.59-3.41c0-1.09,0.55-2.08,1.5-2.08c0.73,0,1.33,0.66,1.33,1.44
		c0,0.2,0,1.06-1.15,1.42c0.04,0.89,0.18,1.51,0.91,2.21V9.28z"/>
	<path d="M2771.69,17.19h9.66v1.9h-13.64l9.68-13.2h-9.06v-1.9h13.02L2771.69,17.19z"/>
	<path d="M2787.38,3.99c1.09,0,1.81,0.07,2.52,0.33c1.44,0.53,2.55,1.73,2.55,3.59c0,1.28-0.58,2.46-2.3,3.19
		c2.22,0.42,3.61,1.95,3.61,3.88c0,2.46-2.04,3.5-2.94,3.81c-0.89,0.31-1.59,0.31-3.21,0.31h-4.19V3.99H2787.38z M2785.56,5.92v4.54
		h1.44c0.56,0,1.51-0.04,2.04-0.35c0.42-0.22,1.18-0.82,1.18-2.02c0-0.84-0.4-1.57-1.06-1.88c-0.62-0.29-1.5-0.29-2.15-0.29H2785.56
		z M2785.56,12.4v4.76h2.15c0.62,0,1.68,0,2.24-0.22c1.11-0.42,1.57-1.37,1.57-2.17c0-0.64-0.31-1.59-1.44-2.06
		c-0.58-0.24-1.31-0.31-2.48-0.31H2785.56z"/>
	<path d="M2804.43,5.92h-6.4v4.61h6.18v1.93h-6.18v4.69h6.6v1.95h-8.77V3.99h8.57V5.92z"/>
	<path d="M2812.1,11.14l8.17,7.95h-2.96l-7.71-7.46v7.46h-2.19V3.99h2.19v6.91l6.36-6.91h2.7L2812.1,11.14z"/>
</g>
</svg>
