<?xml version="1.0" encoding="utf-8"?>
<!-- Generator: Adobe Illustrator 18.0.0, SVG Export Plug-In . SVG Version: 6.00 Build 0)  -->
<!DOCTYPE svg PUBLIC "-//W3C//DTD SVG 1.1//EN" "http://www.w3.org/Graphics/SVG/1.1/DTD/svg11.dtd">
<svg version="1.1" id="Layer_1" xmlns="http://www.w3.org/2000/svg" xmlns:xlink="http://www.w3.org/1999/xlink" x="0px" y="0px"
	 width="43.4px" height="30px" viewBox="2320.91 -4.21 43.4 30" style="enable-background:new 2320.91 -4.21 43.4 30;"
	 xml:space="preserve">
<style type="text/css">
	.st0{fill-rule:evenodd;clip-rule:evenodd;}
</style>
<g>
	<path d="M2332.19,0.18v14.83c0.16-0.05,0.37-0.07,0.63-0.07c0.61,0,1.13,0.21,1.56,0.62c0.43,0.42,0.64,0.93,0.64,1.54
		c0,0.59-0.18,1.08-0.56,1.48c-0.37,0.4-0.85,0.63-1.44,0.68c-0.15,0.04-0.31,0.06-0.48,0.06c-0.72,0-1.3-0.25-1.74-0.74
		c-0.48-0.53-0.71-1.16-0.71-1.88V0.18c0-0.1-0.04-0.3-0.11-0.59c-0.13-0.13-0.26-0.19-0.4-0.19c-0.19,0-0.41,0.18-0.63,0.54
		c-0.3,0.47-0.56,1.02-0.79,1.64c-0.09,0.25-0.17,0.48-0.24,0.67h-1.24c-0.06-0.86-0.23-1.51-0.51-1.96
		c-0.33-0.53-0.75-0.82-1.27-0.88l0.7-1.83c0.49,0.08,0.89,0.35,1.18,0.82c0.29,0.47,0.49,1.09,0.6,1.87
		c0.22-0.53,0.51-1.03,0.87-1.49c0.46-0.6,0.9-0.92,1.33-0.96l0.36-0.03c0.06-0.01,0.11-0.01,0.13-0.01c0.65,0,1.18,0.25,1.57,0.76
		C2332.01-1,2332.19-0.45,2332.19,0.18z M2333.79,17.1c0-0.26-0.1-0.49-0.29-0.68c-0.19-0.19-0.42-0.28-0.69-0.28
		c-0.25,0-0.48,0.1-0.67,0.29c-0.19,0.19-0.29,0.42-0.29,0.67c0,0.26,0.09,0.49,0.28,0.68c0.19,0.19,0.41,0.29,0.67,0.29
		c0.27,0,0.5-0.09,0.69-0.29C2333.7,17.6,2333.79,17.37,2333.79,17.1z"/>
	<path d="M2337.95,10.66c-0.38,0.04-0.6,0.05-0.68,0.05c-0.59,0-1.1-0.21-1.51-0.63c-0.41-0.42-0.62-0.92-0.62-1.52
		c0-0.48,0.15-0.93,0.45-1.36c0.32-0.47,0.71-0.73,1.17-0.79c0.36-0.04,0.61-0.06,0.74-0.06c0.81,0,1.44,0.26,1.9,0.77
		c0.42,0.49,0.63,1.1,0.63,1.84v2.89l-0.24,1.87l0.32-1.06c0.04-0.14,0.23-0.64,0.57-1.51c0.63-1.62,1.29-2.87,1.98-3.76
		c0.32-0.41,0.56-0.67,0.7-0.77c0.23-0.17,0.54-0.26,0.93-0.26c0.88,0,1.59,0.31,2.13,0.92c0.52,0.58,0.78,1.32,0.78,2.21v9.62
		h-2.08V9.3c0-0.69-0.31-1.02-0.93-1.01c-0.32,0.01-0.81,0.68-1.46,2.01c-0.44,0.89-0.81,1.73-1.1,2.51
		c-0.59,1.57-1.05,3.24-1.39,5.02c-0.14,0.73-0.21,1.16-0.21,1.3h-2.08V10.66z M2336.32,8.57c0,0.25,0.09,0.47,0.29,0.66
		c0.19,0.19,0.41,0.29,0.66,0.29c0.26,0,0.5-0.09,0.69-0.28c0.2-0.19,0.29-0.41,0.29-0.67c0-0.28-0.1-0.51-0.29-0.7
		c-0.19-0.19-0.42-0.28-0.7-0.28c-0.26,0-0.48,0.1-0.67,0.3C2336.42,8.09,2336.32,8.32,2336.32,8.57z"/>
	<path d="M2356.74,17.54c0.29,0,0.51-0.11,0.68-0.33c0.14-0.18,0.21-0.43,0.21-0.75V6.52h2.12v10.27c0,0.64-0.17,1.17-0.49,1.61
		c-0.38,0.49-1.03,0.74-1.95,0.74h-7.88v-1.6h0.85V15.4c0-0.79,0.17-1.41,0.5-1.88c0.39-0.54,0.88-0.86,1.46-0.95
		c-0.87,0-1.57-0.26-2.1-0.77c-0.54-0.51-0.81-1.2-0.81-2.06c0-1.08,0.41-1.94,1.23-2.58c0.74-0.56,1.67-0.85,2.8-0.85
		c0.75,0,1.35,0.19,1.82,0.57c0.49,0.41,0.74,0.99,0.74,1.72c0,0.81-0.29,1.39-0.86,1.76c-0.38,0.24-0.8,0.35-1.27,0.35
		c-1.04,0-1.69-0.38-1.96-1.13c-0.09-0.25-0.14-0.49-0.14-0.74c0-0.23,0.02-0.39,0.06-0.49c-0.19,0.02-0.36,0.18-0.5,0.47
		c-0.12,0.25-0.19,0.48-0.19,0.7c0,1.24,0.73,1.96,2.2,2.16c0.48,0.07,0.96,0.11,1.43,0.11h0.93v1.44h-0.98
		c-0.68,0-1.19,0.15-1.53,0.46c-0.44,0.39-0.65,0.94-0.65,1.65v2.21H2356.74z M2352.77,8.6c0,0.27,0.1,0.49,0.3,0.68
		c0.2,0.19,0.42,0.28,0.68,0.28c0.26,0,0.49-0.1,0.68-0.29c0.2-0.19,0.29-0.42,0.29-0.67c0-0.64-0.33-0.95-0.98-0.95
		c-0.26,0-0.49,0.09-0.69,0.28C2352.87,8.11,2352.77,8.34,2352.77,8.6z"/>
</g>
</svg>
