<?xml version="1.0" encoding="utf-8"?>
<!-- Generator: Adobe Illustrator 18.0.0, SVG Export Plug-In . SVG Version: 6.00 Build 0)  -->
<!DOCTYPE svg PUBLIC "-//W3C//DTD SVG 1.1//EN" "http://www.w3.org/Graphics/SVG/1.1/DTD/svg11.dtd">
<svg version="1.1" id="Layer_1" xmlns="http://www.w3.org/2000/svg" xmlns:xlink="http://www.w3.org/1999/xlink" x="0px" y="0px"
	 width="60.17px" height="30px" viewBox="2250.3 -4.21 60.17 30" style="enable-background:new 2250.3 -4.21 60.17 30;"
	 xml:space="preserve">
<style type="text/css">
	.st0{fill-rule:evenodd;clip-rule:evenodd;}
</style>
<g>
	<path d="M2265.94,5.52v1.56h-2.53v2.87h0.62c0.51,0,1,0.07,1.47,0.22c0.46,0.15,0.88,0.37,1.23,0.67c0.35,0.3,0.63,0.67,0.84,1.13
		c0.21,0.45,0.32,0.98,0.32,1.59c0,0.6-0.01,1.18-0.02,1.73c-0.02,0.55-0.08,1.06-0.17,1.54c-0.09,0.48-0.24,0.91-0.43,1.3
		c-0.19,0.39-0.46,0.72-0.81,1c-0.35,0.28-0.78,0.49-1.31,0.64c-0.53,0.15-1.17,0.23-1.93,0.23h-4.34c-0.4,0-0.74,0.05-1.02,0.15
		c-0.29,0.1-0.53,0.22-0.72,0.38c-0.2,0.16-0.36,0.34-0.48,0.54c-0.12,0.21-0.22,0.42-0.28,0.63c-0.07,0.22-0.11,0.43-0.14,0.64
		c-0.02,0.21-0.03,0.4-0.03,0.57h-1.91c0-0.28,0.03-0.58,0.08-0.91c0.05-0.33,0.15-0.66,0.28-0.99c0.13-0.33,0.31-0.65,0.55-0.96
		c0.23-0.31,0.53-0.58,0.89-0.82c0.36-0.24,0.8-0.43,1.3-0.57c0.51-0.14,1.1-0.22,1.79-0.22h3.9c0.47,0,0.87-0.04,1.2-0.13
		c0.33-0.09,0.59-0.22,0.81-0.4c0.22-0.18,0.38-0.41,0.49-0.69c0.11-0.28,0.21-0.6,0.26-0.98c0.06-0.37,0.09-0.8,0.1-1.28
		c0.01-0.48,0.02-1.01,0.02-1.59c0-0.37-0.06-0.68-0.19-0.92c-0.13-0.24-0.31-0.43-0.54-0.57c-0.23-0.14-0.5-0.24-0.81-0.29
		c-0.31-0.06-0.65-0.09-1.02-0.09v1.45c0,0.57-0.07,1.11-0.19,1.62c-0.13,0.51-0.35,0.96-0.66,1.35c-0.31,0.39-0.72,0.7-1.24,0.93
		c-0.52,0.23-1.17,0.35-1.94,0.35c-0.37,0-0.72-0.06-1.07-0.18c-0.35-0.12-0.68-0.28-0.99-0.49c-0.31-0.21-0.6-0.45-0.87-0.73
		c-0.27-0.28-0.5-0.58-0.69-0.89c-0.19-0.31-0.34-0.64-0.45-0.97c-0.11-0.34-0.16-0.67-0.16-0.99c0-0.34,0.04-0.67,0.12-0.97
		c0.08-0.31,0.21-0.59,0.39-0.83c0.18-0.25,0.41-0.46,0.69-0.62c0.29-0.17,0.63-0.28,1.04-0.34V5.52H2265.94z M2261.5,11.5h-2.84
		c-0.21,0-0.42,0.02-0.61,0.06c-0.19,0.04-0.36,0.11-0.51,0.22c-0.15,0.11-0.27,0.25-0.36,0.44c-0.09,0.19-0.13,0.43-0.13,0.73
		c0,0.32,0.08,0.64,0.24,0.96c0.16,0.32,0.36,0.61,0.6,0.87c0.24,0.26,0.5,0.47,0.78,0.63c0.28,0.16,0.53,0.24,0.77,0.24
		c0.36,0,0.67-0.07,0.93-0.21c0.26-0.14,0.48-0.34,0.65-0.6c0.17-0.26,0.29-0.57,0.37-0.94c0.08-0.37,0.12-0.77,0.12-1.22V11.5z
		 M2261.5,9.94V7.07h-2.2v2.87H2261.5z"/>
	<path d="M2270.78,17.2V5.52h1.91v10.13h4.48V8.88c0-0.44,0.05-0.87,0.15-1.31c0.1-0.43,0.28-0.82,0.54-1.17
		c0.26-0.35,0.62-0.63,1.07-0.85c0.46-0.21,1.04-0.32,1.75-0.32c0.55,0,1.06,0.11,1.51,0.34c0.45,0.23,0.85,0.53,1.21,0.91
		c0.35,0.38,0.66,0.82,0.92,1.31c0.26,0.49,0.47,1,0.64,1.54c0.17,0.53,0.29,1.06,0.38,1.6c0.08,0.54,0.12,1.03,0.12,1.49v2.05
		c0,0.58-0.08,1.05-0.23,1.4c-0.15,0.36-0.38,0.63-0.67,0.83c-0.29,0.19-0.65,0.33-1.07,0.39c-0.42,0.07-0.9,0.1-1.44,0.1H2270.78z
		 M2279.08,15.64h2.97c0.15,0,0.31-0.01,0.48-0.03c0.18-0.02,0.34-0.07,0.48-0.15c0.15-0.08,0.27-0.2,0.38-0.35
		c0.1-0.15,0.15-0.37,0.15-0.65v-2.02c0-0.38-0.03-0.78-0.08-1.21c-0.06-0.43-0.14-0.85-0.25-1.27c-0.11-0.42-0.25-0.82-0.4-1.21
		c-0.16-0.39-0.34-0.73-0.55-1.02c-0.21-0.29-0.44-0.53-0.7-0.7c-0.26-0.17-0.54-0.26-0.83-0.26c-0.33,0-0.6,0.06-0.81,0.18
		c-0.21,0.12-0.38,0.28-0.51,0.48c-0.12,0.2-0.21,0.42-0.26,0.67c-0.05,0.25-0.07,0.5-0.07,0.76V15.64z"/>
	<path d="M2288.96,17.2h-1.91V8.1c0-1.85-0.24-3.18-0.73-3.98c-0.64-1.06-1.83-1.59-3.56-1.59c-0.64,0-1.23,0.15-1.77,0.44
		c-0.65,0.36-0.97,0.83-0.97,1.42c0,0.31,0.09,0.58,0.26,0.8c0.17,0.22,0.41,0.33,0.72,0.33l-0.52,0.7
		c-0.85,0.01-1.02,0.64-1.55,0.19c-0.55-0.48-0.82-1.14-0.82-1.98c0-1.07,0.55-1.93,1.65-2.6c0.94-0.57,1.98-0.85,3.12-0.85
		c1.76,0,3.2,0.51,4.33,1.53c1.17,1.06,1.75,2.46,1.75,4.2V17.2z"/>
	<path d="M2291.67,17.2V5.52h1.92v10.13h4.48V8.88c0-0.44,0.05-0.87,0.15-1.31c0.1-0.43,0.28-0.82,0.54-1.17
		c0.26-0.35,0.62-0.63,1.07-0.85c0.45-0.21,1.03-0.32,1.74-0.32c0.55,0,1.06,0.11,1.51,0.34c0.45,0.23,0.85,0.53,1.21,0.91
		c0.35,0.38,0.66,0.82,0.92,1.31s0.47,1,0.64,1.54c0.17,0.53,0.29,1.06,0.38,1.6c0.08,0.54,0.12,1.03,0.12,1.49v2.05
		c0,0.58-0.08,1.05-0.23,1.4c-0.15,0.36-0.37,0.63-0.67,0.83c-0.29,0.19-0.65,0.33-1.07,0.39c-0.42,0.07-0.9,0.1-1.44,0.1h-2.97
		c0.05,0.18,0.13,0.35,0.23,0.52c0.11,0.17,0.23,0.32,0.38,0.46c0.15,0.13,0.31,0.24,0.49,0.33c0.18,0.08,0.36,0.12,0.54,0.12h2.93
		v1.56h-1.74c-0.39,0-0.75,0.06-1.05,0.17c-0.31,0.12-0.6,0.26-0.86,0.45c-0.27,0.19-0.53,0.4-0.78,0.63
		c-0.25,0.23-0.51,0.47-0.79,0.72c-0.26,0.23-0.55,0.45-0.86,0.68c-0.3,0.22-0.65,0.42-1.04,0.59c-0.39,0.17-0.83,0.31-1.32,0.41
		c-0.49,0.1-1.05,0.15-1.68,0.15c-0.45,0-0.85-0.07-1.21-0.22c-0.36-0.14-0.67-0.34-0.92-0.59c-0.25-0.25-0.45-0.54-0.58-0.87
		c-0.13-0.33-0.21-0.68-0.21-1.05c0-0.37,0.07-0.72,0.22-1.04c0.14-0.32,0.35-0.6,0.61-0.84c0.26-0.23,0.56-0.42,0.91-0.56
		c0.35-0.13,0.72-0.2,1.12-0.2h0.83v1.58c-0.6,0-1.04,0.09-1.34,0.28c-0.29,0.19-0.44,0.48-0.44,0.87c0,0.14,0.04,0.28,0.13,0.41
		c0.09,0.13,0.2,0.24,0.34,0.34c0.14,0.1,0.3,0.18,0.47,0.23c0.18,0.06,0.35,0.09,0.53,0.09c0.39,0,0.74-0.04,1.05-0.11
		c0.31-0.07,0.59-0.17,0.84-0.29c0.25-0.12,0.49-0.26,0.7-0.42c0.21-0.16,0.42-0.32,0.62-0.5c0.17-0.15,0.34-0.3,0.51-0.46
		c0.17-0.16,0.34-0.3,0.52-0.45c0.18-0.14,0.37-0.27,0.57-0.4c0.2-0.12,0.43-0.23,0.67-0.33c-0.27,0-0.53-0.05-0.77-0.17
		c-0.24-0.11-0.46-0.27-0.65-0.47c-0.2-0.2-0.37-0.45-0.52-0.73c-0.15-0.28-0.27-0.59-0.36-0.93H2291.67z M2299.97,15.64h2.98
		c0.14,0,0.31-0.01,0.48-0.03c0.17-0.02,0.33-0.07,0.48-0.15c0.15-0.08,0.27-0.2,0.37-0.35c0.1-0.15,0.15-0.37,0.15-0.65v-2.02
		c0-0.38-0.03-0.78-0.08-1.21c-0.06-0.43-0.14-0.85-0.25-1.27c-0.11-0.42-0.24-0.82-0.4-1.21s-0.34-0.73-0.55-1.02
		c-0.21-0.29-0.44-0.53-0.7-0.7c-0.26-0.17-0.53-0.26-0.83-0.26c-0.33,0-0.6,0.06-0.82,0.18c-0.21,0.12-0.38,0.28-0.5,0.48
		c-0.12,0.2-0.21,0.42-0.26,0.67c-0.05,0.25-0.07,0.5-0.07,0.76V15.64z"/>
	<path d="M2297.48,2.22c0-0.39,0.14-0.73,0.42-1.01c0.28-0.28,0.62-0.42,1.01-0.42c0.41,0,0.74,0.14,1.02,0.42
		c0.28,0.28,0.41,0.62,0.41,1.01c0,0.4-0.14,0.74-0.41,1.02c-0.28,0.28-0.62,0.41-1.02,0.41c-0.39,0-0.73-0.14-1.01-0.41
		C2297.62,2.97,2297.48,2.63,2297.48,2.22z"/>
</g>
<rect x="2306.97" y="10.33" width="0.12" height="0"/>
</svg>
