<?xml version="1.0" encoding="utf-8"?>
<!-- Generator: Adobe Illustrator 18.0.0, SVG Export Plug-In . SVG Version: 6.00 Build 0)  -->
<!DOCTYPE svg PUBLIC "-//W3C//DTD SVG 1.1//EN" "http://www.w3.org/Graphics/SVG/1.1/DTD/svg11.dtd">
<svg version="1.1" id="Layer_1" xmlns="http://www.w3.org/2000/svg" xmlns:xlink="http://www.w3.org/1999/xlink" x="0px" y="0px"
	 width="68.88px" height="30px" viewBox="3363.84 -4.21 68.88 30" style="enable-background:new 3363.84 -4.21 68.88 30;"
	 xml:space="preserve">
<style type="text/css">
	.st0{fill-rule:evenodd;clip-rule:evenodd;}
</style>
<g>
	<polyline points="3379.73,4.15 3381.76,4.15 3381.76,19.12 3379.92,19.12 3369.91,7.59 3369.91,19.12 3367.9,19.12 3367.9,4.15 
		3369.64,4.15 3379.73,15.77 3379.73,4.15 	"/>
	<polyline points="3385.62,4.15 3394.11,4.15 3394.11,6.06 3387.77,6.06 3387.77,10.62 3393.9,10.62 3393.9,12.54 3387.77,12.54 
		3387.77,17.19 3394.31,17.19 3394.31,19.09 3385.62,19.09 3385.62,4.15 	"/>
	<polyline points="3416.97,4.15 3419.11,4.15 3413.06,19.18 3412.59,19.18 3407.7,7.01 3402.75,19.18 3402.29,19.18 3396.26,4.15 
		3398.42,4.15 3402.54,14.47 3406.7,4.15 3408.72,4.15 3412.89,14.47 3416.97,4.15 	"/>
	<path d="M3424.92,12.85l-1.63-0.99c-1.02-0.62-1.75-1.24-2.18-1.84c-0.43-0.6-0.65-1.3-0.65-2.08c0-1.18,0.41-2.14,1.23-2.87
		c0.82-0.74,1.88-1.1,3.19-1.1c1.25,0,2.4,0.35,3.44,1.05v2.43c-1.08-1.04-2.24-1.56-3.48-1.56c-0.7,0-1.27,0.16-1.73,0.49
		c-0.45,0.32-0.67,0.74-0.67,1.24c0,0.45,0.17,0.87,0.5,1.26c0.33,0.39,0.86,0.8,1.6,1.23l1.64,0.97c1.82,1.09,2.74,2.48,2.74,4.16
		c0,1.2-0.4,2.17-1.21,2.92c-0.8,0.75-1.85,1.12-3.13,1.12c-1.48,0-2.82-0.45-4.04-1.36V15.2c1.16,1.47,2.5,2.2,4.02,2.2
		c0.67,0,1.23-0.19,1.68-0.56c0.45-0.37,0.67-0.84,0.67-1.4C3426.89,14.53,3426.23,13.66,3424.92,12.85"/>
</g>
</svg>
