<?xml version="1.0" encoding="utf-8"?>
<!-- Generator: Adobe Illustrator 18.0.0, SVG Export Plug-In . SVG Version: 6.00 Build 0)  -->
<!DOCTYPE svg PUBLIC "-//W3C//DTD SVG 1.1//EN" "http://www.w3.org/Graphics/SVG/1.1/DTD/svg11.dtd">
<svg version="1.1" id="Layer_1" xmlns="http://www.w3.org/2000/svg" xmlns:xlink="http://www.w3.org/1999/xlink" x="0px" y="0px"
	 width="80.7px" height="15.5px" viewBox="1482.97 3.79 80.7 15.5" style="enable-background:new 1482.97 3.79 80.7 15.5;"
	 xml:space="preserve">
<style type="text/css">
	.st0{fill-rule:evenodd;clip-rule:evenodd;}
	.st1{fill:#1E1E1E;}
</style>
<g>
	<polygon points="1497.05,3.99 1495.03,3.99 1490.01,10.19 1485,3.99 1482.97,3.99 1482.97,19.09 1485.14,19.09 1485.14,7.34 
		1485.18,7.34 1489.83,13.18 1490.18,13.18 1494.84,7.34 1494.88,7.34 1494.88,19.09 1497.05,19.09 1497.05,3.99 	"/>
	<path d="M1512.55,3.99h-2.17v8.79c0,1.42-0.18,2.52-0.95,3.3c-0.69,0.69-1.88,1.22-3.54,1.22c-1.31,0-2.39-0.42-3.25-1.28
		c-0.69-0.69-0.91-1.4-0.91-3.1V3.99h-2.17v9.39c0,4.12,3.1,5.91,6.29,5.91c4.5,0,6.71-2.44,6.71-6.13V3.99L1512.55,3.99z"/>
	<polygon points="1529.06,3.99 1527.02,3.99 1527.02,15.68 1516.79,3.99 1515.06,3.99 1515.06,19.09 1517.1,19.09 1517.1,7.47 
		1527.2,19.09 1529.06,19.09 1529.06,3.99 	"/>
	<path class="st0" d="M1531.95,19.09h5.89c4.98,0,8.02-3.68,8.02-7.55c0-3.56-2.46-7.55-8.04-7.55h-5.87V19.09L1531.95,19.09z
		 M1534.12,5.94h3.34c4.23,0,6.16,2.57,6.16,5.6c0,1.86-1.13,5.6-6.04,5.6h-3.46V5.94L1534.12,5.94z"/>
	<path class="st0" d="M1547.43,11.54c0,4.1,3.12,7.75,8.06,7.75c5.12,0,8.17-3.68,8.17-7.75c0-4.21-3.14-7.75-8.13-7.75
		C1550.64,3.79,1547.43,7.36,1547.43,11.54L1547.43,11.54z M1549.67,11.54c0-3.32,2.5-5.76,5.87-5.76c3.39,0,5.89,2.44,5.89,5.76
		c0,3.3-2.5,5.76-5.89,5.76C1552.17,17.3,1549.67,14.84,1549.67,11.54L1549.67,11.54z"/>
</g>
</svg>
