<?xml version="1.0" encoding="utf-8"?>
<!-- Generator: Adobe Illustrator 18.0.0, SVG Export Plug-In . SVG Version: 6.00 Build 0)  -->
<!DOCTYPE svg PUBLIC "-//W3C//DTD SVG 1.1//EN" "http://www.w3.org/Graphics/SVG/1.1/DTD/svg11.dtd">
<svg version="1.1" id="Layer_1" xmlns="http://www.w3.org/2000/svg" xmlns:xlink="http://www.w3.org/1999/xlink" x="0px" y="0px"
	 width="65.25px" height="15.5px" viewBox="476.05 3.79 65.25 15.5" style="enable-background:new 476.05 3.79 65.25 15.5;"
	 xml:space="preserve">
<style type="text/css">
	.st0{fill-rule:evenodd;clip-rule:evenodd;}
	.st1{fill:#1E1E1E;}
</style>
<path class="st0" d="M476.05,19.09h5.18c3.79,0,5.18-2.17,5.18-4.03c0-2.04-1.37-3.52-3.63-3.94v-0.04c1.57-0.64,2.3-1.66,2.3-3.23
	c0-1.91-1.4-3.85-4.65-3.85h-4.38V19.09L476.05,19.09z M478.22,5.94h1.99c1.99,0,2.64,0.98,2.64,2.1c0,1.62-1.04,2.41-3.19,2.41
	h-1.44V5.94L478.22,5.94z M478.22,12.4h2.61c2.28,0,3.34,0.98,3.34,2.35c0,1.13-0.69,2.39-3.23,2.39h-2.72V12.4L478.22,12.4z"/>
<path class="st0" d="M488.56,3.99v15.1h2.17v-6.56h0.91c1.11,0,2.01,0.36,4.01,3.46l1.99,3.1h2.59c-1.04-1.44-1.42-1.95-2.06-2.99
	c-1.15-1.88-1.99-3.28-3.36-4.19c1.62-0.64,2.52-1.95,2.52-3.7c0-2.61-1.9-4.23-4.96-4.23H488.56L488.56,3.99z M490.73,5.85h1.4
	c2.1,0,2.95,0.86,2.97,2.28c0.02,1.26-0.64,2.46-2.97,2.46h-1.4V5.85L490.73,5.85z"/>
<path class="st0" d="M508.24,3.9h-1.53l-6.49,15.19h2.21l1.91-4.45h6.42l2.02,4.45h2.21L508.24,3.9L508.24,3.9z M507.44,7.22
	l2.44,5.47h-4.69L507.44,7.22L507.44,7.22z"/>
<path d="M523.83,4.85c-1.06-0.71-2.21-1.06-3.37-1.06c-2.77,0-4.58,1.57-4.58,4.03c0,4.14,6.53,4.5,6.53,7.62
	c0,0.84-0.77,1.9-2.46,1.9c-1.48,0-2.88-0.77-3.99-2.19v2.75c1.26,0.95,2.59,1.39,4.23,1.39c2.44,0,4.23-1.73,4.23-4.1
	c0-4.81-6.53-4.76-6.53-7.66c0-1.06,1-1.79,2.39-1.79c1.02,0,2.26,0.35,3.54,1.57V4.85L523.83,4.85z"/>
<polygon points="528.99,3.99 526.81,3.99 526.81,19.09 528.99,19.09 528.99,3.99 "/>
<polygon points="534.48,3.99 532.31,3.99 532.31,19.09 541.3,19.09 541.3,17.14 534.48,17.14 534.48,3.99 "/>
</svg>
