<?xml version="1.0" encoding="utf-8"?>
<!-- Generator: Adobe Illustrator 18.0.0, SVG Export Plug-In . SVG Version: 6.00 Build 0)  -->
<!DOCTYPE svg PUBLIC "-//W3C//DTD SVG 1.1//EN" "http://www.w3.org/Graphics/SVG/1.1/DTD/svg11.dtd">
<svg version="1.1" id="Layer_1" xmlns="http://www.w3.org/2000/svg" xmlns:xlink="http://www.w3.org/1999/xlink" x="0px" y="0px"
	 width="43.85px" height="18.66px" viewBox="118.03 3.94 43.85 18.66" style="enable-background:new 118.03 3.94 43.85 18.66;"
	 xml:space="preserve">
<style type="text/css">
	.st0{fill-rule:evenodd;clip-rule:evenodd;}
	.st1{fill:#1E1E1E;}
</style>
<g>
	<path d="M124.9,21.17c0,0,0-0.06-0.12-0.17l-1.16-1.16c-0.14-0.14-0.31-0.08-0.35-0.03l-1.18,1.14c-0.03,0.06-0.04,0.13-0.04,0.21
		c0,0.08,0.02,0.15,0.05,0.22l1.17,1.12c0.08,0.08,0.15,0.09,0.19,0.09c0.04,0,0.1-0.01,0.18-0.09l1.14-1.14
		C124.83,21.32,124.9,21.24,124.9,21.17z"/>
	<path d="M123.45,22.6c-0.04,0-0.11-0.01-0.19-0.09l-1.17-1.12c-0.03-0.06-0.05-0.14-0.05-0.22c0-0.08,0.02-0.15,0.04-0.21
		l1.18-1.14c0.04-0.05,0.21-0.11,0.35,0.03l1.16,1.16c0.11,0.11,0.12,0.17,0.12,0.17c0,0.07-0.06,0.15-0.12,0.2l-1.14,1.14
		C123.56,22.59,123.49,22.6,123.45,22.6z"/>
	<path d="M126.92,19.83c-0.07-0.07-0.13-0.07-0.17-0.07c-0.07,0-0.12,0.02-0.17,0.08l-1.14,1.15c0,0-0.02,0.05-0.02,0.18
		c0,0.18,0.03,0.22,0.03,0.22l1.14,1.14c0.08,0.08,0.14,0.09,0.17,0.09c0.05,0,0.09-0.01,0.14-0.07l1.19-1.17
		c0.02-0.02,0.06-0.06,0.06-0.2c0-0.1-0.04-0.15-0.06-0.18L126.92,19.83z"/>
	<path d="M128.09,21.36l-1.19,1.17c-0.05,0.06-0.09,0.07-0.14,0.07c-0.04,0-0.09-0.01-0.17-0.09l-1.14-1.14c0,0-0.03-0.04-0.03-0.22
		c0-0.12,0.02-0.18,0.02-0.18l1.14-1.15c0.05-0.05,0.11-0.08,0.17-0.08c0.04,0,0.1,0.01,0.17,0.07l1.17,1.15
		c0.03,0.03,0.06,0.07,0.06,0.18C128.15,21.3,128.1,21.34,128.09,21.36z"/>
	<path d="M138.86,4.21c-0.05-0.09-0.08-0.15-0.11-0.18l-2.49,2.15c0.96,1.21,1.44,2.45,1.44,3.69c0,0.09,0,0.22-0.02,0.39
		l-0.01,0.24h-11.72c0.01,0.09,0.05,0.23,0.09,0.44l0.09,0.39c0.05,0.22,0.08,0.36,0.09,0.42l0.17,0.69
		c0.1,0.44,0.19,0.57,0.23,0.61c0.14,0.15,0.32,0.21,0.57,0.21h2.13l-0.15,0.36c-0.27,0.62-0.68,1.13-1.24,1.49
		c-0.89,0.59-1.91,0.89-3.03,0.89c-1.69,0-3.06-0.73-4.06-2.17c-0.74-1.04-1.24-2.31-1.49-3.76c-0.02-0.1-0.03-0.17-0.05-0.22
		c-0.05,0.09-0.17,0.32-0.46,0.91l-0.2,0.44c-0.27,0.55-0.47,0.99-0.62,1.33c0.35,1.86,1.13,3.35,2.32,4.44
		c1.28,1.18,3.01,1.77,5.12,1.77c2.2,0,3.95-0.64,5.21-1.9c0.91-0.91,1.47-2.04,1.68-3.36l0.03-0.22h8.14
		c0.08-0.7,0.12-1.47,0.12-2.27c0-1.24-0.18-2.5-0.55-3.73C139.76,6.09,139.34,5.06,138.86,4.21z"/>
	<path d="M140.53,13.27h-8.14l-0.03,0.22c-0.21,1.32-0.77,2.45-1.68,3.36c-1.26,1.26-3.01,1.9-5.21,1.9c-2.11,0-3.83-0.6-5.12-1.77
		c-1.19-1.09-1.97-2.58-2.32-4.44c0.15-0.34,0.36-0.78,0.62-1.33l0.2-0.44c0.29-0.59,0.41-0.82,0.46-0.91
		c0.02,0.05,0.03,0.12,0.05,0.22c0.25,1.45,0.75,2.72,1.49,3.76c1.01,1.44,2.37,2.17,4.06,2.17c1.12,0,2.14-0.3,3.03-0.89
		c0.56-0.36,0.97-0.87,1.24-1.49l0.15-0.36h-2.13c-0.25,0-0.43-0.07-0.57-0.21c-0.04-0.04-0.13-0.17-0.23-0.61l-0.17-0.69
		c-0.01-0.06-0.04-0.2-0.09-0.42l-0.09-0.39c-0.05-0.21-0.08-0.35-0.09-0.44h11.72l0.01-0.24c0.01-0.17,0.02-0.3,0.02-0.39
		c0-1.24-0.48-2.48-1.44-3.69l2.49-2.15c0.03,0.03,0.06,0.09,0.11,0.18c0.48,0.86,0.9,1.89,1.24,3.06c0.36,1.24,0.55,2.49,0.55,3.73
		C140.65,11.8,140.61,12.56,140.53,13.27z"/>
	<path d="M137.14,16.14c-0.07-0.07-0.14-0.1-0.19-0.1c-0.05,0-0.12,0.04-0.19,0.11l-1.14,1.1c-0.01,0.01-0.07,0.07-0.07,0.23
		c0,0.16,0.06,0.22,0.07,0.23l1.12,1.09c0.13,0.12,0.29,0.08,0.4-0.01l1.13-1.09c0.04-0.04,0.1-0.11,0.1-0.25
		c0-0.05-0.01-0.12-0.09-0.2L137.14,16.14z"/>
	<path d="M138.28,17.7l-1.13,1.09c-0.11,0.09-0.27,0.13-0.4,0.01l-1.12-1.09c-0.02-0.02-0.07-0.08-0.07-0.23
		c0-0.16,0.06-0.21,0.07-0.23l1.14-1.1c0.07-0.07,0.14-0.11,0.19-0.11c0.05,0,0.12,0.04,0.19,0.1l1.14,1.1
		c0.08,0.08,0.09,0.14,0.09,0.2C138.38,17.59,138.32,17.66,138.28,17.7z"/>
	<path d="M156.13,10.15c-0.25-0.17-0.47-0.39-0.63-0.66c-0.26-0.39-0.4-0.85-0.4-1.37c0-0.71,0.33-1.34,0.98-1.85
		c0.67-0.54,1.6-0.81,2.76-0.81c0.45,0,0.81,0.03,1.08,0.07V4.37c-1.15-0.29-2.2-0.44-3.15-0.44c-1.35,0-2.44,0.41-3.26,1.23
		c-0.87,0.85-1.29,1.88-1.29,3.16c0,0.62,0.13,1.23,0.39,1.81l0.16,0.36l-5.16-0.01l-0.03-0.22c-0.27-1.72-0.75-3.45-1.43-5.16
		c-0.01-0.02-0.02-0.03-0.02-0.05c-0.01,0.01-0.03,0.03-0.05,0.05l-2.2,2.03c-0.08,0.07-0.11,0.13-0.11,0.21
		c0,0.09,0.04,0.26,0.21,0.56c0.28,0.49,0.55,1.15,0.79,1.96c0.29,0.98,0.43,1.76,0.43,2.41c0,1.14-0.29,2.06-0.85,2.74
		c-0.75,0.91-1.95,1.4-3.58,1.48c-0.14,0.01-0.23,0.02-0.28,0.04c0.04,0.08,0.15,0.24,0.44,0.52l1.75,1.71
		c3.26-0.47,4.92-2.35,5.07-5.73l0.03-0.65l0.42,0.49c0.2,0.23,0.46,0.36,0.79,0.38l0.2,0.01h12.35c0.34,0,0.34-0.11,0.34-0.18
		v-2.39c0-0.06,0-0.13,0-0.19h-4.69C156.83,10.5,156.49,10.38,156.13,10.15z"/>
	<path d="M161.88,10.69v2.39c0,0.08,0,0.18-0.34,0.18h-12.35l-0.2-0.01c-0.33-0.02-0.59-0.15-0.79-0.38l-0.42-0.49l-0.03,0.65
		c-0.15,3.38-1.81,5.26-5.07,5.73l-1.75-1.71c-0.29-0.28-0.4-0.44-0.44-0.52c0.05-0.01,0.14-0.03,0.28-0.04
		c1.62-0.08,2.83-0.58,3.58-1.48c0.56-0.68,0.85-1.6,0.85-2.74c0-0.65-0.14-1.43-0.43-2.41c-0.24-0.81-0.5-1.47-0.79-1.96
		c-0.17-0.3-0.21-0.47-0.21-0.56c0-0.08,0.03-0.14,0.11-0.21l2.2-2.03c0.02-0.02,0.04-0.04,0.05-0.05c0.01,0.01,0.01,0.03,0.02,0.05
		c0.68,1.71,1.16,3.44,1.43,5.16l0.03,0.22l5.16,0.01l-0.16-0.36c-0.26-0.58-0.39-1.19-0.39-1.81c0-1.28,0.42-2.31,1.29-3.16
		c0.81-0.82,1.91-1.23,3.26-1.23c0.94,0,2,0.15,3.15,0.44v1.16c-0.26-0.05-0.63-0.07-1.08-0.07c-1.16,0-2.09,0.27-2.76,0.81
		c-0.65,0.52-0.98,1.14-0.98,1.85c0,0.52,0.13,0.98,0.4,1.37c0.17,0.27,0.38,0.49,0.63,0.66c0.35,0.23,0.7,0.34,1.05,0.34h4.69
		C161.88,10.57,161.88,10.63,161.88,10.69z"/>
</g>
</svg>
