<?xml version="1.0" encoding="utf-8"?>
<!-- Generator: Adobe Illustrator 18.0.0, SVG Export Plug-In . SVG Version: 6.00 Build 0)  -->
<!DOCTYPE svg PUBLIC "-//W3C//DTD SVG 1.1//EN" "http://www.w3.org/Graphics/SVG/1.1/DTD/svg11.dtd">
<svg version="1.1" id="Layer_1" xmlns="http://www.w3.org/2000/svg" xmlns:xlink="http://www.w3.org/1999/xlink" x="0px" y="0px"
	 width="77.4px" height="30px" viewBox="957.08 -4.21 77.4 30" style="enable-background:new 957.08 -4.21 77.4 30;"
	 xml:space="preserve">
<style type="text/css">
	.st0{fill-rule:evenodd;clip-rule:evenodd;}
</style>
<g>
	<path d="M973.88,19.09h-2.17v-6.58h-8.46v6.58h-2.17V3.99h2.17v6.58h8.46V3.99h2.17V19.09z"/>
	<path d="M990.33,19.09h-2.21l-2.02-4.45h-6.42l-1.9,4.45h-2.21l6.49-15.19h1.53L990.33,19.09z M980.52,12.69h4.69l-2.44-5.47
		L980.52,12.69z"/>
	<path d="M1004.24,13.16c0,3.7-2.21,6.13-6.71,6.13c-3.19,0-6.29-1.79-6.29-5.91V3.99h2.17v8.92c0,1.71,0.22,2.41,0.91,3.1
		c0.86,0.86,1.95,1.28,3.25,1.28c1.66,0,2.86-0.53,3.54-1.22c0.78-0.78,0.95-1.88,0.95-3.3V3.99h2.17V13.16z"/>
	<path d="M1014.41,7.31c-1.29-1.22-2.52-1.57-3.54-1.57c-1.39,0-2.39,0.73-2.39,1.79c0,2.9,6.53,2.86,6.53,7.66
		c0,2.37-1.79,4.1-4.23,4.1c-1.64,0-2.97-0.44-4.23-1.39v-2.75c1.11,1.42,2.5,2.19,3.99,2.19c1.68,0,2.46-1.06,2.46-1.9
		c0-3.12-6.53-3.48-6.53-7.62c0-2.46,1.82-4.03,4.58-4.03c1.15,0,2.3,0.35,3.37,1.06V7.31z"/>
	<path d="M1030.48,19.09h-2.21l-2.01-4.45h-6.42l-1.9,4.45h-2.21l6.49-15.19h1.53L1030.48,19.09z M1020.67,12.69h4.69l-2.44-5.47
		L1020.67,12.69z"/>
</g>
</svg>
