<?xml version="1.0" encoding="utf-8"?>
<!-- Generator: Adobe Illustrator 18.0.0, SVG Export Plug-In . SVG Version: 6.00 Build 0)  -->
<!DOCTYPE svg PUBLIC "-//W3C//DTD SVG 1.1//EN" "http://www.w3.org/Graphics/SVG/1.1/DTD/svg11.dtd">
<svg version="1.1" id="Layer_1" xmlns="http://www.w3.org/2000/svg" xmlns:xlink="http://www.w3.org/1999/xlink" x="0px" y="0px"
	 width="100.72px" height="30px" viewBox="836.36 -4.21 100.72 30" style="enable-background:new 836.36 -4.21 100.72 30;"
	 xml:space="preserve">
<style type="text/css">
	.st0{fill-rule:evenodd;clip-rule:evenodd;}
</style>
<g>
	<path d="M854.15,18.05c-1.99,0.86-3.65,1.24-5.54,1.24c-2.59,0-4.5-0.71-6.07-2.28c-1.44-1.44-2.19-3.28-2.19-5.34
		c0-4.52,3.5-7.88,8.17-7.88c1.71,0,2.99,0.31,5.31,1.28v2.21c-1.75-1.02-3.61-1.57-5.36-1.57c-3.3,0-5.87,2.55-5.87,5.82
		c0,3.43,2.5,5.85,6.07,5.85c0.95,0,1.62-0.13,3.1-0.6l0.2-0.07v-3.14h-2.9v-1.9h5.07V18.05z"/>
	<path d="M870.85,19.09h-2.21l-2.02-4.45h-6.42l-1.9,4.45h-2.21l6.49-15.19h1.53L870.85,19.09z M861.04,12.69h4.7l-2.44-5.47
		L861.04,12.69z"/>
	<path d="M885.78,19.09h-2.19v-6.58h-8.46v6.58h-2.17V3.99h2.17v6.53h8.46V3.99h2.19V19.09z"/>
	<path d="M901.76,12.56c0,1.66-0.04,2.04-0.33,2.97c-0.27,0.82-0.73,1.55-1.37,2.13c-1.22,1.09-2.83,1.64-4.76,1.64
		c-3.08,0-5.42-1.42-6.16-3.72c-0.31-0.95-0.35-1.4-0.35-3.03V3.99h2.17v8.57c0,1.99,0.2,2.79,0.95,3.54
		c0.82,0.84,1.95,1.26,3.37,1.26c2.19,0,3.88-1.11,4.19-2.77c0.09-0.4,0.16-1.33,0.16-2.04V3.99h2.15V12.56z"/>
	<path d="M907.37,17.19h9.65v1.9h-13.64l9.68-13.2H904v-1.9h13.02L907.37,17.19z"/>
	<path d="M933.08,19.09h-2.21l-2.02-4.45h-6.42l-1.9,4.45h-2.21L924.8,3.9h1.53L933.08,19.09z M923.27,12.69h4.7l-2.44-5.47
		L923.27,12.69z"/>
</g>
</svg>
