<?xml version="1.0" encoding="utf-8"?>
<!-- Generator: Adobe Illustrator 18.0.0, SVG Export Plug-In . SVG Version: 6.00 Build 0)  -->
<!DOCTYPE svg PUBLIC "-//W3C//DTD SVG 1.1//EN" "http://www.w3.org/Graphics/SVG/1.1/DTD/svg11.dtd">
<svg version="1.1" id="Layer_1" xmlns="http://www.w3.org/2000/svg" xmlns:xlink="http://www.w3.org/1999/xlink" x="0px" y="0px"
	 width="39.75px" height="19.56px" viewBox="1667.51 1.79 39.75 19.56" style="enable-background:new 1667.51 1.79 39.75 19.56;"
	 xml:space="preserve">
<style type="text/css">
	.st0{fill-rule:evenodd;clip-rule:evenodd;}
	.st1{fill:#1E1E1E;}
</style>
<g>
	<path d="M1667.51,18.01c1.15-0.32,2.14-0.67,2.98-1.06c0.83-0.39,1.53-0.79,2.1-1.2c0.57-0.41,1.01-0.82,1.34-1.23
		c0.33-0.41,0.54-0.8,0.65-1.17c-0.8-0.02-1.49-0.13-2.07-0.32c-0.58-0.19-1.07-0.45-1.46-0.75c-0.39-0.31-0.68-0.65-0.86-1.04
		c-0.19-0.39-0.28-0.8-0.28-1.23c0-0.43,0.08-0.86,0.24-1.31c0.16-0.45,0.37-0.85,0.64-1.21c0.27-0.36,0.57-0.65,0.9-0.88
		c0.33-0.22,0.67-0.33,1-0.33c0.39,0,0.77,0.12,1.14,0.36c0.37,0.24,0.71,0.58,1.02,1.02c0.31,0.44,0.57,0.95,0.78,1.54
		c0.21,0.59,0.35,1.24,0.4,1.95h1.45c0.2,0,0.39,0.09,0.57,0.28c0.18,0.19,0.26,0.45,0.26,0.81c0,0.35-0.09,0.63-0.26,0.82
		c-0.18,0.19-0.37,0.29-0.57,0.29h-1.61c-0.22,1.11-0.7,2.17-1.43,3.17c-0.73,1-1.72,1.83-2.96,2.48l-3.56-0.44L1667.51,18.01z
		 M1670.84,9.94c0.17,0.35,0.5,0.64,1.02,0.88c0.51,0.23,1.1,0.35,1.77,0.35h1.17c-0.13-0.8-0.4-1.46-0.82-1.99
		c-0.42-0.53-0.89-0.79-1.43-0.79c-0.39,0-0.75,0.15-1.07,0.44C1671.14,9.13,1670.94,9.5,1670.84,9.94z"/>
	<path d="M1681.55,7.11c0.32,1.43,0.83,2.46,1.54,3.1c0.71,0.64,1.67,0.96,2.85,0.96c0.2,0,0.39,0.09,0.57,0.28
		c0.18,0.19,0.26,0.45,0.26,0.81c0,0.35-0.09,0.63-0.26,0.82c-0.18,0.19-0.37,0.29-0.57,0.29c-1.17,0-2.12-0.22-2.85-0.65
		c-0.73-0.44-1.31-1.12-1.74-2.04c-0.41,0.85-0.93,1.52-1.57,1.99c-0.64,0.47-1.41,0.71-2.32,0.71c-0.2,0-0.38-0.09-0.53-0.28
		c-0.15-0.19-0.22-0.46-0.22-0.83c0-0.35,0.07-0.62,0.21-0.81c0.14-0.19,0.32-0.28,0.54-0.28c0.7,0,1.34-0.13,1.92-0.4
		c0.57-0.27,1.08-0.74,1.5-1.4l-0.17-1.22L1681.55,7.11z M1682.58,4.91c-0.26-0.11-0.54-0.28-0.85-0.5
		c-0.31-0.22-0.57-0.45-0.79-0.7L1680,5.1c-0.3-0.13-0.63-0.32-0.99-0.57c-0.36-0.25-0.65-0.53-0.88-0.85l1.28-1.7
		c0.19,0.24,0.42,0.49,0.7,0.75c0.28,0.26,0.55,0.46,0.81,0.61l1.08-1.56c0.24,0.28,0.55,0.55,0.92,0.82
		c0.37,0.27,0.69,0.47,0.95,0.6L1682.58,4.91z"/>
	<path d="M1699.33,8.61c0.13,0.87,0.44,1.52,0.95,1.93c0.5,0.42,1.12,0.63,1.86,0.63c0.2,0,0.39,0.09,0.57,0.28
		c0.17,0.19,0.26,0.45,0.26,0.81c0,0.35-0.09,0.63-0.26,0.82c-0.18,0.19-0.37,0.29-0.57,0.29c-0.93,0-1.69-0.23-2.29-0.68
		c-0.6-0.45-1-1.08-1.18-1.88c-0.3,0.83-0.66,1.43-1.1,1.78c-0.44,0.35-0.9,0.53-1.38,0.53c-0.56,0-1-0.18-1.32-0.54
		c-0.32-0.36-0.52-0.86-0.6-1.49c-0.41,0.85-0.82,1.45-1.24,1.78c-0.42,0.33-0.89,0.5-1.43,0.5c-0.61,0-1.13-0.2-1.56-0.61
		c-0.43-0.41-0.72-0.97-0.89-1.7c-0.43,0.85-0.91,1.45-1.46,1.79c-0.55,0.34-1.13,0.51-1.74,0.51c-0.19,0-0.36-0.1-0.51-0.29
		c-0.16-0.19-0.24-0.47-0.24-0.82c0-0.3,0.07-0.55,0.22-0.77c0.15-0.21,0.33-0.32,0.53-0.32c0.8,0,1.49-0.19,2.07-0.57
		c0.58-0.38,1.11-1.02,1.57-1.91l0.81-0.2l-0.28,0.83c0.15,0.54,0.4,0.98,0.75,1.32c0.35,0.34,0.77,0.51,1.25,0.51
		s0.91-0.19,1.29-0.56c0.38-0.37,0.77-1.11,1.18-2.23l0.86-0.39l-0.17,0.97c0.04,0.58,0.17,1.04,0.4,1.4
		c0.23,0.36,0.52,0.54,0.88,0.54c0.96,0,1.64-1.03,2.03-3.09l0.95-0.39L1699.33,8.61z M1694.74,18.07c-0.3-0.13-0.63-0.33-0.99-0.61
		c-0.36-0.28-0.65-0.58-0.88-0.89l1.36-1.67c0.22,0.3,0.52,0.58,0.89,0.86c0.37,0.28,0.69,0.49,0.95,0.64L1694.74,18.07z
		 M1694.88,6.16c-0.3-0.13-0.63-0.33-0.99-0.61c-0.36-0.28-0.65-0.58-0.88-0.89l1.36-1.67c0.22,0.3,0.52,0.58,0.89,0.86
		c0.37,0.28,0.69,0.49,0.95,0.64L1694.88,6.16z"/>
	<path d="M1705.65,18.4c-0.26-0.11-0.54-0.28-0.85-0.5c-0.31-0.22-0.57-0.45-0.79-0.69l-0.95,1.39c-0.3-0.13-0.62-0.32-0.99-0.57
		c-0.36-0.25-0.65-0.53-0.88-0.85l1.28-1.7c0.18,0.24,0.42,0.49,0.69,0.75c0.28,0.26,0.55,0.46,0.81,0.61l1.08-1.56
		c0.24,0.28,0.55,0.55,0.92,0.82c0.37,0.27,0.69,0.47,0.95,0.6L1705.65,18.4z M1705.98,3.96c0.41,0.59,0.73,1.27,0.95,2.04
		c0.22,0.77,0.33,1.53,0.33,2.29c0,0.5-0.09,1.05-0.26,1.64c-0.18,0.59-0.46,1.17-0.85,1.72c-0.37,0.58-0.92,1-1.64,1.28
		c-0.72,0.28-1.51,0.42-2.36,0.42c-0.2,0-0.38-0.08-0.53-0.24c-0.15-0.16-0.22-0.44-0.22-0.85c0-0.33,0.07-0.6,0.2-0.81
		c0.13-0.2,0.32-0.31,0.56-0.31c0.82,0,1.53-0.07,2.14-0.22c0.61-0.15,1.17-0.37,1.67-0.67c-0.11-0.82-0.3-1.57-0.56-2.27
		c-0.26-0.7-0.55-1.25-0.86-1.66L1705.98,3.96z M1704.87,21.35c-0.33-0.13-0.67-0.32-1-0.56c-0.33-0.24-0.6-0.49-0.81-0.75
		l1.17-1.61c0.22,0.28,0.5,0.53,0.85,0.75c0.34,0.22,0.7,0.4,1.07,0.53L1704.87,21.35z"/>
</g>
</svg>
