<?xml version="1.0" encoding="utf-8"?>
<!-- Generator: Adobe Illustrator 18.0.0, SVG Export Plug-In . SVG Version: 6.00 Build 0)  -->
<!DOCTYPE svg PUBLIC "-//W3C//DTD SVG 1.1//EN" "http://www.w3.org/Graphics/SVG/1.1/DTD/svg11.dtd">
<svg version="1.1" id="Layer_1" xmlns="http://www.w3.org/2000/svg" xmlns:xlink="http://www.w3.org/1999/xlink" x="0px" y="0px"
	 width="114px" height="25.57px" viewBox="2848.4 -2.28 114 25.57" style="enable-background:new 2848.4 -2.28 114 25.57;"
	 xml:space="preserve">
<style type="text/css">
	.st0{fill-rule:evenodd;clip-rule:evenodd;}
	.st1{fill:#1E1E1E;}
</style>
<g>
	<g>
		<path d="M2848.4,4.1h12.44v1.89h-5.19v13.04h-2.13V5.99h-5.11V4.1z"/>
		<path d="M2862.91,4.1h2.13v14.93h-2.13V4.1z"/>
		<path d="M2868.38,4.1h8.45v1.89h-6.32v4.59h6.12v1.93h-6.12v4.63h6.52v1.89h-8.65V4.1z M2873.56-0.29l2.07,3.3h-1.21l-1.91-1.89
			l-1.83,1.89h-1.17l2.01-3.3H2873.56z"/>
		<path d="M2891.21,4.1h2.01v14.93h-1.82l-9.97-11.5v11.5h-2.01V4.1h1.73l10.06,11.59V4.1z"/>
		<path d="M2904.52,11.71h4.99v6.33c-1.84,0.79-3.66,1.19-5.47,1.19c-2.47,0-4.44-0.72-5.92-2.17c-1.48-1.45-2.22-3.23-2.22-5.35
			c0-2.24,0.77-4.1,2.3-5.58c1.53-1.49,3.45-2.23,5.76-2.23c0.84,0,1.64,0.09,2.39,0.28c0.76,0.18,1.71,0.52,2.87,1.01v2.17
			c-1.78-1.05-3.55-1.57-5.3-1.57c-1.63,0-3.01,0.56-4.13,1.68c-1.12,1.12-1.68,2.49-1.68,4.11c0,1.7,0.56,3.1,1.68,4.18
			c1.12,1.08,2.56,1.62,4.31,1.62c0.85,0,1.88-0.2,3.06-0.59l0.2-0.07V13.6h-2.86V11.71z"/>
		<path d="M2931.06,4.1h2.14l-6.35,15.01h-0.5l-6.39-15.01h2.15l4.47,10.5L2931.06,4.1z"/>
		<path d="M2934.83,4.1h2.13v14.93h-2.13V4.1z"/>
		<path d="M2940.3,4.1h8.45v1.89h-6.32v4.59h6.12v1.93h-6.12v4.63h6.52v1.89h-8.65V4.1z M2945.47-0.29l2.07,3.3h-1.21l-1.91-1.89
			l-1.83,1.89h-1.17l2.01-3.3H2945.47z"/>
		<path d="M2949.96,4.1h12.44v1.89h-5.19v13.04h-2.13V5.99h-5.11V4.1z"/>
	</g>
	<g>
		<path d="M2879.12-2.28l-2.45,3.22h-1.21l1.45-3.22H2879.12z"/>
	</g>
	<g>
		<path d="M2943.83,20.75c0.36,0,0.68,0.13,0.93,0.37c0.26,0.25,0.39,0.55,0.39,0.91c0,0.35-0.13,0.65-0.38,0.89
			c-0.25,0.24-0.57,0.36-0.94,0.36c-0.37,0-0.67-0.12-0.92-0.36c-0.25-0.24-0.37-0.54-0.37-0.89c0-0.36,0.12-0.66,0.37-0.91
			C2943.16,20.88,2943.46,20.75,2943.83,20.75z"/>
	</g>
</g>
</svg>
