<?xml version="1.0" encoding="utf-8"?>
<!-- Generator: Adobe Illustrator 18.0.0, SVG Export Plug-In . SVG Version: 6.00 Build 0)  -->
<!DOCTYPE svg PUBLIC "-//W3C//DTD SVG 1.1//EN" "http://www.w3.org/Graphics/SVG/1.1/DTD/svg11.dtd">
<svg version="1.1" id="Layer_1" xmlns="http://www.w3.org/2000/svg" xmlns:xlink="http://www.w3.org/1999/xlink" x="0px" y="0px"
	 width="178.09px" height="15.5px" viewBox="189.97 3.79 178.09 15.5" style="enable-background:new 189.97 3.79 178.09 15.5;"
	 xml:space="preserve">
<style type="text/css">
	.st0{fill-rule:evenodd;clip-rule:evenodd;}
	.st1{fill:#1E1E1E;}
</style>
<path d="M204.73,19.09h-2.21l-2.02-4.46h-6.42l-1.9,4.46h-2.21l6.48-15.19h1.52L204.73,19.09z M194.93,12.69h4.68l-2.43-5.47
	L194.93,12.69z"/>
<polygon points="215.56,5.95 205.95,19.09 219.57,19.09 219.57,17.14 209.96,17.14 219.57,3.99 206.55,3.99 206.55,5.95 "/>
<path d="M221.49,5.24c1.87-1.25,3.16-1.43,5.77-1.43c4.82,0,6.79,4.36,6.79,7.83c0,3.48-2.72,7.26-6.62,7.26
	c-2.97,0.01-6.11-2.2-6.11-7.92h11.04c-0.48-3.32-2.85-5.35-5.8-5.35c-1.85,0-3.31,0.7-5.1,1.87L221.49,5.24z M223.54,13.01
	c0.09,2.34,1.65,3.82,3.83,3.82c2.33,0,4.13-1.38,4.55-3.82H223.54z"/>
<path d="M241.03,3.99c3.05,0,4.96,1.61,4.96,4.22c0,1.75-0.92,3.06-2.52,3.7c1.37,0.91,2.21,2.3,3.36,4.19
	c0.64,1.03,1.01,1.54,2.05,2.99h-2.58l-1.99-3.1c-2-3.09-2.91-3.46-4.01-3.46h-0.9v6.56h-2.18V3.99 M239.4,10.59h1.38
	c2.33,0,2.99-1.2,2.97-2.46c-0.01-1.42-0.87-2.28-2.97-2.28h-1.38V10.59z"/>
<path d="M250.87,3.99h4.38c3.26,0,4.65,1.95,4.65,3.85c0,1.58-0.73,2.6-2.3,3.23v0.05c2.25,0.42,3.64,1.91,3.64,3.94
	c0,1.86-1.4,4.03-5.18,4.03h-5.19V3.99z M253.05,10.46h1.43c2.16,0,3.2-0.8,3.2-2.42c0-1.13-0.65-2.09-2.64-2.09h-1.99V10.46z
	 M253.05,17.14h2.72c2.55,0,3.23-1.26,3.23-2.39c0-1.38-1.06-2.35-3.34-2.35h-2.61V17.14z"/>
<path d="M277.21,19.09H275l-2.02-4.46h-6.42l-1.9,4.46h-2.21l6.48-15.19h1.53L277.21,19.09z M267.41,12.69h4.68l-2.42-5.47
	L267.41,12.69z"/>
<polygon points="285.87,3.99 288.48,3.99 282.88,11.12 282.88,19.09 280.71,19.09 280.71,11.09 275.11,3.99 277.72,3.99 
	281.78,9.19 "/>
<path d="M302.25,7.35c-1.85-1.08-3.45-1.57-5.19-1.57c-3.45,0-6.02,2.46-6.02,5.79c0,3.39,2.47,5.73,6.09,5.73
	c1.71,0,3.58-0.6,5.27-1.71v2.37c-1.48,0.78-3.09,1.33-5.46,1.33c-5.67,0-8.14-4.36-8.14-7.53c0-4.61,3.47-7.97,8.27-7.97
	c1.55,0,3.12,0.38,5.18,1.24V7.35z"/>
<path d="M319.06,19.09h-2.22l-2.01-4.46h-6.42l-1.89,4.46h-2.23l6.48-15.19h1.54L319.06,19.09z M309.25,12.69h4.7l-2.44-5.47
	L309.25,12.69z"/>
<polygon points="335.01,19.09 333.16,19.09 323.07,7.46 323.07,19.09 321.03,19.09 321.03,3.99 322.76,3.99 332.97,15.68 
	332.97,3.99 335.01,3.99 "/>
<path d="M351.26,7.35c-1.85-1.08-3.45-1.57-5.2-1.57c-3.45,0-6.02,2.46-6.02,5.79c0,3.39,2.47,5.73,6.09,5.73
	c1.71,0,3.58-0.6,5.27-1.71v2.37c-1.48,0.78-3.1,1.33-5.46,1.33c-5.67,0-8.15-4.36-8.15-7.53c0-4.61,3.47-7.97,8.27-7.97
	c1.55,0,3.12,0.38,5.18,1.24V7.35z"/>
<path d="M368.06,19.14h-2.22l-2-4.46h-6.42l-1.9,4.46h-2.22l6.48-15.19h1.54L368.06,19.14z M358.25,12.74h4.69l-2.44-5.47
	L358.25,12.74z"/>
</svg>
