<?xml version="1.0" encoding="utf-8"?>
<!-- Generator: Adobe Illustrator 18.0.0, SVG Export Plug-In . SVG Version: 6.00 Build 0)  -->
<!DOCTYPE svg PUBLIC "-//W3C//DTD SVG 1.1//EN" "http://www.w3.org/Graphics/SVG/1.1/DTD/svg11.dtd">
<svg version="1.1" id="Layer_1" xmlns="http://www.w3.org/2000/svg" xmlns:xlink="http://www.w3.org/1999/xlink" x="0px" y="0px"
	 width="29.41px" height="19px" viewBox="2687.94 0.29 29.41 19" style="enable-background:new 2687.94 0.29 29.41 19;"
	 xml:space="preserve">
<style type="text/css">
	.st0{fill-rule:evenodd;clip-rule:evenodd;}
	.st1{fill:#1E1E1E;}
</style>
<g>
	<path d="M2691.13,10.57c0.21-0.63,0.84-1.12,1.52-1.12c0.91,0,1.82,0.75,2.17,2.03c-0.28,0.12-0.77,0.21-1.42,0.21
		C2692.3,11.69,2691.48,11.23,2691.13,10.57 M2687.94,17.73l0.47,0.68l4.08,0.89c2.28-1.59,3.73-4.01,3.73-6.88
		c0-3.01-1.63-5.43-3.29-5.43c-1.47,0-2.91,2.03-2.91,3.78c0,1.77,1.47,3.31,3.17,3.31c0.77,0,1.28-0.21,1.61-0.44
		C2694.12,15.35,2691.72,16.8,2687.94,17.73"/>
	<path d="M2708.75,10.29c1.51,1.14,2.54,2.42,2.77,3.33c-0.58,1.54-3.38,3.1-6.88,4.1l0.47,0.68l4.08,0.89
		c2.28-1.59,3.54-3.8,3.54-6.06c0-2.31-1.07-4.29-2.63-5.76L2708.75,10.29z"/>
	<path d="M2717.02,0.32L2717,0.29l-2.21,1.75c0,0.84,0.19,3.33,0.37,5.27c0.16,1.77,0.26,4.27,0.26,7.65h0.61
		c0.51-0.56,0.93-1.33,1.09-1.84c0.12-0.4,0.23-1,0.23-2.24c0-1.28-0.07-2.5-0.16-4.24c-0.07-1.84-0.16-3.82-0.16-5.64V0.32z"/>
	<path d="M2701.3,4.58c3.8,2.4,4.84,3.78,4.84,5.7c0,0.9-0.37,1.94-0.9,2.65c-0.62,0.83-2.08,1.61-4.08,1.61
		c-1.59,0-2.7-0.9-2.7-2.4c0-0.76,0.28-1.34,0.67-1.61l0.58-0.37c-0.07,0.16-0.12,0.46-0.12,0.62c-0.02,0.62,0.37,0.83,1.59,0.83
		c1.66,0,3.14-0.28,3.94-0.71c-0.25-0.76-1.41-1.64-4.98-3.3L2701.3,4.58z"/>
</g>
</svg>
