<?xml version="1.0" encoding="utf-8"?>
<!-- Generator: Adobe Illustrator 18.0.0, SVG Export Plug-In . SVG Version: 6.00 Build 0)  -->
<!DOCTYPE svg PUBLIC "-//W3C//DTD SVG 1.1//EN" "http://www.w3.org/Graphics/SVG/1.1/DTD/svg11.dtd">
<svg version="1.1" id="Layer_1" xmlns="http://www.w3.org/2000/svg" xmlns:xlink="http://www.w3.org/1999/xlink" x="0px" y="0px"
	 width="89.88px" height="30px" viewBox="2377.75 -4.21 89.88 30" style="enable-background:new 2377.75 -4.21 89.88 30;"
	 xml:space="preserve">
<style type="text/css">
	.st0{fill-rule:evenodd;clip-rule:evenodd;}
</style>
<path d="M2394.25,6.06h-5.18v13.03h-2.15V6.06h-5.17V4.13h12.5V6.06z"/>
<path d="M2408.84,13.21c0,3.66-2.2,6.07-6.65,6.07c-3.15,0-6.23-1.78-6.23-5.86v-9.3h2.15v8.84c0,1.69,0.22,2.39,0.9,3.07
	c0.86,0.86,1.93,1.27,3.22,1.27c1.64,0,2.83-0.53,3.51-1.21c0.77-0.77,0.94-1.87,0.94-3.27V4.13h2.15V13.21z"/>
<path d="M2415.61,4.13c3.02,0,4.91,1.6,4.91,4.19c0,1.73-0.9,3.03-2.5,3.66c1.36,0.9,2.19,2.28,3.33,4.14
	c0.63,1.03,1.01,1.54,2.04,2.96h-2.57l-1.97-3.07c-1.97-3.07-2.87-3.42-3.97-3.42h-0.9v6.49h-2.15V4.13H2415.61z M2413.99,10.66
	h1.38c2.3,0,2.96-1.18,2.94-2.43c-0.02-1.4-0.86-2.26-2.94-2.26h-1.38V10.66z"/>
<path d="M2437.76,19.09h-2.96l-7.61-7.39v7.39h-2.15V4.13h2.15v6.84l6.29-6.84h2.67l-6.51,7.08L2437.76,19.09z"/>
<path d="M2452.31,17.97c-1.47,0.77-2.89,1.32-5.85,1.32l-0.09,0.31c0.72,0.2,1.18,0.7,1.18,1.38c0,1.64-1.47,2.24-3.4,1.95v-1.2
	c1.03,0.15,1.84-0.07,1.84-0.57c0-0.37-0.44-0.64-1.27-0.55l0.53-1.47c-4.45-0.75-6.43-4.5-6.43-7.3c0-4.56,3.44-7.89,8.2-7.89
	c1.54,0,3.09,0.37,5.13,1.23v2.3c-1.84-1.07-3.42-1.56-5.15-1.56c-3.42,0-5.96,2.44-5.96,5.73c0,3.35,2.46,5.68,6.05,5.68
	c1.69,0,3.53-0.59,5.22-1.69V17.97z"/>
<path d="M2463.43,6.06h-6.34v4.52h6.12v1.93h-6.12v4.65h6.53v1.93h-8.68V4.13h8.48V6.06z"/>
<path d="M2401.4,1.5c0,0.57-0.44,1.03-1.01,1.03s-1.03-0.46-1.03-1.03c0-0.57,0.46-1.01,1.03-1.01S2401.4,0.93,2401.4,1.5z
	 M2405.48,1.5c0,0.57-0.44,1.03-1.01,1.03c-0.57,0-1.03-0.46-1.03-1.03c0-0.57,0.46-1.01,1.03-1.01
	C2405.04,0.49,2405.48,0.93,2405.48,1.5z"/>
</svg>
