<?xml version="1.0" encoding="utf-8"?>
<!-- Generator: Adobe Illustrator 18.0.0, SVG Export Plug-In . SVG Version: 6.00 Build 0)  -->
<!DOCTYPE svg PUBLIC "-//W3C//DTD SVG 1.1//EN" "http://www.w3.org/Graphics/SVG/1.1/DTD/svg11.dtd">
<svg version="1.1" id="Layer_1" xmlns="http://www.w3.org/2000/svg" xmlns:xlink="http://www.w3.org/1999/xlink" x="0px" y="0px"
	 width="51.14px" height="17.99px" viewBox="396.51 2 51.14 17.99" style="enable-background:new 396.51 2 51.14 17.99;"
	 xml:space="preserve">
<style type="text/css">
	.st0{fill-rule:evenodd;clip-rule:evenodd;}
	.st1{fill:#1E1E1E;}
</style>
<g>
	<path d="M409.5,6h-2.65v13.26l-1.98-1.3c-1.13-2.45-3.25-3.84-6.34-4.17l-1.29-2.2l7.34-4.63V6h-7.12l-0.93-1.48h12.05L409.5,6z
		 M404.57,9.53l-3.86,2.51c1.53,0.74,2.81,1.82,3.86,3.24V9.53z"/>
	<path d="M415.88,6h-2.65v13.26l-2.28-1.49V9.02c0-0.58-0.22-1.23-0.65-1.95C409.86,6.36,409.4,6,408.92,6h-0.1l-0.93-1.48h0.74
		c0.57,0,1,0.1,1.31,0.29c0.3,0.19,0.64,0.59,1.02,1.19V2c0.53,0,0.93,0.26,1.2,0.79c0.26,0.53,0.46,0.9,0.58,1.12
		c0.13,0.22,0.25,0.43,0.38,0.61h1.84L415.88,6z"/>
	<path d="M423.01,19.99c-2.28-2.58-4.57-4.59-6.87-6.03l1.01-2.02c1.06,0.73,2.11,1.67,3.13,2.82c1.03,1.15,1.94,2.34,2.73,3.57
		V19.99z M419.53,10.63c-0.91,0-1.67-0.28-2.28-0.85c-0.61-0.57-0.92-1.29-0.92-2.17c0-0.88,0.3-1.62,0.91-2.23
		c0.6-0.6,1.37-0.91,2.3-0.91c0.91,0,1.66,0.28,2.28,0.83c0.61,0.56,0.92,1.27,0.92,2.16c0,0.91-0.3,1.66-0.9,2.27
		C421.24,10.33,420.47,10.63,419.53,10.63z M419.91,5.94c-0.49,0-0.94,0.21-1.35,0.62c-0.41,0.41-0.61,0.86-0.61,1.35
		c0,0.35,0.11,0.65,0.34,0.89c0.22,0.24,0.52,0.36,0.88,0.36c0.49,0,0.94-0.21,1.35-0.62c0.41-0.41,0.61-0.88,0.61-1.38
		c0-0.35-0.11-0.64-0.33-0.87C420.57,6.06,420.28,5.94,419.91,5.94z"/>
	<path d="M441.28,6h-2.65v13.26l-2.28-1.49v-5.11c0-0.93-0.19-1.65-0.58-2.16c-0.39-0.51-0.76-0.76-1.13-0.76
		c-0.29,0-0.52,0.15-0.68,0.45c-0.16,0.3-0.24,0.72-0.24,1.27c0,0.18,0.02,0.47,0.07,0.85l-0.93-0.27c-0.5-0.86-1.04-1.5-1.61-1.92
		c-0.57-0.43-1.19-0.64-1.86-0.64c-0.66,0-1.18,0.21-1.58,0.62c-0.4,0.41-0.6,0.91-0.6,1.49c0,0.41,0.08,0.77,0.23,1.08
		c0.16,0.31,0.42,0.57,0.79,0.77c-0.02-0.61,0.13-1.11,0.45-1.48c0.32-0.38,0.74-0.56,1.29-0.56c0.52,0,0.95,0.19,1.29,0.56
		c0.34,0.37,0.51,0.8,0.51,1.27c0,0.55-0.2,1.03-0.59,1.42c-0.39,0.4-0.94,0.6-1.64,0.6c-0.98,0-1.87-0.42-2.65-1.28
		c-0.78-0.85-1.17-1.92-1.17-3.22c0-1.01,0.28-1.89,0.84-2.63c0.56-0.74,1.31-1.11,2.25-1.11c1.23,0,2.4,0.8,3.48,2.4
		c0.09-0.71,0.28-1.24,0.54-1.6c0.27-0.36,0.61-0.54,1.04-0.54c0.79,0,1.61,0.73,2.47,2.2V6h-10.6l-0.93-1.48h15.53L441.28,6z"/>
	<path d="M447.66,6h-2.65v13.26l-2.28-1.49V9.02c0-0.58-0.22-1.23-0.65-1.95c-0.44-0.72-0.9-1.08-1.38-1.08h-0.1l-0.93-1.48h0.74
		c0.57,0,1,0.1,1.31,0.29c0.3,0.19,0.64,0.59,1.02,1.19V2c0.54,0,0.93,0.26,1.2,0.79c0.26,0.53,0.46,0.9,0.58,1.12
		c0.12,0.22,0.25,0.43,0.38,0.61h1.84L447.66,6z"/>
</g>
</svg>
