<?xml version="1.0" encoding="utf-8"?>
<!-- Generator: Adobe Illustrator 18.0.0, SVG Export Plug-In . SVG Version: 6.00 Build 0)  -->
<!DOCTYPE svg PUBLIC "-//W3C//DTD SVG 1.1//EN" "http://www.w3.org/Graphics/SVG/1.1/DTD/svg11.dtd">
<svg version="1.1" id="Layer_1" xmlns="http://www.w3.org/2000/svg" xmlns:xlink="http://www.w3.org/1999/xlink" x="0px" y="0px"
	 width="100.64px" height="15.47px" viewBox="3840.94 3.72 100.64 15.47" style="enable-background:new 3840.94 3.72 100.64 15.47;"
	 xml:space="preserve">
<style type="text/css">
	.st0{fill-rule:evenodd;clip-rule:evenodd;}
	.st1{fill:#1E1E1E;}
</style>
<g>
	<g>
		<path class="st1" d="M3898.19,15.52c0,1.13-0.09,2.83-1.61,3.47c-0.33,0.14-0.44,0.14-1.45,0.19l-0.1-0.91
			c0.12,0.03,0.21,0.07,0.44,0.07c1.76,0,1.78-1.78,1.78-2.93V3.8h0.94V15.52z"/>
		<path class="st1" d="M3910.81,15.71h-0.96l-1.89-4.12h-5.81l-1.89,4.12h-0.96l5.46-11.99h0.54L3910.81,15.71z M3905.05,5.22
			l-2.57,5.59h5.12L3905.05,5.22z"/>
		<path class="st1" d="M3914.44,3.8c1.68,0,2.41,0.03,3.25,0.51c0.91,0.51,1.48,1.41,1.48,2.62c0,1.24-0.65,2.29-1.54,2.72
			c-1.01,0.47-1.75,0.49-3.07,0.49h-1.62v5.57h-0.91V3.8H3914.44z M3912.94,4.56v4.82h1.68c1.17,0,1.96-0.07,2.67-0.52
			c0.54-0.35,0.86-1.15,0.86-1.89c0-0.73-0.31-1.47-0.87-1.87c-0.51-0.35-1.12-0.54-2.79-0.54H3912.94z"/>
		<path class="st1" d="M3929.63,15.71h-0.96l-1.89-4.12h-5.81l-1.89,4.12h-0.96l5.46-11.99h0.54L3929.63,15.71z M3923.87,5.22
			l-2.57,5.59h5.12L3923.87,5.22z"/>
		<path class="st1" d="M3941.58,15.71h-0.77l-9.04-10.48v10.48h-0.93V3.8h0.86l8.96,10.41V3.8h0.93V15.71z"/>
	</g>
	<polyline class="st1" points="3850.41,3.9 3852.03,3.9 3852.03,15.88 3850.56,15.88 3842.55,6.66 3842.55,15.88 3840.94,15.88 
		3840.94,3.9 3842.33,3.9 3850.41,13.21 3850.41,3.9 	"/>
	<polyline class="st1" points="3855.12,3.9 3861.92,3.9 3861.92,5.43 3856.84,5.43 3856.84,9.08 3861.74,9.08 3861.74,10.62 
		3856.84,10.62 3856.84,14.34 3862.08,14.34 3862.08,15.86 3855.12,15.86 3855.12,3.9 	"/>
	<polyline class="st1" points="3880.22,3.9 3881.93,3.9 3877.09,15.93 3876.71,15.93 3872.79,6.19 3868.83,15.93 3868.47,15.93 
		3863.64,3.9 3865.37,3.9 3868.67,12.16 3871.99,3.9 3873.61,3.9 3876.95,12.16 3880.22,3.9 	"/>
	<path class="st1" d="M3886.57,10.86l-1.3-0.79c-0.82-0.5-1.4-0.99-1.74-1.47c-0.35-0.48-0.52-1.04-0.52-1.67
		c0-0.94,0.33-1.71,0.98-2.3c0.65-0.59,1.5-0.88,2.55-0.88c1,0,1.92,0.28,2.75,0.84v1.95c-0.86-0.83-1.79-1.25-2.79-1.25
		c-0.56,0-1.02,0.13-1.38,0.39c-0.36,0.26-0.54,0.59-0.54,0.99c0,0.36,0.13,0.69,0.4,1.01c0.27,0.31,0.69,0.64,1.28,0.99l1.31,0.77
		c1.46,0.87,2.19,1.98,2.19,3.33c0,0.96-0.32,1.74-0.96,2.34c-0.64,0.6-1.48,0.9-2.51,0.9c-1.18,0-2.26-0.36-3.23-1.09v-2.18
		c0.93,1.17,2,1.76,3.22,1.76c0.54,0,0.99-0.15,1.34-0.45c0.36-0.3,0.54-0.67,0.54-1.12C3888.15,12.21,3887.63,11.52,3886.57,10.86"
		/>
</g>
</svg>
