<?xml version="1.0" encoding="utf-8"?>
<!-- Generator: Adobe Illustrator 18.0.0, SVG Export Plug-In . SVG Version: 6.00 Build 0)  -->
<!DOCTYPE svg PUBLIC "-//W3C//DTD SVG 1.1//EN" "http://www.w3.org/Graphics/SVG/1.1/DTD/svg11.dtd">
<svg version="1.1" id="Layer_1" xmlns="http://www.w3.org/2000/svg" xmlns:xlink="http://www.w3.org/1999/xlink" x="0px" y="0px"
	 width="122.77px" height="30px" viewBox="1117.18 -4.21 122.77 30" style="enable-background:new 1117.18 -4.21 122.77 30;"
	 xml:space="preserve">
<style type="text/css">
	.st0{fill-rule:evenodd;clip-rule:evenodd;}
</style>
<g id="Indonesia_1_">
	<path d="M1123.35,19.09h-2.17V3.99h2.17V19.09z"/>
	<path d="M1140.67,19.09h-1.86l-10.1-11.62v11.62h-2.04V3.99h1.73l10.23,11.69V3.99h2.04V19.09z"/>
	<path d="M1144.01,3.99h5.87c5.58,0,8.04,3.99,8.04,7.55c0,3.88-3.03,7.55-8.02,7.55h-5.89V3.99z M1146.18,17.14h3.45
		c4.92,0,6.04-3.74,6.04-5.6c0-3.03-1.93-5.6-6.16-5.6h-3.34V17.14z"/>
	<path d="M1168.03,3.79c4.98,0,8.13,3.54,8.13,7.75c0,4.07-3.05,7.75-8.17,7.75c-4.94,0-8.06-3.65-8.06-7.75
		C1159.93,7.36,1163.14,3.79,1168.03,3.79z M1168.03,17.3c3.39,0,5.89-2.46,5.89-5.76c0-3.32-2.5-5.76-5.89-5.76
		c-3.37,0-5.87,2.44-5.87,5.76C1162.16,14.84,1164.66,17.3,1168.03,17.3z"/>
	<path d="M1192.78,19.09h-1.86l-10.1-11.62v11.62h-2.04V3.99h1.73l10.23,11.69V3.99h2.04V19.09z"/>
	<path d="M1204.67,5.94h-6.4v4.56h6.18v1.95h-6.18v4.69h6.6v1.95h-8.77V3.99h8.57V5.94z"/>
	<path d="M1214.34,7.31c-1.28-1.22-2.52-1.57-3.54-1.57c-1.39,0-2.39,0.73-2.39,1.79c0,2.9,6.53,2.86,6.53,7.66
		c0,2.37-1.79,4.1-4.23,4.1c-1.64,0-2.97-0.44-4.23-1.4v-2.75c1.11,1.42,2.5,2.19,3.98,2.19c1.68,0,2.46-1.06,2.46-1.91
		c0-3.12-6.53-3.48-6.53-7.62c0-2.46,1.81-4.03,4.58-4.03c1.15,0,2.3,0.35,3.37,1.06V7.31z"/>
	<path d="M1219.5,19.09h-2.17V3.99h2.17V19.09z"/>
	<path d="M1235.95,19.09h-2.21l-2.01-4.45h-6.42l-1.91,4.45h-2.21l6.49-15.19h1.53L1235.95,19.09z M1226.14,12.69h4.69l-2.44-5.47
		L1226.14,12.69z"/>
</g>
</svg>
