<?xml version="1.0" encoding="utf-8"?>
<!-- Generator: Adobe Illustrator 18.0.0, SVG Export Plug-In . SVG Version: 6.00 Build 0)  -->
<!DOCTYPE svg PUBLIC "-//W3C//DTD SVG 1.1//EN" "http://www.w3.org/Graphics/SVG/1.1/DTD/svg11.dtd">
<svg version="1.1" id="Layer_1" xmlns="http://www.w3.org/2000/svg" xmlns:xlink="http://www.w3.org/1999/xlink" x="0px" y="0px"
	 width="44.49px" height="30px" viewBox="1054.48 -4.21 44.49 30" style="enable-background:new 1054.48 -4.21 44.49 30;"
	 xml:space="preserve">
<style type="text/css">
	.st0{fill-rule:evenodd;clip-rule:evenodd;}
</style>
<g>
	<path d="M1069.18,5.86V4.92c-0.03-0.23-1.81-3.17-4.79-3.13c-2.82,0.05-2.72,2.56-2.68,3.15c0.05,0.57,0.33,1.11,0.49,1.37h-3.72
		l1.74,1.71h1.5v7.96l1.95,1.97V8.02h2.7l-1.74-1.71h-1.05c-0.07-0.19-0.17-0.57-0.17-0.92c0.05-1.48,0.89-1.91,1.78-1.93
		C1067.75,3.36,1069.18,5.7,1069.18,5.86"/>
	<path d="M1075.51,8.02l-1.74-1.75h-10.98l1.74,1.75h4.83v1.7h-2.21c-1.1,0-1.74,0.91-1.77,1.9c-0.02,0.87,0.45,1.59,1.31,1.88
		c-0.19,0.17-1.1,0.61-1.12,2.04c-0.05,2.41,4.09,4.4,4.56,4.73c0.32,0.21,0.81,0.52,0.88,0.54l0.44-0.8
		c-0.04,0-0.77-0.37-1.19-0.68c-0.51-0.4-2.82-1.64-2.85-3.23c-0.02-1.54,1.85-2.18,2.87-2.13c0.95,0.05,1.2,0.45,1.22,1.03
		c0.03,0.73-1.17,1.57-1.24,1.57l1.32,1.38c0.19-0.12,1.35-1.24,1.33-2.7c-0.05-1.69-1.67-2.78-3.55-2.74
		c-0.54,0-0.93-0.02-1.88,0.54c-0.41-0.14-0.6-0.52-0.57-0.92c0.02-0.47,0.5-0.67,1.1-0.67h3.3V8.02H1075.51"/>
	<path d="M1080.29,13.22v-1.9h-4.69c-0.29-0.07-0.55-0.02-0.81,0.12c-0.3,0.17-0.49,0.48-0.49,0.85l1.54,2.47
		c0.3,0.37,0.82,0.46,1.27,0.25c0.19-0.09,0.33-0.23,0.42-0.4v-1.4H1080.29 M1081.06,8.02l-1.74-1.75h-7.63l1.73,1.75H1081.06z"/>
	<path d="M1090.05,8.02l-1.74-1.75h-11.29l1.74,1.75h6.23v1.7h-2.91c-1.35,0-2.43,1.42-2.38,2.59c0.14,3.49,4.51,5.09,5.66,4.45
		l2,3.19l0.87-0.58l-1.97-3.16c0.3-0.02,0.53-0.17,0.7-0.39c0.33-0.4,0.35-0.99,0.04-1.41l-1.78-1.24
		c-0.47-0.07-0.98,0.14-1.05,0.61c-0.05,0.37-0.08,0.37-0.03,0.59l0.54,0.96c-1.06,0.64-3.22-0.4-3.24-2.36
		c0-0.79,0.47-1.49,1.36-1.49h4.13V8.02H1090.05"/>
	<path d="M1094.55,8.02l-1.74-1.71h-1.66c0.16-0.29-0.19-4.52-2.92-4.52c-2.26,0-2.51,1.64-2.51,2.14c0,0.45,0.11,0.94,0.21,1.16
		l0.77,0.21c0.09-0.59,0.14-1.53,1.6-1.58c2.04-0.07,2.08,2.42,2.06,2.54h-3.75l1.74,1.76h1.52v7.96l1.95,1.97V8.02H1094.55"/>
</g>
</svg>
