<?xml version="1.0" encoding="utf-8"?>
<!-- Generator: Adobe Illustrator 18.0.0, SVG Export Plug-In . SVG Version: 6.00 Build 0)  -->
<!DOCTYPE svg PUBLIC "-//W3C//DTD SVG 1.1//EN" "http://www.w3.org/Graphics/SVG/1.1/DTD/svg11.dtd">
<svg version="1.1" id="Layer_1" xmlns="http://www.w3.org/2000/svg" xmlns:xlink="http://www.w3.org/1999/xlink" x="0px" y="0px"
	 width="176px" height="30px" viewBox="3167.84 -4.21 176 30" style="enable-background:new 3167.84 -4.21 176 30;"
	 xml:space="preserve">
<style type="text/css">
	.st0{fill-rule:evenodd;clip-rule:evenodd;}
</style>
<g>
	<path d="M3183.83,3.99h2.06v15.12h-1.86l-10.11-11.64v11.64h-2.03V3.99h1.75l10.19,11.74V3.99z"/>
	<path d="M3193.58,3.9h1.52l6.78,15.21h-2.22l-2.02-4.48h-6.45l-1.89,4.48h-2.22L3193.58,3.9z M3196.76,12.7l-2.44-5.48l-2.26,5.48
		H3196.76z"/>
	<path d="M3203.14,3.99h2.16v15.12h-2.16V3.99z"/>
	<path d="M3208.34,19.08V3.99h5.1c2.06,0,3.68,0.31,4.88,0.93c1.2,0.62,2.15,1.52,2.86,2.72c0.71,1.2,1.06,2.5,1.06,3.92
		c0,1.01-0.19,1.98-0.58,2.9c-0.39,0.92-0.95,1.74-1.67,2.43c-0.74,0.72-1.59,1.27-2.56,1.63c-0.57,0.22-1.09,0.37-1.57,0.45
		c-0.48,0.08-1.39,0.11-2.73,0.11H3208.34z M3213.21,5.91h-2.71v11.24h2.77c1.08,0,1.92-0.07,2.52-0.22c0.6-0.15,1.1-0.34,1.5-0.56
		c0.4-0.23,0.77-0.51,1.1-0.84c1.07-1.08,1.6-2.45,1.6-4.1c0-1.62-0.55-2.95-1.64-3.97c-0.4-0.38-0.87-0.7-1.39-0.94
		c-0.52-0.24-1.02-0.41-1.49-0.49C3215,5.95,3214.25,5.91,3213.21,5.91z"/>
	<path d="M3235.11,3.99h2.16v15.12h-2.16v-6.58h-8.5v6.58h-2.16V3.99h2.16v6.54h8.5V3.99z"/>
	<path d="M3240.29,3.99h8.57v1.93h-6.41v4.61h6.19v1.94h-6.19v4.7h6.61v1.93h-8.78V3.99z"/>
	<path d="M3256.34,3.9h1.52l6.78,15.21h-2.22l-2.02-4.48h-6.45l-1.89,4.48h-2.22L3256.34,3.9z M3259.52,12.7l-2.44-5.48l-2.26,5.48
		H3259.52z"/>
	<path d="M3277.95,15.6v2.38c-1.59,0.87-3.42,1.3-5.5,1.3c-1.69,0-3.12-0.34-4.3-1.02c-1.18-0.68-2.11-1.61-2.79-2.8
		c-0.69-1.19-1.03-2.48-1.03-3.86c0-2.2,0.78-4.05,2.35-5.55c1.57-1.5,3.5-2.25,5.81-2.25c1.59,0,3.35,0.42,5.29,1.24v2.33
		c-1.77-1.01-3.5-1.52-5.18-1.52c-1.73,0-3.17,0.55-4.31,1.64c-1.14,1.09-1.72,2.46-1.72,4.11c0,1.66,0.56,3.02,1.69,4.09
		c1.13,1.07,2.56,1.6,4.32,1.6C3274.41,17.29,3276.2,16.72,3277.95,15.6z"/>
	<path d="M3290.94,3.99h2.16v15.12h-2.16v-6.58h-8.5v6.58h-2.16V3.99h2.16v6.54h8.5V3.99z"/>
	<path d="M3296.14,19.08V3.99h5.1c2.06,0,3.68,0.31,4.88,0.93c1.2,0.62,2.15,1.52,2.86,2.72c0.71,1.2,1.06,2.5,1.06,3.92
		c0,1.01-0.19,1.98-0.58,2.9c-0.39,0.92-0.95,1.74-1.67,2.43c-0.74,0.72-1.59,1.27-2.56,1.63c-0.57,0.22-1.09,0.37-1.57,0.45
		c-0.48,0.08-1.39,0.11-2.73,0.11H3296.14z M3301.01,5.91h-2.71v11.24h2.77c1.08,0,1.92-0.07,2.52-0.22c0.6-0.15,1.1-0.34,1.5-0.56
		c0.4-0.23,0.77-0.51,1.1-0.84c1.07-1.08,1.6-2.45,1.6-4.1c0-1.62-0.55-2.95-1.64-3.97c-0.4-0.38-0.87-0.7-1.39-0.94
		c-0.52-0.24-1.02-0.41-1.49-0.49C3302.8,5.95,3302.05,5.91,3301.01,5.91z"/>
	<path d="M3316.3,3.9h1.52l6.78,15.21h-2.22l-2.01-4.48h-6.45l-1.89,4.48h-2.22L3316.3,3.9z M3319.48,12.7l-2.44-5.48l-2.26,5.48
		H3319.48z"/>
	<path d="M3337.83,3.99h2.06v15.12h-1.86l-10.11-11.64v11.64h-2.03V3.99h1.75l10.19,11.74V3.99z"/>
</g>
</svg>
