<?xml version="1.0" encoding="utf-8"?>
<!-- Generator: Adobe Illustrator 18.0.0, SVG Export Plug-In . SVG Version: 6.00 Build 0)  -->
<!DOCTYPE svg PUBLIC "-//W3C//DTD SVG 1.1//EN" "http://www.w3.org/Graphics/SVG/1.1/DTD/svg11.dtd">
<svg version="1.1" id="Layer_1" xmlns="http://www.w3.org/2000/svg" xmlns:xlink="http://www.w3.org/1999/xlink" x="0px" y="0px"
	 width="113.08px" height="30px" viewBox="566.53 -4.21 113.08 30" style="enable-background:new 566.53 -4.21 113.08 30;"
	 xml:space="preserve">
<style type="text/css">
	.st0{fill-rule:evenodd;clip-rule:evenodd;}
</style>
<g>
	<path d="M579.46,18.82c0,0.79-0.25,1.46-0.76,2.02c-0.58,0.63-1.33,0.94-2.25,0.94h-2.99c-0.49,0-0.9-0.07-1.2-0.22
		c-0.25-0.12-0.54-0.33-0.86-0.64c-0.58-0.59-0.87-1.31-0.87-2.17V6.84c0-0.93,0.24-1.65,0.72-2.17c0.56-0.59,1.29-0.88,2.18-0.88
		h3.32c0.94,0,1.71,0.41,2.31,1.23c0.27,0.39,0.41,0.77,0.41,1.13v0.21c0,0.36-0.17,0.54-0.52,0.54c-0.36,0-0.54-0.18-0.54-0.54
		V6.15c0-0.16-0.07-0.33-0.2-0.5c-0.4-0.53-0.88-0.8-1.45-0.8h-3.32c-0.59,0-1.06,0.19-1.39,0.56c-0.3,0.32-0.45,0.8-0.45,1.43
		v11.92c0,0.59,0.18,1.07,0.54,1.43c0.36,0.36,0.81,0.54,1.34,0.54h2.99c0.62,0,1.1-0.2,1.45-0.61c0.33-0.37,0.5-0.8,0.5-1.3v-1.18
		c0-0.36,0.18-0.54,0.54-0.54c0.35,0,0.52,0.18,0.52,0.54V18.82z M579.91,13.03c0,0.95-0.33,1.78-0.99,2.47
		c-0.66,0.69-1.47,1.04-2.43,1.04c-1.07,0-1.95-0.42-2.64-1.28c-0.1-0.08-0.16-0.18-0.2-0.3c-0.38-0.53-0.57-1.18-0.57-1.93
		c0-0.59,0.15-1.17,0.46-1.77c0.31-0.59,0.73-1.07,1.26-1.45c0.1-0.06,0.2-0.09,0.3-0.09c0.15,0,0.27,0.06,0.37,0.17
		c0.1,0.11,0.15,0.24,0.15,0.39c0,0.17-0.07,0.32-0.22,0.43c-0.4,0.26-0.71,0.6-0.93,1.04c-0.22,0.44-0.34,0.86-0.34,1.28
		c0,0.26,0.04,0.51,0.12,0.76c0.58-0.67,1.33-1.01,2.25-1.01c0.91,0,1.66,0.34,2.23,1.02c0.09-0.26,0.13-0.52,0.13-0.78
		c0-1.02-0.43-1.79-1.28-2.32c-0.16-0.11-0.24-0.25-0.24-0.43c0-0.14,0.05-0.26,0.15-0.37c0.1-0.11,0.22-0.16,0.37-0.16
		c0.09,0,0.18,0.02,0.28,0.07c0.56,0.33,0.99,0.79,1.31,1.37C579.75,11.77,579.91,12.39,579.91,13.03z M576.5,15.49
		c0.63,0,1.18-0.24,1.65-0.73c-0.42-0.62-0.97-0.93-1.65-0.93c-0.68,0-1.24,0.31-1.68,0.93C575.28,15.25,575.84,15.49,576.5,15.49
		L576.5,15.49z"/>
	<path d="M586.57,12.3c0.74,0.47,1.17,1.11,1.26,1.93c0.09,0.68-0.14,1.26-0.68,1.73c-0.24,0.2-0.64,0.35-1.21,0.46v4.83
		c0,0.36-0.17,0.54-0.51,0.54c-0.36,0-0.54-0.18-0.54-0.54v-4.7c-0.54,0.02-1.09-0.04-1.63-0.17c-0.69-0.15-1.16-0.39-1.41-0.71
		c-0.3-0.4-0.45-0.82-0.45-1.26c0-0.36,0.11-0.71,0.32-1.04c0.31-0.47,0.79-0.7,1.44-0.7c0.56,0,1.07,0.16,1.55,0.48
		c0.23,0.16,0.47,0.44,0.7,0.83c0.21,0.34,0.35,0.6,0.41,0.81c0.06,0.2,0.1,0.4,0.13,0.59c0.63-0.17,0.92-0.52,0.86-1.04
		c-0.06-0.49-0.33-0.88-0.8-1.15c-0.17-0.11-0.38-0.19-0.6-0.23c-0.23-0.04-0.45-0.08-0.66-0.12c-0.79-0.2-1.33-0.53-1.6-1
		c-0.11-0.19-0.17-0.4-0.17-0.62c0-0.38,0.14-0.71,0.41-0.98c0.35-0.34,0.78-0.5,1.3-0.5c0.57,0,1.01,0.15,1.32,0.44
		c0.31,0.29,0.46,0.53,0.46,0.7c0,0.31-0.16,0.47-0.49,0.47c-0.14,0-0.26-0.04-0.39-0.11c-0.06-0.06-0.16-0.15-0.3-0.27
		c-0.13-0.12-0.34-0.18-0.62-0.18c-0.23,0-0.41,0.06-0.54,0.19c-0.12,0.13-0.16,0.23-0.09,0.32c0.14,0.21,0.45,0.38,0.93,0.5
		c0.27,0.06,0.55,0.12,0.84,0.19C586.09,12.06,586.35,12.17,586.57,12.3L586.57,12.3z M582.69,15.02c0.29,0.36,1.02,0.52,2.19,0.5
		c-0.01-0.13-0.04-0.26-0.09-0.41c-0.17-0.52-0.41-0.87-0.71-1.06c-0.34-0.23-0.66-0.35-0.97-0.35c-0.23,0-0.41,0.09-0.52,0.27
		c-0.08,0.14-0.12,0.29-0.12,0.45C582.47,14.63,582.54,14.83,582.69,15.02L582.69,15.02z"/>
	<path d="M587.53,5.61c0.03,0.35-0.14,0.53-0.49,0.56c-0.34,0.02-0.53-0.14-0.56-0.49c-0.01-0.22-0.14-0.42-0.41-0.58
		c-0.26-0.17-0.56-0.25-0.89-0.25c-0.32,0-0.58,0.09-0.79,0.28c-0.21,0.19-0.32,0.4-0.36,0.65c-0.09,0.51,0.15,1.01,0.7,1.51
		c0.1,0.1,0.61,0.41,1.54,0.93c0.2,0.11,0.3,0.26,0.3,0.44c0,0.37-0.17,0.56-0.51,0.56c-0.12,0-0.5-0.18-1.14-0.54
		c-0.41-0.22-0.71-0.42-0.91-0.6c-0.71-0.63-1.06-1.33-1.06-2.08c0-0.6,0.21-1.13,0.65-1.56c0.43-0.44,0.96-0.65,1.58-0.65
		c0.61,0,1.14,0.19,1.6,0.56C587.24,4.74,587.49,5.15,587.53,5.61z"/>
	<path d="M596.29,13.03c0,0.95-0.33,1.78-0.99,2.47c-0.66,0.69-1.47,1.04-2.43,1.04c-1.07,0-1.95-0.42-2.64-1.28
		c-0.1-0.08-0.17-0.18-0.2-0.3c-0.38-0.53-0.57-1.18-0.57-1.93c0-0.59,0.16-1.17,0.47-1.77c0.31-0.59,0.73-1.07,1.26-1.45
		c0.1-0.06,0.2-0.09,0.3-0.09c0.15,0,0.27,0.06,0.37,0.17c0.1,0.11,0.15,0.24,0.15,0.39c0,0.17-0.07,0.32-0.22,0.43
		c-0.4,0.26-0.71,0.6-0.93,1.04c-0.23,0.44-0.34,0.86-0.34,1.28c0,0.26,0.04,0.51,0.12,0.76c0.58-0.67,1.33-1.01,2.25-1.01
		c0.91,0,1.66,0.34,2.23,1.02c0.09-0.26,0.13-0.52,0.13-0.78c0-1.02-0.43-1.79-1.28-2.32c-0.16-0.11-0.24-0.25-0.24-0.43
		c0-0.14,0.05-0.26,0.15-0.37c0.1-0.11,0.22-0.16,0.37-0.16c0.09,0,0.18,0.02,0.28,0.07c0.56,0.33,0.99,0.79,1.31,1.37
		C596.13,11.77,596.29,12.39,596.29,13.03z M592.88,15.49c0.63,0,1.18-0.24,1.65-0.73c-0.42-0.62-0.97-0.93-1.65-0.93
		c-0.68,0-1.24,0.31-1.68,0.93C591.66,15.25,592.22,15.49,592.88,15.49L592.88,15.49z M599.81,9.76c1.17,0,2.1,0.48,2.77,1.43
		c0.38,0.57,0.57,1.21,0.57,1.92c0,1.21-0.48,2.15-1.45,2.82c-0.65,0.44-1.34,0.65-2.06,0.65c-0.29,0-0.54-0.04-0.78-0.11
		c-0.23-0.07-0.4-0.15-0.5-0.22c-0.14-0.12-0.21-0.25-0.21-0.41c0-0.15,0.05-0.28,0.17-0.4c0.11-0.12,0.24-0.17,0.38-0.17
		c0.11,0,0.22,0.04,0.31,0.13c0.01,0.01,0.07,0.03,0.17,0.07c0.15,0.05,0.31,0.07,0.49,0.07c0.48,0,0.96-0.17,1.43-0.5
		c0.67-0.44,1-1.09,1-1.93c0-0.48-0.14-0.92-0.41-1.3c-0.44-0.66-1.06-0.99-1.84-0.99c-0.51,0-0.97,0.15-1.39,0.44
		c-0.23,0.16-0.5,0.44-0.79,0.81c-0.3,0.38-0.5,0.7-0.6,0.97c-0.14,0.36-0.33,0.51-0.6,0.45c-0.32-0.06-0.48-0.24-0.48-0.54
		c0-0.13,0.03-0.26,0.09-0.38c0.15-0.25,0.39-0.63,0.73-1.14c0.32-0.46,0.66-0.81,1.01-1.05C598.43,9.96,599.1,9.76,599.81,9.76
		L599.81,9.76z"/>
	<path d="M610.92,13.04c0,0.95-0.33,1.77-0.99,2.46c-0.66,0.69-1.47,1.03-2.43,1.03c-0.94,0-1.75-0.34-2.42-1.03
		c-0.67-0.69-1-1.51-1-2.46c0-0.6,0.15-1.19,0.46-1.79c0.31-0.6,0.73-1.08,1.26-1.44c0.1-0.06,0.2-0.09,0.3-0.09
		c0.14,0,0.27,0.06,0.37,0.17c0.1,0.11,0.15,0.24,0.15,0.39c0,0.17-0.07,0.32-0.22,0.43c-0.85,0.56-1.27,1.34-1.27,2.34
		c0,0.67,0.23,1.24,0.69,1.73c0.46,0.48,1.02,0.73,1.68,0.73c0.65,0,1.21-0.24,1.67-0.73c0.46-0.49,0.69-1.06,0.69-1.72
		c0-1.03-0.43-1.81-1.28-2.34c-0.16-0.11-0.24-0.25-0.24-0.43c0-0.14,0.05-0.26,0.15-0.37c0.1-0.11,0.22-0.16,0.37-0.16
		c0.09,0,0.18,0.02,0.28,0.07c0.56,0.33,0.99,0.79,1.31,1.38C610.76,11.78,610.92,12.4,610.92,13.04z"/>
	<path d="M610.31,6.56c0,0.74-0.26,1.38-0.79,1.91c-0.53,0.53-1.18,0.81-1.95,0.82c-0.75,0.02-1.39-0.25-1.92-0.8
		c-0.52-0.55-0.79-1.19-0.79-1.93c0-0.77,0.26-1.42,0.78-1.96c0.52-0.54,1.16-0.81,1.93-0.81c0.76,0,1.41,0.27,1.94,0.82
		C610.05,5.16,610.31,5.81,610.31,6.56z M609.25,6.56c0-0.46-0.16-0.86-0.49-1.2c-0.33-0.34-0.72-0.51-1.18-0.51
		c-0.47,0-0.86,0.16-1.18,0.49c-0.31,0.33-0.47,0.74-0.47,1.22c0,0.45,0.16,0.85,0.48,1.19c0.32,0.34,0.71,0.5,1.16,0.5
		c0.46,0,0.85-0.17,1.18-0.5C609.09,7.41,609.25,7.02,609.25,6.56z M609.78,21.27c0,0.34-0.18,0.52-0.54,0.52h-1.58
		c-0.35,0-0.52-0.18-0.52-0.54v-4.14c0-0.36,0.17-0.54,0.52-0.54c0.36,0,0.54,0.18,0.54,0.54v3.61h1.05
		C609.61,20.73,609.78,20.91,609.78,21.27L609.78,21.27z"/>
	<path d="M618.53,11.3c0.01,0.02,0.02,0.04,0.04,0.05c0,0.01-0.01,0.02-0.04,0.02h-0.02v-0.02v-0.02c0.06,0.1,0.09,0.19,0.09,0.28
		c0,0.15-0.06,0.28-0.17,0.39c-0.12,0.11-0.25,0.17-0.4,0.17c-0.2,0-0.35-0.11-0.45-0.32c-0.01-0.01-0.01-0.02,0-0.04l-0.14-0.17
		c-0.47-0.57-1.08-0.85-1.83-0.85c-0.67,0-1.24,0.23-1.69,0.68c-0.45,0.45-0.68,1-0.68,1.64c0,0.65,0.24,1.21,0.71,1.68
		c0.47,0.47,1.02,0.7,1.66,0.7c0.83,0,1.43-0.26,1.8-0.78c0.04-0.04,0.09-0.11,0.15-0.21c0.09-0.26,0.25-0.38,0.5-0.38
		c0.36,0,0.54,0.17,0.54,0.52c0,0.15-0.11,0.38-0.32,0.69c-0.57,0.82-1.46,1.23-2.67,1.23c-0.93,0-1.73-0.34-2.41-1.02
		c-0.67-0.68-1.01-1.49-1.01-2.41c0-0.94,0.33-1.74,0.98-2.39c0.66-0.65,1.47-0.98,2.43-0.98c0.53,0,1.06,0.13,1.57,0.38
		c0.45,0.24,0.8,0.51,1.08,0.82l0.17,0.2c0.03,0.05,0.06,0.09,0.09,0.13L618.53,11.3L618.53,11.3z"/>
	<path d="M618.54,5.61c0.02,0.35-0.14,0.53-0.49,0.56c-0.34,0.02-0.53-0.14-0.56-0.49c-0.01-0.22-0.14-0.42-0.41-0.58
		c-0.26-0.17-0.56-0.25-0.89-0.25c-0.32,0-0.58,0.09-0.79,0.28c-0.21,0.19-0.33,0.4-0.36,0.65c-0.09,0.51,0.15,1.01,0.7,1.51
		c0.1,0.1,0.61,0.41,1.54,0.93c0.2,0.11,0.3,0.26,0.3,0.44c0,0.37-0.17,0.56-0.52,0.56c-0.13,0-0.51-0.18-1.14-0.54
		c-0.41-0.22-0.71-0.42-0.91-0.6c-0.71-0.63-1.06-1.33-1.06-2.08c0-0.6,0.22-1.13,0.65-1.56c0.43-0.44,0.96-0.65,1.58-0.65
		c0.61,0,1.14,0.19,1.6,0.56C618.26,4.74,618.51,5.15,618.54,5.61z"/>
	<path d="M623.23,11.09c0,0.33-0.13,0.63-0.38,0.9c-0.25,0.27-0.55,0.4-0.88,0.4c-0.34,0-0.63-0.14-0.88-0.42
		c-0.25-0.28-0.37-0.6-0.37-0.95c0-0.35,0.11-0.63,0.34-0.84c0.23-0.21,0.53-0.32,0.91-0.32c0.34,0,0.64,0.12,0.89,0.36
		C623.1,10.47,623.23,10.76,623.23,11.09z M623.23,15.2c0,0.33-0.13,0.63-0.38,0.9c-0.25,0.27-0.55,0.4-0.88,0.4
		c-0.34,0-0.63-0.14-0.88-0.42c-0.25-0.28-0.37-0.6-0.37-0.96c0-0.35,0.11-0.63,0.34-0.84c0.23-0.21,0.53-0.31,0.91-0.31
		c0.34,0,0.64,0.12,0.89,0.36C623.1,14.58,623.23,14.87,623.23,15.2z M621.97,11.46c0.23,0,0.35-0.12,0.35-0.37
		c0-0.21-0.12-0.32-0.35-0.32c-0.21,0-0.32,0.07-0.32,0.22C621.65,11.31,621.76,11.46,621.97,11.46L621.97,11.46z M621.97,15.57
		c0.23,0,0.35-0.12,0.35-0.37c0-0.21-0.12-0.32-0.35-0.32c-0.21,0-0.32,0.07-0.32,0.23C621.65,15.42,621.76,15.57,621.97,15.57
		L621.97,15.57z"/>
	<path d="M633.3,9.68c1.17,0,2.1,0.48,2.77,1.43c0.38,0.57,0.57,1.21,0.57,1.92c0,1.24-0.48,2.19-1.45,2.86
		c-0.64,0.43-1.32,0.64-2.04,0.64c-0.34,0-0.72-0.08-1.15-0.24c-0.06-0.01-0.12-0.03-0.19-0.07c-0.27-0.16-0.33-0.39-0.18-0.69
		c0.11-1,0.66-1.74,1.65-2.21c0.27-0.14,0.58-0.21,0.93-0.21c0.43,0,0.88,0.11,1.34,0.32c0.02-0.14,0.04-0.27,0.04-0.39
		c0-0.49-0.14-0.93-0.41-1.32c-0.45-0.65-1.06-0.98-1.86-0.98c-0.81,0-1.45,0.29-1.92,0.86c-0.05,0.05-0.11,0.14-0.17,0.28
		c-0.01,0.56-0.23,1-0.65,1.32c0.44,0.38,0.65,0.81,0.65,1.28c0,0.1-0.01,0.2-0.04,0.3c-0.25,1.17-1.24,1.75-2.97,1.76
		c-1.45,0.01-2.4-0.53-2.86-1.65c-0.02-0.08-0.04-0.15-0.04-0.21c0-0.34,0.19-0.52,0.56-0.52c0.23,0,0.39,0.12,0.48,0.35
		c0.26,0.67,0.88,1,1.86,0.99c1.18-0.01,1.83-0.32,1.94-0.93c0.05-0.25-0.04-0.46-0.26-0.63c-0.16-0.14-0.35-0.23-0.56-0.28
		c-0.05,0.01-0.09,0.01-0.13,0.01h-0.5c-0.36,0-0.54-0.18-0.54-0.54c0-0.35,0.18-0.52,0.54-0.52h0.56c0.22-0.05,0.39-0.11,0.5-0.18
		c0.22-0.13,0.36-0.29,0.41-0.5c-0.02-0.08-0.03-0.15-0.02-0.23c-0.17-0.61-0.82-0.91-1.94-0.91c-1.1,0-1.72,0.31-1.84,0.91
		c-0.06,0.29-0.23,0.43-0.5,0.43c-0.17,0-0.32-0.06-0.43-0.17c-0.11-0.11-0.15-0.26-0.11-0.45c0.23-1.18,1.19-1.78,2.87-1.78
		c1.24,0,2.11,0.31,2.6,0.93c0.11-0.12,0.26-0.24,0.46-0.38C631.9,9.89,632.57,9.68,633.3,9.68L633.3,9.68z M635.18,14.42
		c-0.33-0.17-0.64-0.25-0.93-0.25c-0.19,0-0.36,0.04-0.52,0.12c-0.52,0.23-0.86,0.61-1.02,1.13c0.15,0.05,0.31,0.07,0.46,0.07
		c0.37,0,0.75-0.1,1.12-0.31C634.67,14.99,634.96,14.73,635.18,14.42z"/>
	<path d="M644.88,13.16c0,0.94-0.34,1.74-1.02,2.4c-0.68,0.66-1.48,0.99-2.4,0.99c-0.91,0-1.7-0.33-2.37-0.99
		c-0.66-0.66-0.99-1.48-0.99-2.46c0-0.97,0.33-1.77,0.98-2.41c0.66-0.64,1.45-0.95,2.4-0.95c0.97,0,1.78,0.34,2.42,1.01
		C644.56,11.43,644.88,12.23,644.88,13.16z M639.85,14.83c0.64-0.44,0.97-1,0.97-1.69c0-0.71-0.33-1.26-1-1.67
		c0,0.01-0.01,0.03-0.02,0.05l-0.06,0.09c-0.29,0.48-0.45,0.97-0.5,1.45C639.17,13.77,639.37,14.36,639.85,14.83L639.85,14.83z
		 M641.43,15.49c0.64,0,1.21-0.24,1.71-0.73c0.46-0.43,0.69-0.97,0.69-1.61c0-0.65-0.22-1.2-0.66-1.66
		c-0.44-0.46-0.98-0.69-1.62-0.69c-0.24,0-0.47,0.03-0.69,0.09c0.68,0.58,1.02,1.32,1.02,2.23c0,0.91-0.35,1.66-1.06,2.26
		C641.02,15.46,641.22,15.49,641.43,15.49L641.43,15.49z"/>
	<path d="M644.32,6.56c0,0.74-0.26,1.38-0.79,1.91c-0.53,0.53-1.18,0.81-1.95,0.82c-0.74,0.02-1.38-0.24-1.91-0.78
		c-0.08-0.06-0.13-0.13-0.17-0.21c-0.42-0.51-0.63-1.09-0.63-1.74c0-0.77,0.26-1.42,0.78-1.96c0.52-0.54,1.16-0.81,1.93-0.81
		c0.76,0,1.4,0.27,1.94,0.82C644.06,5.16,644.32,5.81,644.32,6.56z M643.15,7.17c0.07-0.2,0.11-0.4,0.11-0.61
		c0-0.46-0.16-0.86-0.49-1.2c-0.33-0.34-0.72-0.51-1.18-0.51c-0.47,0-0.86,0.16-1.17,0.49c-0.32,0.33-0.47,0.74-0.47,1.22
		c0,0.18,0.03,0.36,0.09,0.54c0.4-0.4,0.89-0.6,1.47-0.61C642.1,6.48,642.66,6.7,643.15,7.17L643.15,7.17z M641.57,8.25
		c0.32,0,0.62-0.09,0.89-0.26c-0.28-0.31-0.59-0.46-0.93-0.46c-0.35,0-0.63,0.15-0.86,0.44C640.95,8.16,641.25,8.25,641.57,8.25
		L641.57,8.25z"/>
	<path d="M654.12,9.68c1.18,0,2.1,0.48,2.77,1.43c0.38,0.57,0.57,1.21,0.57,1.92c0,1.24-0.48,2.19-1.45,2.86
		c-0.64,0.43-1.32,0.64-2.04,0.64c-0.33,0-0.72-0.08-1.15-0.24c-0.07-0.01-0.13-0.03-0.19-0.07c-0.27-0.16-0.33-0.39-0.18-0.69
		c0.11-1,0.66-1.74,1.65-2.21c0.27-0.14,0.58-0.21,0.93-0.21c0.43,0,0.87,0.11,1.33,0.32c0.02-0.14,0.04-0.27,0.04-0.39
		c0-0.49-0.14-0.93-0.41-1.32c-0.45-0.65-1.06-0.98-1.86-0.98c-0.81,0-1.45,0.29-1.92,0.86c-0.05,0.05-0.1,0.14-0.17,0.28
		c-0.01,0.56-0.23,1-0.65,1.32c0.43,0.38,0.65,0.81,0.65,1.28c0,0.1-0.01,0.2-0.04,0.3c-0.25,1.17-1.24,1.75-2.97,1.76
		c-1.45,0.01-2.4-0.53-2.86-1.65c-0.02-0.08-0.04-0.15-0.04-0.21c0-0.34,0.19-0.52,0.56-0.52c0.23,0,0.39,0.12,0.48,0.35
		c0.26,0.67,0.88,1,1.86,0.99c1.18-0.01,1.83-0.32,1.94-0.93c0.05-0.25-0.04-0.46-0.26-0.63c-0.16-0.14-0.35-0.23-0.56-0.28
		c-0.05,0.01-0.09,0.01-0.13,0.01h-0.5c-0.36,0-0.54-0.18-0.54-0.54c0-0.35,0.18-0.52,0.54-0.52h0.56c0.22-0.05,0.39-0.11,0.5-0.18
		c0.22-0.13,0.36-0.29,0.4-0.5c-0.02-0.08-0.03-0.15-0.01-0.23c-0.17-0.61-0.82-0.91-1.94-0.91c-1.1,0-1.72,0.31-1.84,0.91
		c-0.06,0.29-0.23,0.43-0.5,0.43c-0.18,0-0.32-0.06-0.43-0.17c-0.11-0.11-0.15-0.26-0.11-0.45c0.23-1.18,1.19-1.78,2.87-1.78
		c1.24,0,2.11,0.31,2.6,0.93c0.11-0.12,0.27-0.24,0.46-0.38C652.72,9.89,653.39,9.68,654.12,9.68L654.12,9.68z M656,14.42
		c-0.34-0.17-0.64-0.25-0.93-0.25c-0.19,0-0.36,0.04-0.52,0.12c-0.52,0.23-0.86,0.61-1.02,1.13c0.15,0.05,0.3,0.07,0.46,0.07
		c0.37,0,0.75-0.1,1.12-0.31C655.49,14.99,655.78,14.73,656,14.42z M665.7,13.16c0,0.94-0.34,1.74-1.02,2.4
		c-0.68,0.66-1.48,0.99-2.4,0.99c-0.91,0-1.7-0.33-2.36-0.99c-0.66-0.66-0.99-1.48-0.99-2.46c0-0.97,0.33-1.77,0.98-2.41
		c0.65-0.64,1.45-0.95,2.4-0.95c0.97,0,1.78,0.34,2.42,1.01C665.38,11.43,665.7,12.23,665.7,13.16z M660.67,14.83
		c0.64-0.44,0.96-1,0.96-1.69c0-0.71-0.33-1.26-1-1.67c0,0.01-0.01,0.03-0.02,0.05l-0.06,0.09c-0.29,0.48-0.45,0.97-0.5,1.45
		C659.98,13.77,660.19,14.36,660.67,14.83L660.67,14.83z M662.25,15.49c0.64,0,1.21-0.24,1.71-0.73c0.46-0.43,0.69-0.97,0.69-1.61
		c0-0.65-0.22-1.2-0.66-1.66c-0.44-0.46-0.98-0.69-1.62-0.69c-0.24,0-0.47,0.03-0.69,0.09c0.68,0.58,1.02,1.32,1.02,2.23
		c0,0.91-0.35,1.66-1.06,2.26C661.84,15.46,662.04,15.49,662.25,15.49L662.25,15.49z M673.79,12.91c0.01,0.94-0.32,1.75-0.99,2.43
		c-0.67,0.67-1.48,1.02-2.43,1.03c-0.58,0.02-1.23-0.18-1.93-0.57v3.7c0,0.48,0.08,0.81,0.25,0.99c0.17,0.17,0.49,0.26,0.97,0.26
		h4.67c0.13,0,0.2-0.1,0.2-0.29c0-0.31,0.01-0.49,0.02-0.54c0.06-0.2,0.24-0.3,0.55-0.3c0.29,0,0.46,0.15,0.5,0.45
		c0,0.15,0,0.26,0.01,0.33c0,0.41-0.11,0.74-0.35,1.01c-0.23,0.27-0.54,0.4-0.93,0.4h-4.67c-1.52,0-2.28-0.77-2.28-2.3v-4.46
		c0-0.17,0.12-0.32,0.36-0.44c0.18-0.09,0.37-0.13,0.57-0.13c0.13,0,0.22,0.02,0.28,0.07c0.39,0.52,0.98,0.78,1.78,0.78
		c0.66,0,1.21-0.24,1.66-0.71c0.45-0.47,0.68-1.04,0.7-1.7c0.01-0.64-0.21-1.19-0.68-1.63c-0.46-0.44-1.02-0.67-1.68-0.67
		c-0.74,0-1.35,0.28-1.82,0.85l-0.18,0.22c-0.02,0.02-0.05,0.04-0.07,0.04c0-0.01,0.01-0.03,0.04-0.05l0.01,0.01
		c0.02,0.06-0.03,0.13-0.16,0.21c-0.13,0.08-0.23,0.11-0.31,0.11c-0.36,0-0.54-0.17-0.54-0.52c0-0.11,0.04-0.22,0.11-0.33v0.02
		v-0.02l0.02,0.02h-0.04l-0.02-0.02l0.02-0.01c0.05-0.08,0.15-0.2,0.3-0.38c0.68-0.79,1.56-1.2,2.63-1.2
		c0.95-0.02,1.76,0.31,2.41,0.96C673.45,11.17,673.78,11.97,673.79,12.91z M673.57,5.61c0.02,0.35-0.14,0.53-0.49,0.56
		c-0.34,0.02-0.53-0.14-0.56-0.49c-0.01-0.22-0.15-0.42-0.41-0.58c-0.26-0.17-0.56-0.25-0.89-0.25c-0.32,0-0.58,0.09-0.79,0.28
		c-0.21,0.19-0.33,0.4-0.36,0.65c-0.09,0.51,0.15,1.01,0.7,1.51c0.1,0.1,0.61,0.41,1.54,0.93c0.2,0.11,0.3,0.26,0.3,0.44
		c0,0.37-0.17,0.56-0.52,0.56c-0.12,0-0.5-0.18-1.14-0.54c-0.41-0.22-0.71-0.42-0.91-0.6C669.35,7.45,669,6.76,669,6.01
		c0-0.6,0.22-1.13,0.65-1.56c0.43-0.44,0.96-0.65,1.58-0.65c0.61,0,1.14,0.19,1.6,0.56C673.28,4.74,673.53,5.15,673.57,5.61z"/>
</g>
</svg>
