<?xml version="1.0" encoding="utf-8"?>
<!-- Generator: Adobe Illustrator 18.0.0, SVG Export Plug-In . SVG Version: 6.00 Build 0)  -->
<!DOCTYPE svg PUBLIC "-//W3C//DTD SVG 1.1//EN" "http://www.w3.org/Graphics/SVG/1.1/DTD/svg11.dtd">
<svg version="1.1" id="Layer_1" xmlns="http://www.w3.org/2000/svg" xmlns:xlink="http://www.w3.org/1999/xlink" x="0px" y="0px"
	 width="41.72px" height="19px" viewBox="778.87 0.25 41.72 19" style="enable-background:new 778.87 0.25 41.72 19;"
	 xml:space="preserve">
<style type="text/css">
	.st0{fill-rule:evenodd;clip-rule:evenodd;}
	.st1{fill:#1E1E1E;}
</style>
<path d="M789.91,12.63l-2.66,0.04c-0.17,0-0.37,0.06-0.52,0.14c-0.14,0.07-0.21,0.22-0.28,0.32c-0.07,0.1-0.09,0.21-0.05,0.33
	c0.04,0.12,0.15,0.21,0.35,0.29c0.12,0.05,0.28,0.08,0.47,0.1c0.2,0.02,0.42,0.04,0.65,0.07c0.24,0.03,0.47,0.07,0.72,0.12
	c0.24,0.05,0.46,0.13,0.65,0.24c0.2,0.11,0.35,0.26,0.48,0.45c0.12,0.19,0.18,0.43,0.18,0.74c0,0.39-0.08,0.75-0.24,1.08
	c-0.16,0.34-0.37,0.65-0.65,0.93c-0.28,0.28-0.59,0.53-0.96,0.76c-0.37,0.22-0.76,0.41-1.19,0.56c-0.42,0.15-0.86,0.27-1.31,0.35
	c-0.45,0.08-0.9,0.12-1.34,0.12c-0.96,0-1.79-0.13-2.5-0.38c-0.71-0.26-1.28-0.63-1.73-1.12c-0.45-0.49-0.76-1.09-0.93-1.81
	c-0.17-0.72-0.21-1.54-0.11-2.47c0.03-0.3,0.08-0.6,0.15-0.89c0.06-0.29,0.14-0.58,0.23-0.87c0.09-0.29,0.19-0.58,0.32-0.88
	c0.12-0.3,0.26-0.61,0.41-0.94l1.61,0.81c-0.02,0.03-0.08,0.12-0.16,0.28c-0.08,0.16-0.16,0.35-0.26,0.58
	c-0.09,0.23-0.18,0.49-0.27,0.76c-0.08,0.27-0.15,0.55-0.2,0.83c-0.11,0.63-0.08,1.16,0.08,1.59c0.16,0.44,0.41,0.79,0.73,1.07
	c0.33,0.27,0.72,0.48,1.18,0.61c0.46,0.13,0.93,0.21,1.41,0.24c0.48,0.02,0.96,0,1.42-0.08c0.46-0.07,0.87-0.18,1.22-0.32
	c0.35-0.14,0.62-0.3,0.81-0.49c0.19-0.19,0.25-0.39,0.19-0.58c-0.61,0.01-1.15-0.05-1.62-0.19c-0.21-0.05-0.41-0.13-0.6-0.21
	c-0.2-0.09-0.37-0.2-0.52-0.34c-0.15-0.14-0.27-0.3-0.37-0.49c-0.1-0.19-0.14-0.41-0.14-0.67c0-0.27,0.03-0.54,0.1-0.82
	c0.07-0.28,0.17-0.54,0.31-0.79c0.14-0.25,0.32-0.48,0.54-0.69c0.22-0.21,0.48-0.38,0.79-0.51c0.32-0.14,0.52-0.14,0.78-0.19
	c0.26-0.06,0.61-0.05,0.87-0.07c0.26-0.02,0.54-0.02,0.84-0.01c0.3,0,0.59-0.03,0.98-0.03l0.14-0.02V12.63z"/>
<path d="M789.47,10.15h0.44c0.34,0,0.6-0.08,0.77-0.24c0.18-0.16,0.26-0.4,0.26-0.71V7.58l1.9-0.5v1.48c0,0.56,0.08,0.97,0.25,1.22
	c0.17,0.26,0.43,0.39,0.78,0.39c0.23,0,0.42-0.02,0.57-0.07c0.15-0.05,0.26-0.11,0.35-0.21c0.08-0.09,0.14-0.21,0.17-0.35
	c0.03-0.14,0.05-0.3,0.05-0.49V7.58l1.84-0.5V8.2c0,0.69,0.09,1.19,0.28,1.5c0.18,0.32,0.47,0.48,0.87,0.48h-0.12
	c0.23,0,0.42-0.02,0.57-0.07c0.15-0.05,0.27-0.11,0.35-0.21c0.08-0.09,0.14-0.21,0.17-0.35c0.03-0.14,0.05-0.3,0.05-0.49V7.58
	l1.84-0.5V8.2c0,0.15,0,0.35-0.01,0.62c-0.01,0.26-0.03,0.55-0.07,0.86c-0.05,0.31-0.11,0.63-0.2,0.95
	c-0.09,0.32-0.23,0.62-0.41,0.9c-0.15,0.18-0.28,0.35-0.42,0.48c-0.13,0.14-0.28,0.25-0.45,0.34c-0.16,0.09-0.34,0.16-0.56,0.21
	c-0.21,0.05-0.45,0.07-0.75,0.07c-0.46,0-0.85-0.09-1.17-0.28c-0.33-0.18-0.55-0.46-0.67-0.83c-0.15,0.18-0.29,0.35-0.42,0.48
	c-0.13,0.14-0.28,0.25-0.45,0.34c-0.16,0.09-0.35,0.16-0.55,0.21c-0.21,0.05-0.45,0.07-0.74,0.07c-0.2,0-0.41-0.02-0.62-0.07
	c-0.21-0.05-0.42-0.12-0.61-0.21c-0.2-0.09-0.37-0.21-0.53-0.34c-0.15-0.14-0.27-0.3-0.36-0.48c-0.3,0.37-0.61,0.64-0.95,0.83
	c-0.34,0.18-0.68,0.28-1.02,0.28h-0.44V10.15z"/>
<path d="M804.77,6.65c0.37,0.71,0.69,1.44,0.96,2.2c0.12,0.32,0.23,0.66,0.34,1.03c0.1,0.36,0.19,0.73,0.27,1.12
	c0.08,0.39,0.13,0.78,0.17,1.17c0.04,0.39,0.04,0.78,0.01,1.16c-0.06,0.76-0.22,1.44-0.48,2.02c-0.26,0.58-0.59,1.1-1,1.56
	c-0.41,0.46-0.87,0.87-1.4,1.23c-0.52,0.36-1.08,0.69-1.66,1l-2.21-1.38c0.66-0.35,1.29-0.7,1.88-1.06
	c0.59-0.36,1.12-0.75,1.56-1.17c0.45-0.42,0.81-0.87,1.08-1.35c0.27-0.48,0.42-1.01,0.43-1.6c0.01-0.59-0.12-1.23-0.4-1.93
	c-0.28-0.7-0.75-1.48-1.41-2.34L804.77,6.65z"/>
<path d="M812.18,17.56c-0.15,0-0.34-0.02-0.55-0.06c-0.21-0.04-0.44-0.1-0.67-0.2c-0.24-0.09-0.46-0.22-0.69-0.38
	c-0.23-0.16-0.44-0.36-0.62-0.61c-0.18-0.24-0.33-0.53-0.44-0.87c-0.11-0.34-0.17-0.73-0.17-1.18l-0.12-12.76l2.1-1.17v11.24
	c0,0.92,0.09,2.24,0.27,2.67c0.18,0.43,0.48,0.65,0.89,0.65h0.4v2.66H812.18z"/>
<path d="M812.11,17.55v-2.63h2.6c0.73,0,1.35,0.01,1.84,0.02c0.5,0.01,0.89-0.03,1.2-0.14c0.3-0.11,0.56-0.52,0.69-0.81
	c0.13-0.29,0.15-0.51,0.15-1.11c-0.12,0.12-0.29,0.24-0.49,0.34c-0.2,0.11-0.42,0.19-0.66,0.25c-0.24,0.06-0.49,0.08-0.75,0.07
	c-0.26-0.01-0.5-0.07-0.74-0.18c-0.24-0.11-0.46-0.28-0.65-0.51c-0.2-0.23-0.35-0.54-0.47-0.92c-0.14-0.52-0.21-1.04-0.23-1.57
	c-0.01-0.53,0.02-1.05,0.11-1.55c0.09-0.5,0.22-0.97,0.38-1.41c0.17-0.44,0.36-0.83,0.59-1.15c0.23-0.33,0.47-0.59,0.75-0.78
	c0.27-0.19,0.55-0.29,0.84-0.29c0.51,0,0.95,0.12,1.31,0.37c0.37,0.24,0.68,0.57,0.93,0.99c0.25,0.42,0.46,0.9,0.6,1.45
	c0.15,0.55,0.26,1.12,0.33,1.72c0.08,0.6,0.12,1.21,0.13,1.82c0.01,0.61,0,1.2-0.03,1.77c-0.04,0.87-0.11,1.04-0.34,1.63
	c-0.24,0.59-0.61,0.97-0.96,1.34c-0.35,0.36-0.74,0.63-1.17,0.82c-0.43,0.18-0.85,0.31-1.28,0.38c-0.42,0.07-0.82,0.1-1.19,0.1
	h-0.91H812.11z M818.23,1.75l-1.16,2.24l-1.69-1.49l1.27-2.24L818.23,1.75z M816.18,9.95c-0.01,0.28,0.06,0.51,0.21,0.7
	c0.15,0.18,0.35,0.3,0.6,0.36c0.25,0.06,0.51,0.04,0.81-0.05c0.29-0.09,0.56-0.27,0.81-0.54c-0.05-0.65-0.14-1.17-0.27-1.57
	c-0.14-0.4-0.29-0.7-0.46-0.89c-0.17-0.19-0.35-0.28-0.54-0.26c-0.19,0.02-0.37,0.11-0.53,0.3c-0.16,0.18-0.3,0.44-0.41,0.77
	C816.27,9.09,816.2,9.49,816.18,9.95"/>
</svg>
