<?xml version="1.0" encoding="utf-8"?>
<!-- Generator: Adobe Illustrator 18.0.0, SVG Export Plug-In . SVG Version: 6.00 Build 0)  -->
<!DOCTYPE svg PUBLIC "-//W3C//DTD SVG 1.1//EN" "http://www.w3.org/Graphics/SVG/1.1/DTD/svg11.dtd">
<svg version="1.1" id="Layer_1" xmlns="http://www.w3.org/2000/svg" xmlns:xlink="http://www.w3.org/1999/xlink" x="0px" y="0px"
	 width="47.5px" height="15.5px" viewBox="2491.63 3.79 47.5 15.5" style="enable-background:new 2491.63 3.79 47.5 15.5;"
	 xml:space="preserve">
<style type="text/css">
	.st0{fill-rule:evenodd;clip-rule:evenodd;}
	.st1{fill:#1E1E1E;}
</style>
<g>
	<path d="M2494,10.69c0-0.58-0.03-1-0.1-1.27c0.8,0.05,1.61,0.07,4.4,0.07c0-0.66-0.02-1.27-0.07-1.73c0.58,0.1,1.2,0.14,1.78,0.1
		c0.2-0.02,0.24,0.14,0.07,0.25c-0.22,0.15-0.36,0.71-0.41,1.37c2.79,0,3.54-0.02,4.34-0.07c-0.07,0.29-0.1,0.66-0.1,1.27v2.54
		c1-0.02,1.61-0.05,2.17-0.14v1.47c-0.64-0.08-2.22-0.15-5.96-0.15c1.29,1.79,2.47,2.68,6.05,2.91c-0.44,0.58-0.63,1.14-0.73,1.74
		c-4.01-0.93-5.42-2.19-6.35-4.66c-0.58,1.81-2.17,3.42-6.27,4.88c-0.27-0.54-0.66-0.98-1.15-1.35c3.73-0.97,5.44-2.05,6.1-3.52
		c-3.84,0-5.49,0.07-6.13,0.15v-1.47c0.59,0.08,1.34,0.14,2.37,0.15V10.69z M2500.83,5.67c0.03-0.69-0.02-1.36-0.1-1.81
		c0.44,0.05,1.1,0.1,1.52,0.1c0.2,0,0.24,0.14,0.07,0.24c-0.15,0.08-0.19,0.15-0.19,0.36v1.12c1.63,0,3.05-0.05,4.03-0.14v1.44
		c-0.98-0.09-2.41-0.14-4.03-0.15v1.51h-1.3V6.82h-3.73v1.51h-1.29V6.82c-1.56,0.02-2.95,0.07-3.9,0.15V5.54
		c0.98,0.1,2.34,0.14,3.9,0.14c0.03-0.69-0.02-1.36-0.1-1.81c0.44,0.05,1.08,0.1,1.51,0.1c0.2,0,0.24,0.14,0.07,0.24
		c-0.15,0.08-0.19,0.15-0.19,0.36v1.12H2500.83z M2495.29,10.57v2.68h2.78c0.14-0.85,0.2-1.78,0.22-2.68H2495.29z M2502.6,10.57h-3
		c-0.07,1.02-0.15,1.9-0.27,2.68h3.27V10.57z"/>
	<path d="M2508.82,12.11c-0.2-0.44-0.58-0.9-1.05-1.24c0.92-0.88,1.75-2.3,2.32-3.78c0.36-0.91,0.73-2.2,0.88-3.07
		c0.58,0.24,1.1,0.42,1.66,0.54c0.36,0.07,0.39,0.22,0.02,0.51c-0.17,0.14-0.36,0.46-1.03,1.9v12.32h-1.52
		c0.15-1.07,0.19-1.76,0.19-2.98V9.72C2509.8,10.57,2509.3,11.41,2508.82,12.11z M2513.19,11.46c-0.29-0.29-0.88-0.64-1.37-0.81
		c1.27-0.91,2.41-2.12,3.57-4.1c0.53-0.9,0.95-1.98,1.12-2.76c0.34,0.15,1.37,0.39,1.85,0.46c0.29,0.03,0.32,0.2,0.07,0.36
		c-0.17,0.1-0.31,0.19-0.41,0.27c0.93,1.85,2.98,3.57,5.57,4.23c-0.46,0.49-0.76,0.98-0.93,1.59c-2.81-1.47-4.34-2.9-5.37-4.81
		C2516.06,8.11,2514.72,9.94,2513.19,11.46z M2519.82,10.75c0.24,0.34,0.98,0.98,1.3,1.19c0.22,0.14,0.17,0.27-0.15,0.25
		c-0.25-0.02-0.91,0.31-4.27,2.12v2.44c0,0.73,0.05,0.8,1.71,0.8c2.54,0,2.75-0.22,2.81-2.22c0.41,0.49,1.1,0.75,1.61,0.81
		c-0.64,2.57-0.93,2.73-3.96,2.73c-3.46,0-3.54-0.14-3.54-1.83v-5.46c0-0.93-0.02-1.47-0.03-1.86c0.44,0.08,1.13,0.12,1.56,0.1
		c0.29,0,0.34,0.12,0.07,0.36c-0.19,0.15-0.22,0.27-0.22,0.54v2.34C2518.33,12.19,2519.19,11.52,2519.82,10.75z"/>
	<path d="M2538.99,7.86v9.03c0,1.9-0.07,1.98-2.73,2.27c-0.05-0.52-0.2-0.98-0.63-1.59c1.76,0.17,2.05,0.07,2.05-1.03V6.16h-10.04
		v12.71h-1.54c0.17-1.19,0.24-1.98,0.24-3.1V7.84c0-1.41-0.03-2.35-0.13-3.08c0.78,0.12,2.61,0.2,6.47,0.2
		c4.13,0,5.67-0.08,6.45-0.2C2539.04,5.3,2538.99,6.2,2538.99,7.86z M2531.3,7.21c0.39,0.24,0.96,0.39,1.41,0.42
		c0.27,0.02,0.27,0.14,0.07,0.25c-0.24,0.15-0.49,0.73-0.64,1.22c-0.27,0.88-0.61,1.81-0.98,2.74c0.52,1.05,0.98,2.03,1.2,2.56
		l-1.02,0.59c-0.17-0.54-0.44-1.19-0.75-1.86c-0.64,1.41-1.34,2.66-1.88,3.44c-0.29-0.25-0.66-0.49-1.02-0.66
		c0.73-1,1.66-2.56,2.3-4.03c-0.71-1.47-1.51-2.88-1.93-3.47l1-0.49c0.32,0.53,0.88,1.56,1.46,2.68
		C2530.91,9.45,2531.13,8.35,2531.3,7.21z M2535.55,7.38c0.32,0.2,0.97,0.39,1.44,0.41c0.24,0.02,0.25,0.14,0.07,0.25
		c-0.22,0.14-0.39,0.46-0.61,1.24c-0.25,0.88-0.64,1.91-1.1,2.91c0.64,1.34,1.19,2.54,1.42,3.24l-1.07,0.54
		c-0.2-0.68-0.54-1.58-0.93-2.54c-0.68,1.36-1.39,2.54-1.93,3.2c-0.3-0.2-0.78-0.41-1.17-0.51c0.88-0.93,1.86-2.49,2.54-3.95
		c-0.58-1.27-1.19-2.49-1.68-3.2l0.86-0.47c0.42,0.74,0.88,1.61,1.32,2.46C2535.17,9.74,2535.45,8.52,2535.55,7.38z"/>
</g>
</svg>
