<?xml version="1.0" encoding="utf-8"?>
<!-- Generator: Adobe Illustrator 18.0.0, SVG Export Plug-In . SVG Version: 6.00 Build 0)  -->
<!DOCTYPE svg PUBLIC "-//W3C//DTD SVG 1.1//EN" "http://www.w3.org/Graphics/SVG/1.1/DTD/svg11.dtd">
<svg version="1.1" id="Layer_1" xmlns="http://www.w3.org/2000/svg" xmlns:xlink="http://www.w3.org/1999/xlink" x="0px" y="0px"
	 width="83.96px" height="18px" viewBox="5 3.87 83.96 18" style="enable-background:new 5 3.87 83.96 18;" xml:space="preserve">
<style type="text/css">
	.st0{fill-rule:evenodd;clip-rule:evenodd;}
	.st1{fill:#1E1E1E;}
</style>
<g id="AFrique">
	<path d="M12.85,3.98h-1.5L5,18.86h2.17l1.87-4.36h6.29l1.97,4.36h2.17L12.85,3.98L12.85,3.98z M12.07,7.23l2.39,5.36h-4.6
		L12.07,7.23L12.07,7.23z"/>
	<polygon points="28.58,4.06 20.68,4.06 20.68,18.86 22.81,18.86 22.81,11.98 28.58,11.98 28.58,10.07 22.81,10.07 22.81,5.97 
		28.58,5.97 	"/>
	<path d="M30.44,4.06v14.79h2.13v-6.42h0.89c1.09,0,1.97,0.35,3.93,3.38l1.95,3.04h2.54c-1.02-1.41-1.39-1.91-2.02-2.93
		c-1.13-1.84-1.95-3.21-3.3-4.1c1.58-0.63,2.47-1.91,2.47-3.62c0-2.56-1.87-4.14-4.86-4.14L30.44,4.06L30.44,4.06z M32.57,5.89h1.37
		c2.06,0,2.88,0.85,2.91,2.23c0.02,1.24-0.63,2.41-2.91,2.41h-1.37V5.89L32.57,5.89z"/>
	<polygon points="45.2,4.06 43.08,4.06 43.08,18.86 45.2,18.86 	"/>
	<path d="M57.18,18.86c3.58-0.69,6.16-3.77,6.16-7.35c0-4.34-3.36-7.63-7.79-7.63c-4.79,0-8.15,3.12-8.15,7.59
		c0,3.69,2.54,6.7,6.2,7.4c2.06,1.52,4.4,2.8,7.27,3.01l1.91-1.89l-0.06-0.06c-1.45,0.41-2.93,0.06-5.53-1.04v-0.04L57.18,18.86
		L57.18,18.86z M55.46,5.82c3.27,0,5.68,2.47,5.68,5.7c0,3.01-2.34,5.57-5.64,5.57c-3.95,0-5.92-2.62-5.92-5.62
		C49.59,9.25,51.04,5.82,55.46,5.82L55.46,5.82z"/>
	<path d="M77.89,4.06h-2.13v8.61c0,1.39-0.17,2.47-0.93,3.23c-0.67,0.67-1.84,1.19-3.47,1.19c-1.28,0-2.34-0.41-3.19-1.26
		c-0.67-0.67-0.89-1.37-0.89-3.04V4.06h-2.13v9.2c0,4.03,3.04,5.79,6.16,5.79c4.4,0,6.57-2.39,6.57-6.01V4.06L77.89,4.06z"/>
	<polygon points="88.77,4.06 80.38,4.06 80.38,18.86 88.96,18.86 88.96,16.95 82.5,16.95 82.5,12.35 88.55,12.35 88.55,10.44 
		82.5,10.44 82.5,5.97 88.77,5.97 	"/>
</g>
</svg>
