<?xml version="1.0" encoding="utf-8"?>
<!-- Generator: Adobe Illustrator 18.0.0, SVG Export Plug-In . SVG Version: 6.00 Build 0)  -->
<!DOCTYPE svg PUBLIC "-//W3C//DTD SVG 1.1//EN" "http://www.w3.org/Graphics/SVG/1.1/DTD/svg11.dtd">
<svg version="1.1" id="Layer_1" xmlns="http://www.w3.org/2000/svg" xmlns:xlink="http://www.w3.org/1999/xlink" x="0px" y="0px"
	 width="96.18px" height="20.39px" viewBox="3456.74 -1.28 96.18 20.39" style="enable-background:new 3456.74 -1.28 96.18 20.39;"
	 xml:space="preserve">
<style type="text/css">
	.st0{fill-rule:evenodd;clip-rule:evenodd;}
	.st1{fill:#1E1E1E;}
</style>
<path d="M3464.27,6.25c-0.49-0.23-1.03-0.39-1.87-0.39c-1.71,0-2.8,1.36-2.8,3.35c0,1.95,0.93,3.45,2.86,3.45
	c0.78,0,1.64-0.29,2.12-0.49l0.12,2.28c-0.8,0.25-1.62,0.35-2.75,0.35c-3.47,0-5.22-2.36-5.22-5.59c0-3.06,1.81-5.48,5.11-5.48
	c1.11,0,1.91,0.12,2.67,0.35L3464.27,6.25z"/>
<path d="M3471.34,11.69h0.04l2.55-7.72h2.79l-3.97,10.49c-0.88,2.34-1.52,4.64-4.4,4.64c-0.66,0-1.31-0.1-1.95-0.29l0.18-2.03
	c0.35,0.12,0.74,0.19,1.42,0.19c1.11,0,1.79-0.76,1.79-1.89l-4.05-11.11h3.04L3471.34,11.69z"/>
<path d="M3478.32,3.97h2.57v1.48h0.04c0.86-1.29,2.12-1.73,3.14-1.73c1.48,0,2.53,0.56,3.12,1.87c0.64-1.27,2.01-1.87,3.31-1.87
	c2.61,0,3.35,1.79,3.35,4.15v6.67h-2.75V8.24c0-0.99,0-2.38-1.58-2.38c-1.83,0-2.05,2.18-2.05,3.55v5.13h-2.75V8.24
	c0-0.99,0-2.38-1.58-2.38c-1.83,0-2.05,2.18-2.05,3.55v5.13h-2.75V3.97z"/>
<path d="M3496.07,3.97h2.45v2.4h0.04c0.12-0.99,1.25-2.65,2.9-2.65c0.27,0,0.55,0,0.84,0.08v2.77c-0.25-0.14-0.74-0.23-1.23-0.23
	c-2.24,0-2.24,2.79-2.24,4.31v3.88h-2.75V3.97z"/>
<path d="M3513.8,14.55h-2.61v-1.44h-0.04c-0.84,1.03-2.03,1.68-3.47,1.68c-2.51,0-3.59-1.77-3.59-4.15V3.97h2.75v5.65
	c0,1.29,0.02,3.04,1.79,3.04c1.99,0,2.42-2.16,2.42-3.51V3.97h2.75V14.55z"/>
<g>
	<path d="M3521.68,5.05h-2.13V3.94h2.13V3.17c0-2.22,0.08-4.45,2.79-4.45c0.41,0,0.97,0.06,1.22,0.21l-0.08,1.14
		c-0.27-0.14-0.66-0.23-1.04-0.23c-1.78,0-1.59,1.93-1.59,3.19v0.91h2.38v1.12h-2.38v9.44h-1.3V5.05z"/>
	<path d="M3531.45,16.07c-0.5,1.45-1.24,2.9-2.71,2.9c-0.47,0-0.97-0.06-1.41-0.17l0.12-1.12c0.25,0.08,0.5,0.17,0.97,0.17
		c1.12,0,1.49-0.93,1.91-2.3l0.27-0.93l-3.75-10.68h1.43l2.96,8.82l-0.02-0.02h0.04l3.04-8.8h1.37L3531.45,16.07z"/>
	<path d="M3549.44,14.5h-1.57l-2.88-9.13h-0.04l-2.88,9.13h-1.57l-3.4-10.56h1.43l2.78,9.13h0.04l2.94-9.13h1.57l2.79,9.13h0.04
		l2.92-9.13h1.3L3549.44,14.5z"/>
</g>
</svg>
