<?xml version="1.0" encoding="utf-8"?>
<!-- Generator: Adobe Illustrator 18.0.0, SVG Export Plug-In . SVG Version: 6.00 Build 0)  -->
<!DOCTYPE svg PUBLIC "-//W3C//DTD SVG 1.1//EN" "http://www.w3.org/Graphics/SVG/1.1/DTD/svg11.dtd">
<svg version="1.1" id="Layer_1" xmlns="http://www.w3.org/2000/svg" xmlns:xlink="http://www.w3.org/1999/xlink" x="0px" y="0px"
	 width="165.49px" height="15.61px" viewBox="3578.06 3.7 165.49 15.61" style="enable-background:new 3578.06 3.7 165.49 15.61;"
	 xml:space="preserve">
<style type="text/css">
	.st0{fill-rule:evenodd;clip-rule:evenodd;}
	.st1{fill:#1E1E1E;}
</style>
<g>
	<path d="M3590.1,3.9h2.07v15.24h-1.88L3580.11,7.4v11.73h-2.05V3.9h1.77l10.27,11.83V3.9z"/>
	<path d="M3595.43,3.9h8.64v1.94h-6.46v4.65h6.24v1.95h-6.24v4.73h6.66v1.94h-8.84V3.9z"/>
	<path d="M3626.01,3.9h2.17l-6.16,15.3h-0.48l-4.98-12.39l-5.03,12.39h-0.47l-6.14-15.3h2.2l4.2,10.5l4.23-10.5h2.06l4.25,10.5
		L3626.01,3.9z"/>
	<path d="M3633.65,12.75l-1.66-1.01c-1.04-0.63-1.78-1.26-2.22-1.87c-0.44-0.61-0.66-1.32-0.66-2.12c0-1.2,0.42-2.17,1.25-2.92
		c0.83-0.75,1.91-1.12,3.25-1.12c1.27,0,2.44,0.36,3.5,1.07v2.48c-1.1-1.06-2.28-1.58-3.54-1.58c-0.71,0-1.3,0.16-1.76,0.49
		c-0.46,0.33-0.69,0.75-0.69,1.27c0,0.46,0.17,0.88,0.51,1.28c0.34,0.4,0.88,0.82,1.63,1.25l1.67,0.99
		c1.86,1.11,2.79,2.52,2.79,4.24c0,1.22-0.41,2.21-1.23,2.98c-0.82,0.76-1.88,1.15-3.19,1.15c-1.51,0-2.88-0.46-4.11-1.39v-2.77
		c1.18,1.49,2.54,2.24,4.09,2.24c0.68,0,1.25-0.19,1.71-0.57c0.45-0.38,0.68-0.86,0.68-1.43
		C3635.66,14.46,3634.99,13.58,3633.65,12.75z"/>
	<path d="M3646.15,15.55l-0.95-0.58c-0.6-0.36-1.02-0.72-1.27-1.07c-0.25-0.35-0.38-0.76-0.38-1.22c0-0.69,0.24-1.25,0.72-1.68
		c0.48-0.43,1.1-0.64,1.86-0.64c0.73,0,1.4,0.2,2.01,0.61v1.42c-0.63-0.61-1.31-0.91-2.03-0.91c-0.41,0-0.74,0.09-1.01,0.28
		c-0.26,0.19-0.39,0.43-0.39,0.73c0,0.26,0.1,0.51,0.29,0.74c0.19,0.23,0.51,0.47,0.93,0.72l0.96,0.57c1.07,0.64,1.6,1.45,1.6,2.43
		c0,0.7-0.23,1.27-0.7,1.71c-0.47,0.44-1.08,0.66-1.83,0.66c-0.86,0-1.65-0.27-2.36-0.8v-1.59c0.68,0.86,1.46,1.28,2.35,1.28
		c0.39,0,0.72-0.11,0.98-0.33c0.26-0.22,0.39-0.49,0.39-0.82C3647.3,16.53,3646.92,16.02,3646.15,15.55z"/>
	<path d="M3657.38,17.18v1.38c-0.92,0.5-1.98,0.75-3.18,0.75c-0.98,0-1.8-0.2-2.48-0.59c-0.68-0.39-1.22-0.93-1.61-1.62
		c-0.4-0.69-0.59-1.43-0.59-2.23c0-1.27,0.45-2.34,1.36-3.21c0.91-0.87,2.03-1.3,3.36-1.3c0.92,0,1.94,0.24,3.06,0.72v1.34
		c-1.02-0.58-2.02-0.88-3-0.88c-1,0-1.83,0.32-2.49,0.95c-0.66,0.63-0.99,1.42-0.99,2.37c0,0.96,0.32,1.75,0.98,2.36
		c0.65,0.62,1.48,0.93,2.5,0.93C3655.34,18.16,3656.37,17.83,3657.38,17.18z"/>
	<path d="M3665.08,10.47h1.25v8.74h-1.25v-3.8h-4.91v3.8h-1.25v-8.74h1.25v3.78h4.91V10.47z"/>
	<path d="M3672.55,10.34c1.35,0,2.47,0.43,3.37,1.28c0.9,0.85,1.35,1.93,1.35,3.21c0,1.29-0.45,2.35-1.36,3.2
		c-0.91,0.84-2.05,1.27-3.43,1.27c-1.32,0-2.41-0.42-3.29-1.27c-0.88-0.84-1.32-1.9-1.32-3.17c0-1.3,0.44-2.38,1.33-3.24
		C3670.08,10.77,3671.2,10.34,3672.55,10.34z M3672.6,11.53c-1,0-1.82,0.31-2.47,0.94c-0.64,0.63-0.97,1.42-0.97,2.4
		c0,0.94,0.32,1.73,0.97,2.35c0.65,0.63,1.45,0.94,2.42,0.94c0.97,0,1.79-0.32,2.44-0.96c0.65-0.64,0.98-1.43,0.98-2.38
		c0-0.93-0.33-1.7-0.98-2.34C3674.35,11.85,3673.55,11.53,3672.6,11.53z"/>
	<path d="M3683.09,10.34c1.35,0,2.47,0.43,3.37,1.28c0.9,0.85,1.35,1.93,1.35,3.21c0,1.29-0.45,2.35-1.36,3.2
		c-0.91,0.84-2.05,1.27-3.43,1.27c-1.32,0-2.41-0.42-3.29-1.27c-0.88-0.84-1.32-1.9-1.32-3.17c0-1.3,0.44-2.38,1.33-3.24
		C3680.63,10.77,3681.74,10.34,3683.09,10.34z M3683.14,11.53c-1,0-1.82,0.31-2.47,0.94c-0.64,0.63-0.97,1.42-0.97,2.4
		c0,0.94,0.32,1.73,0.97,2.35c0.65,0.63,1.45,0.94,2.42,0.94c0.98,0,1.79-0.32,2.44-0.96c0.65-0.64,0.98-1.43,0.98-2.38
		c0-0.93-0.33-1.7-0.98-2.34C3684.89,11.85,3684.09,11.53,3683.14,11.53z"/>
	<path d="M3689.35,10.47h1.25v7.6h3.93v1.14h-5.19V10.47z"/>
	<path d="M3699.23,19.21v-8.74h2.19c0.88,0,1.59,0.22,2.1,0.66c0.52,0.44,0.78,1.03,0.78,1.78c0,0.51-0.13,0.95-0.38,1.32
		c-0.25,0.37-0.62,0.65-1.09,0.83c0.28,0.18,0.55,0.43,0.82,0.75c0.27,0.32,0.64,0.87,1.13,1.66c0.3,0.5,0.55,0.87,0.73,1.12
		l0.46,0.63h-1.49l-0.38-0.58c-0.01-0.02-0.04-0.06-0.08-0.11l-0.24-0.34l-0.39-0.64l-0.42-0.68c-0.26-0.36-0.49-0.64-0.71-0.86
		c-0.22-0.21-0.41-0.37-0.58-0.46c-0.17-0.09-0.46-0.14-0.87-0.14h-0.33v3.8H3699.23z M3700.85,11.53h-0.38v2.76h0.47
		c0.63,0,1.07-0.05,1.3-0.16c0.24-0.11,0.42-0.27,0.55-0.49c0.13-0.22,0.2-0.47,0.2-0.75c0-0.28-0.07-0.52-0.22-0.75
		c-0.15-0.22-0.35-0.38-0.62-0.47C3701.91,11.58,3701.47,11.53,3700.85,11.53z"/>
	<path d="M3706.93,10.47h4.95v1.11h-3.7v2.66h3.58v1.12h-3.58v2.71h3.82v1.11h-5.07V10.47z"/>
	<path d="M3713.26,19.21v-8.75h2.77c0.83,0,1.5,0.23,1.99,0.68c0.5,0.45,0.74,1.06,0.74,1.81c0,0.51-0.13,0.96-0.38,1.35
		s-0.6,0.68-1.04,0.85c-0.44,0.18-1.08,0.27-1.9,0.27h-0.93v3.79H3713.26z M3715.82,11.57h-1.29v2.73h1.37
		c0.51,0,0.9-0.12,1.18-0.36c0.28-0.24,0.41-0.58,0.41-1.03C3717.48,12.02,3716.92,11.57,3715.82,11.57z"/>
	<path d="M3724.15,10.34c1.35,0,2.47,0.43,3.37,1.28c0.9,0.85,1.35,1.93,1.35,3.21c0,1.29-0.45,2.35-1.36,3.2
		c-0.91,0.84-2.05,1.27-3.43,1.27c-1.32,0-2.41-0.42-3.29-1.27c-0.88-0.84-1.32-1.9-1.32-3.17c0-1.3,0.44-2.38,1.33-3.24
		C3721.68,10.77,3722.8,10.34,3724.15,10.34z M3724.2,11.53c-1,0-1.82,0.31-2.47,0.94c-0.64,0.63-0.97,1.42-0.97,2.4
		c0,0.94,0.32,1.73,0.97,2.35c0.65,0.63,1.45,0.94,2.42,0.94c0.98,0,1.79-0.32,2.44-0.96c0.65-0.64,0.98-1.43,0.98-2.38
		c0-0.93-0.33-1.7-0.98-2.34C3725.95,11.85,3725.15,11.53,3724.2,11.53z"/>
	<path d="M3730.44,19.21v-8.74h2.19c0.88,0,1.59,0.22,2.1,0.66c0.52,0.44,0.78,1.03,0.78,1.78c0,0.51-0.13,0.95-0.38,1.32
		c-0.25,0.37-0.62,0.65-1.09,0.83c0.28,0.18,0.55,0.43,0.82,0.75c0.27,0.32,0.64,0.87,1.13,1.66c0.3,0.5,0.55,0.87,0.73,1.12
		l0.46,0.63h-1.49l-0.38-0.58c-0.01-0.02-0.04-0.06-0.07-0.11l-0.24-0.34l-0.39-0.64l-0.42-0.68c-0.26-0.36-0.49-0.64-0.71-0.86
		c-0.22-0.21-0.41-0.37-0.58-0.46c-0.17-0.09-0.46-0.14-0.87-0.14h-0.33v3.8H3730.44z M3732.07,11.53h-0.38v2.76h0.47
		c0.63,0,1.07-0.05,1.3-0.16c0.24-0.11,0.42-0.27,0.55-0.49c0.13-0.22,0.2-0.47,0.2-0.75c0-0.28-0.07-0.52-0.22-0.75
		c-0.15-0.22-0.35-0.38-0.62-0.47C3733.12,11.58,3732.68,11.53,3732.07,11.53z"/>
	<path d="M3736.25,10.46h7.3v1.11h-3.05v7.64h-1.26v-7.64h-3V10.46z"/>
</g>
</svg>
