<?xml version="1.0" encoding="utf-8"?>
<!-- Generator: Adobe Illustrator 18.0.0, SVG Export Plug-In . SVG Version: 6.00 Build 0)  -->
<!DOCTYPE svg PUBLIC "-//W3C//DTD SVG 1.1//EN" "http://www.w3.org/Graphics/SVG/1.1/DTD/svg11.dtd">
<svg version="1.1" id="Layer_1" xmlns="http://www.w3.org/2000/svg" xmlns:xlink="http://www.w3.org/1999/xlink" x="0px" y="0px"
	 width="100.81px" height="30px" viewBox="2563.13 -4.21 100.81 30" style="enable-background:new 2563.13 -4.21 100.81 30;"
	 xml:space="preserve">
<style type="text/css">
	.st0{fill-rule:evenodd;clip-rule:evenodd;}
</style>
<path d="M2583.33,3.92h2.19v6.18h0.62c1.59,0,2.66-0.45,3.55-2.7c1.07-2.7,2.23-3.48,4.37-3.48h0.34v1.96
	c-1.97,0-2.37,0.69-2.99,2.48c-0.38,1.09-1.27,2.27-2.1,2.65c1.05,0.49,2.21,1.56,3.3,3.48l2.63,4.64h-2.48l-2.37-4.11
	c-1.29-2.23-2.81-3.15-4.26-3.15h-0.62v7.25h-2.19V3.92z"/>
<path d="M2598.51,3.92h4.75c3.33,0,4.84,1.96,4.84,4.37c0,2.39-1.61,4.26-5.13,4.26h-2.28v6.58h-2.19V3.92z M2600.69,5.88v4.71h2.48
	c1.63,0,2.68-0.87,2.68-2.39c0-1.12-0.6-2.32-2.59-2.32H2600.69z"/>
<path d="M2615.06,3.83l6.81,15.31h-2.23l-2.03-4.48h-6.47l-1.92,4.48h-2.23l6.54-15.31H2615.06z M2614.26,7.18l-2.28,5.51h4.73
	L2614.26,7.18z"/>
<path d="M2626.2,3.92v15.22h-2.19V3.92H2626.2z"/>
<path d="M2642.91,3.92v15.22h-2.19v-6.63h-8.52v6.63h-2.19V3.92h2.19v6.63h8.52V3.92H2642.91z"/>
<path d="M2653.13,3.83l6.81,15.31h-2.23l-2.03-4.48h-6.47l-1.92,4.48h-2.23l6.54-15.31H2653.13z M2652.33,7.18l-2.28,5.51h4.73
	L2652.33,7.18z"/>
<path d="M2572.27,19.4c-0.72,0-1.42-0.16-1.99-0.46l-0.15-0.08v-2.33l0.46,0.39c0.41,0.35,0.94,0.5,1.77,0.5
	c0.37,0,1.2-1.03,1.35-1.78l-6.58-11.73h2.75l5.05,9.08l4.26-9.08h2.69l-5.76,11.8C2575.26,17.63,2574.19,19.4,2572.27,19.4z"/>
<path d="M2624.01,1.52c0,0.58-0.45,1.05-1.03,1.05s-1.05-0.47-1.05-1.05c0-0.58,0.47-1.03,1.05-1.03S2624.01,0.94,2624.01,1.52z"/>
<path d="M2628.16,1.52c0,0.58-0.45,1.05-1.03,1.05c-0.58,0-1.05-0.47-1.05-1.05c0-0.58,0.47-1.03,1.05-1.03
	C2627.72,0.49,2628.16,0.94,2628.16,1.52z"/>
</svg>
