<?xml version="1.0" encoding="utf-8"?>
<!-- Generator: Adobe Illustrator 18.0.0, SVG Export Plug-In . SVG Version: 6.00 Build 0)  -->
<!DOCTYPE svg PUBLIC "-//W3C//DTD SVG 1.1//EN" "http://www.w3.org/Graphics/SVG/1.1/DTD/svg11.dtd">
<svg version="1.1" id="Layer_1" xmlns="http://www.w3.org/2000/svg" xmlns:xlink="http://www.w3.org/1999/xlink" x="0px" y="0px"
	 width="54.4px" height="18px" viewBox="703.61 1.79 54.4 18" style="enable-background:new 703.61 1.79 54.4 18;"
	 xml:space="preserve">
<style type="text/css">
	.st0{fill-rule:evenodd;clip-rule:evenodd;}
	.st1{fill:#1E1E1E;}
</style>
<g>
	<path d="M711.74,13.3v2.89c0,0.89,0.08,2.47,0.2,3.56h-2.12c0.1-0.95,0.2-2.67,0.2-3.56V13.3h-4.59v1.4h-1.82
		c0.08-0.83,0.14-2.12,0.14-2.95V7.49c0-0.69-0.06-1.54-0.14-2.04c0.97,0.14,3.11,0.2,6.41,0.22V4.74c0-1.86-0.06-2.51-0.2-2.95
		c0.73,0.08,1.39,0.12,2.1,0.12c0.32,0,0.38,0.08,0.06,0.36c-0.16,0.14-0.24,0.49-0.24,1.09v2.31c3.46-0.02,5.64-0.1,6.61-0.22
		c-0.04,0.51-0.1,1.74-0.1,2.43v3.8c0,0.79,0.06,2,0.1,2.83h-1.88V13.3H711.74z M710.02,11.82V7.15h-4.59v4.67H710.02z
		 M716.47,11.82V7.15h-4.73v4.67H716.47z"/>
	<path d="M729.48,2.39l2.16-0.5c0.1,0.83,0.35,1.98,0.63,2.95c3.06-0.02,5.18-0.08,6.98-0.2v1.9c-1.11-0.08-2.35-0.12-3.88-0.16
		c-0.59,3.8-1.78,6.21-3.36,7.93c2.41,1.7,5.06,2.53,7.95,2.45c-1.03,0.83-1.38,1.35-1.66,2.18c-2.87-0.49-5.87-1.96-7.67-3.36
		c-1.84,1.38-4.96,2.89-6.98,3.38c-0.14-0.75-0.57-1.39-1.4-1.92c2.71-0.28,5.32-1.31,7.14-2.61c-1.88-2.14-3.1-5.52-3.48-8.05
		c-1.34,0.02-2.53,0.08-3.58,0.16v-1.9c2.04,0.14,4.45,0.2,8.15,0.2C730.26,4.05,729.92,3.22,729.48,2.39z M727.59,6.36
		c0.28,1.98,1.3,5.12,3.14,6.92c1.33-1.37,2.31-3.28,2.73-6.92H727.59z"/>
	<path d="M757.85,6.6v10.54c0,2.22-0.08,2.32-3.19,2.65c-0.06-0.61-0.24-1.15-0.73-1.86c2.06,0.2,2.39,0.08,2.39-1.21V4.62H744.6
		v14.84h-1.8c0.2-1.39,0.28-2.32,0.28-3.62V6.58c0-1.64-0.04-2.75-0.16-3.6c0.91,0.14,3.05,0.24,7.56,0.24
		c4.83,0,6.63-0.1,7.54-0.24C757.91,3.61,757.85,4.66,757.85,6.6z M748.87,5.85c0.46,0.28,1.13,0.46,1.64,0.5
		c0.32,0.02,0.32,0.16,0.08,0.3c-0.28,0.18-0.57,0.85-0.75,1.42c-0.32,1.03-0.71,2.12-1.15,3.21c0.61,1.23,1.15,2.37,1.4,2.99
		l-1.19,0.69c-0.2-0.63-0.51-1.38-0.87-2.18c-0.75,1.64-1.56,3.11-2.2,4.02c-0.34-0.3-0.77-0.57-1.19-0.77
		c0.85-1.17,1.94-2.99,2.69-4.71c-0.83-1.72-1.76-3.36-2.25-4.05l1.17-0.57c0.38,0.61,1.03,1.82,1.7,3.13
		C748.42,8.46,748.67,7.17,748.87,5.85z M753.84,6.04c0.37,0.24,1.13,0.46,1.68,0.48c0.27,0.02,0.3,0.16,0.08,0.3
		c-0.26,0.16-0.46,0.53-0.71,1.44c-0.3,1.03-0.75,2.23-1.29,3.4c0.75,1.56,1.38,2.97,1.66,3.78l-1.25,0.63
		c-0.24-0.79-0.63-1.84-1.09-2.97c-0.79,1.58-1.62,2.97-2.25,3.74c-0.36-0.24-0.91-0.47-1.36-0.59c1.03-1.09,2.17-2.91,2.96-4.61
		c-0.67-1.48-1.38-2.91-1.96-3.74l1.01-0.55c0.49,0.87,1.03,1.88,1.54,2.87C753.38,8.79,753.72,7.37,753.84,6.04z"/>
</g>
</svg>
