<?xml version="1.0" encoding="utf-8"?>
<!-- Generator: Adobe Illustrator 18.0.0, SVG Export Plug-In . SVG Version: 6.00 Build 0)  -->
<!DOCTYPE svg PUBLIC "-//W3C//DTD SVG 1.1//EN" "http://www.w3.org/Graphics/SVG/1.1/DTD/svg11.dtd">
<svg version="1.1" id="Layer_1" xmlns="http://www.w3.org/2000/svg" xmlns:xlink="http://www.w3.org/1999/xlink" x="0px" y="0px"
	 width="199.02px" height="30px" viewBox="1259.95 -4.21 199.02 30" style="enable-background:new 1259.95 -4.21 199.02 30;"
	 xml:space="preserve">
<style type="text/css">
	.st0{fill-rule:evenodd;clip-rule:evenodd;}
</style>
<path d="M1263.95,3.99h2.14v6.06h0.61c1.55,0,2.6-0.44,3.48-2.65c1.05-2.64,2.19-3.41,4.29-3.41h0.33v1.92
	c-1.92,0-2.32,0.68-2.93,2.43c-0.37,1.07-1.25,2.23-2.05,2.6c1.03,0.48,2.17,1.53,3.24,3.41l2.58,4.55h-2.43l-2.32-4.02
	c-1.27-2.19-2.75-3.08-4.18-3.08h-0.61v7.1h-2.14V3.99z"/>
<path d="M1283.04,10.26c3.45,0,5.12,2.01,5.12,4.35c0,2.36-1.79,4.29-5.05,4.29h-4.61V3.99h2.14v6.27H1283.04z M1280.63,12.19v4.79
	h2.75c1.95,0,2.56-1.18,2.56-2.27c0-1.49-0.96-2.51-2.56-2.51H1280.63z M1292.94,3.99V18.9h-2.14V3.99H1292.94z"/>
<path d="M1296.16,3.99h4.66c3.26,0,4.74,1.92,4.74,4.29c0,2.34-1.57,4.18-5.03,4.18h-2.23v6.45h-2.14V3.99z M1298.3,5.91v4.61h2.43
	c1.6,0,2.62-0.85,2.62-2.34c0-1.09-0.59-2.27-2.54-2.27H1298.3z"/>
<path d="M1315.88,3.99v1.92h-6.32V18.9h-2.14V3.99H1315.88z"/>
<path d="M1322.33,10.26c3.45,0,5.12,2.01,5.12,4.35c0,2.36-1.79,4.29-5.05,4.29h-4.61V3.99h2.14v6.27H1322.33z M1319.92,12.19v4.79
	h2.75c1.95,0,2.56-1.18,2.56-2.27c0-1.49-0.96-2.51-2.56-2.51H1319.92z M1332.23,3.99V18.9h-2.14V3.99H1332.23z"/>
<path d="M1336.3,12.3v-1.9h2.8c1.68,0,2.86-1.27,2.86-2.43c0-1.51-1.27-2.14-2.86-2.14c-0.81,0-2.54,0.22-3.85,0.94V4.78
	c1.29-0.61,3.37-0.98,4.48-0.98c2.3,0,4.37,1.07,4.37,3.89c0,1.84-1.29,3.15-2.67,3.58c1.36,0.42,2.78,1.57,2.78,3.54
	c0,2.89-2.49,4.28-5.12,4.28c-1.03,0-2.91-0.26-3.98-0.81v-2.32c1.14,0.76,2.45,1.09,3.54,1.09c1.46,0,3.41-0.42,3.41-2.36
	c0-1.2-0.87-2.41-3.56-2.41H1336.3z"/>
<path d="M1354.4,4.19h2.14v6.06h0.61c1.55,0,2.6-0.44,3.48-2.64c1.05-2.64,2.19-3.41,4.28-3.41h0.33v1.92
	c-1.92,0-2.32,0.68-2.93,2.43c-0.37,1.07-1.25,2.23-2.06,2.6c1.03,0.48,2.16,1.53,3.24,3.41l2.58,4.55h-2.43l-2.32-4.02
	c-1.27-2.19-2.75-3.08-4.17-3.08h-0.61v7.1h-2.14V4.19z"/>
<path d="M1373.49,10.46c3.46,0,5.12,2.01,5.12,4.35c0,2.36-1.79,4.29-5.05,4.29h-4.61V4.19h2.14v6.27H1373.49z M1371.08,12.38v4.79
	h2.75c1.95,0,2.56-1.18,2.56-2.27c0-1.49-0.96-2.51-2.56-2.51H1371.08z M1383.39,4.19v14.91h-2.14V4.19H1383.39z"/>
<path d="M1387.46,12.49v-1.9h2.8c1.68,0,2.86-1.27,2.86-2.43c0-1.51-1.27-2.14-2.86-2.14c-0.81,0-2.54,0.22-3.85,0.94V4.97
	c1.29-0.61,3.37-0.98,4.48-0.98c2.3,0,4.37,1.07,4.37,3.89c0,1.84-1.29,3.15-2.67,3.58c1.36,0.42,2.78,1.57,2.78,3.54
	c0,2.89-2.49,4.29-5.12,4.29c-1.03,0-2.91-0.26-3.98-0.81v-2.32c1.14,0.76,2.45,1.09,3.54,1.09c1.46,0,3.41-0.42,3.41-2.36
	c0-1.2-0.88-2.4-3.56-2.4H1387.46z"/>
<path d="M1411.84,4.19v14.91h-2.14V7.49h-0.04l-4.59,5.77h-0.35l-4.59-5.77h-0.04v11.61h-2.14V4.19h2.01l4.94,6.12l4.96-6.12
	H1411.84z"/>
<path d="M1421.32,4.1l6.67,15h-2.19l-1.99-4.39h-6.34l-1.88,4.39h-2.19l6.41-15H1421.32z M1420.54,7.38l-2.23,5.4h4.63L1420.54,7.38
	z"/>
<path d="M1438.64,4.19v1.92h-5.16v12.98h-2.14V6.11h-5.16V4.19H1438.64z"/>
<path d="M1445.2,10.46c3.45,0,5.12,2.01,5.12,4.35c0,2.36-1.79,4.29-5.05,4.29h-4.61V4.19h2.14v6.27H1445.2z M1442.79,12.38v4.79
	h2.75c1.95,0,2.56-1.18,2.56-2.27c0-1.49-0.96-2.51-2.56-2.51H1442.79z M1455.1,4.19v14.91h-2.14V4.19H1455.1z"/>
</svg>
