<?xml version="1.0" encoding="utf-8"?>
<!-- Generator: Adobe Illustrator 18.0.0, SVG Export Plug-In . SVG Version: 6.00 Build 0)  -->
<!DOCTYPE svg PUBLIC "-//W3C//DTD SVG 1.1//EN" "http://www.w3.org/Graphics/SVG/1.1/DTD/svg11.dtd">
<svg version="1.1" id="Layer_1" xmlns="http://www.w3.org/2000/svg" xmlns:xlink="http://www.w3.org/1999/xlink" x="0px" y="0px"
	 width="89.72px" height="30px" viewBox="2140.59 -4.21 89.72 30" style="enable-background:new 2140.59 -4.21 89.72 30;"
	 xml:space="preserve">
<style type="text/css">
	.st0{fill-rule:evenodd;clip-rule:evenodd;}
</style>
<g>
	<path d="M2152.54,7.31c-1.29-1.22-2.52-1.57-3.54-1.57c-1.4,0-2.39,0.73-2.39,1.79c0,2.9,6.53,2.86,6.53,7.66
		c0,2.37-1.79,4.1-4.23,4.1c-1.64,0-2.97-0.44-4.23-1.39v-2.75c1.11,1.42,2.5,2.19,3.99,2.19c1.68,0,2.46-1.06,2.46-1.9
		c0-3.12-6.53-3.48-6.53-7.62c0-2.46,1.82-4.03,4.58-4.03c1.15,0,2.3,0.35,3.37,1.06V7.31z"/>
	<path d="M2170.76,19.23h-0.42l-4.96-12.36l-5,12.36h-0.42l-6.11-15.23h2.17l4.16,10.41l4.18-10.41h2.06l4.21,10.41l4.12-10.41h2.15
		L2170.76,19.23z"/>
	<path d="M2189.92,19.09h-2.21l-2.02-4.45h-6.42l-1.91,4.45h-2.21l6.49-15.19h1.53L2189.92,19.09z M2180.11,12.69h4.69l-2.44-5.47
		L2180.11,12.69z"/>
	<path d="M2204.38,19.09h-2.17v-6.58h-8.46v6.58h-2.17V3.99h2.17v6.58h8.46V3.99h2.17V19.09z"/>
	<path d="M2209.92,19.09h-2.17V3.99h2.17V19.09z"/>
	<path d="M2215.41,17.14h6.82v1.95h-8.99V3.99h2.17V17.14z"/>
	<path d="M2226.3,19.09h-2.17V3.99h2.17V19.09z"/>
</g>
</svg>
