<?xml version="1.0" encoding="utf-8"?>
<!-- Generator: Adobe Illustrator 18.0.0, SVG Export Plug-In . SVG Version: 6.00 Build 0)  -->
<!DOCTYPE svg PUBLIC "-//W3C//DTD SVG 1.1//EN" "http://www.w3.org/Graphics/SVG/1.1/DTD/svg11.dtd">
<svg version="1.1" id="Layer_1" xmlns="http://www.w3.org/2000/svg" xmlns:xlink="http://www.w3.org/1999/xlink" x="0px" y="0px"
	 width="150.83px" height="17.98px" viewBox="2990.51 3.79 150.83 17.98" style="enable-background:new 2990.51 3.79 150.83 17.98;"
	 xml:space="preserve">
<style type="text/css">
	.st0{fill-rule:evenodd;clip-rule:evenodd;}
	.st1{fill:#1E1E1E;}
</style>
<g>
	<path d="M3003.07,3.99v1.94h-5.2v13.1h-2.16V5.92h-5.2V3.99H3003.07z"/>
	<path d="M3003.39,11.51c0-1.04,0.19-2.03,0.58-2.96c0.38-0.93,0.93-1.75,1.63-2.46c0.7-0.71,1.55-1.27,2.54-1.68
		c0.99-0.41,2.1-0.62,3.32-0.62c1.24,0,2.36,0.21,3.36,0.62c1,0.41,1.85,0.97,2.55,1.67c0.7,0.7,1.24,1.52,1.61,2.45
		c0.38,0.93,0.56,1.92,0.56,2.97c0,1.01-0.18,1.98-0.55,2.91c-0.37,0.93-0.9,1.75-1.6,2.46c-0.7,0.71-1.55,1.28-2.56,1.7
		c-1.01,0.42-2.15,0.64-3.42,0.64c-0.82,0-1.59-0.1-2.3-0.29c-0.72-0.19-1.37-0.46-1.96-0.8c-0.59-0.34-1.12-0.75-1.59-1.23
		c-0.47-0.48-0.86-1-1.18-1.57c-0.32-0.57-0.57-1.18-0.74-1.82C3003.47,12.85,3003.39,12.19,3003.39,11.51z M3005.62,11.51
		c0,0.82,0.15,1.58,0.44,2.28c0.29,0.7,0.7,1.31,1.22,1.82c0.52,0.51,1.14,0.91,1.85,1.2c0.71,0.29,1.49,0.43,2.33,0.43
		s1.62-0.14,2.33-0.43c0.72-0.29,1.34-0.69,1.86-1.2c0.52-0.51,0.93-1.12,1.22-1.82c0.29-0.7,0.44-1.46,0.44-2.28
		c0-0.83-0.15-1.6-0.44-2.3c-0.29-0.7-0.7-1.3-1.22-1.81c-0.52-0.51-1.14-0.91-1.86-1.19c-0.72-0.29-1.5-0.43-2.33-0.43
		s-1.62,0.14-2.33,0.43c-0.71,0.29-1.33,0.69-1.85,1.19c-0.52,0.51-0.93,1.11-1.22,1.81C3005.76,9.91,3005.62,10.68,3005.62,11.51z"
		/>
	<path d="M3030.39,12.74c-0.15,0.09-0.35,0.17-0.59,0.26c-0.25,0.09-0.51,0.17-0.81,0.25c-0.29,0.08-0.6,0.14-0.91,0.19
		c-0.31,0.05-0.62,0.08-0.91,0.08c-1.11,0-2.03-0.12-2.77-0.35c-0.74-0.24-1.33-0.59-1.77-1.07c-0.44-0.48-0.75-1.08-0.94-1.8
		c-0.18-0.72-0.27-1.57-0.27-2.53V3.99h2.16v3.97c0,0.76,0.07,1.38,0.22,1.85c0.15,0.47,0.37,0.84,0.66,1.1
		c0.29,0.26,0.66,0.44,1.1,0.53c0.44,0.09,0.96,0.13,1.54,0.13c0.61,0,1.2-0.06,1.77-0.18c0.57-0.12,1.08-0.28,1.51-0.49V3.99h2.16
		v13.1h1.98v4.69h-2.15v-2.76h-1.99V12.74z"/>
	<path d="M3046.89,7.98l-9.55,11.24h-1.03V3.99h2.15v11.44l9.52-11.44h1.06v15.03h-2.15V7.98z"/>
	<path d="M3052.38,3.99h2.15v6.11c0.41,0,0.77-0.03,1.09-0.1c0.32-0.07,0.61-0.2,0.87-0.39c0.26-0.19,0.5-0.46,0.73-0.81
		c0.22-0.35,0.44-0.8,0.67-1.36c0.26-0.67,0.54-1.22,0.82-1.66c0.28-0.44,0.59-0.79,0.94-1.06c0.34-0.27,0.72-0.45,1.14-0.56
		c0.42-0.11,0.89-0.16,1.42-0.16h0.33v1.94c-0.49,0-0.89,0.05-1.19,0.13c-0.31,0.09-0.57,0.23-0.77,0.43
		c-0.21,0.2-0.39,0.45-0.53,0.76c-0.15,0.31-0.3,0.69-0.46,1.12c-0.09,0.27-0.22,0.53-0.37,0.81c-0.15,0.27-0.32,0.53-0.5,0.76
		c-0.18,0.24-0.38,0.45-0.58,0.63c-0.21,0.19-0.41,0.33-0.62,0.42c0.37,0.17,0.69,0.35,0.96,0.53c0.27,0.18,0.52,0.4,0.75,0.65
		c0.23,0.26,0.46,0.56,0.7,0.92c0.23,0.36,0.5,0.8,0.8,1.33l2.65,4.58h-2.45l-2.33-4.06c-0.37-0.64-0.7-1.16-0.99-1.56
		c-0.3-0.4-0.59-0.72-0.89-0.95c-0.3-0.23-0.62-0.39-0.96-0.47c-0.34-0.09-0.75-0.13-1.22-0.13v7.17h-2.15V3.99z"/>
	<path d="M3076.05,7.98l-9.55,11.24h-1.03V3.99h2.15v11.44l9.53-11.44h1.05v15.03h-2.15V7.98z"/>
	<path d="M3094.5,17.9c-0.37,0.19-0.75,0.37-1.14,0.53c-0.4,0.16-0.81,0.3-1.25,0.41c-0.44,0.11-0.91,0.2-1.42,0.27
		c-0.51,0.06-1.05,0.1-1.63,0.1c-0.94,0-1.79-0.11-2.56-0.33c-0.77-0.22-1.45-0.52-2.05-0.9c-0.6-0.38-1.12-0.82-1.56-1.32
		c-0.44-0.5-0.81-1.03-1.09-1.59c-0.29-0.56-0.5-1.12-0.64-1.7c-0.14-0.57-0.21-1.12-0.21-1.65c0-0.76,0.09-1.49,0.28-2.18
		c0.19-0.69,0.45-1.33,0.8-1.92c0.34-0.58,0.76-1.11,1.25-1.59c0.49-0.47,1.04-0.88,1.65-1.21c0.61-0.33,1.27-0.59,1.99-0.77
		c0.72-0.18,1.47-0.27,2.27-0.27c0.39,0,0.78,0.02,1.17,0.07c0.39,0.05,0.8,0.12,1.22,0.23c0.42,0.1,0.86,0.23,1.31,0.39
		c0.46,0.15,0.94,0.34,1.45,0.55v2.31c-0.47-0.27-0.92-0.51-1.35-0.71c-0.43-0.2-0.86-0.36-1.28-0.49
		c-0.42-0.13-0.84-0.22-1.26-0.29c-0.42-0.06-0.85-0.09-1.29-0.09c-0.86,0-1.66,0.14-2.39,0.44c-0.73,0.29-1.37,0.69-1.9,1.2
		c-0.53,0.51-0.95,1.12-1.25,1.82c-0.3,0.7-0.45,1.47-0.45,2.3c0,0.84,0.15,1.61,0.44,2.31c0.29,0.7,0.71,1.3,1.24,1.8
		c0.53,0.5,1.17,0.89,1.92,1.17c0.75,0.28,1.57,0.42,2.47,0.42c0.86,0,1.74-0.14,2.63-0.43c0.89-0.29,1.77-0.71,2.63-1.27V17.9z"/>
	<path d="M3109.22,3.99v1.94h-5.2v13.1h-2.16V5.92h-5.2V3.99H3109.22z"/>
	<path d="M3109.79,11.51c0-1.04,0.19-2.03,0.58-2.96c0.38-0.93,0.93-1.75,1.63-2.46c0.7-0.71,1.55-1.27,2.55-1.68
		c0.99-0.41,2.1-0.62,3.32-0.62c1.24,0,2.36,0.21,3.36,0.62c1,0.41,1.85,0.97,2.55,1.67c0.7,0.7,1.24,1.52,1.61,2.45
		c0.38,0.93,0.57,1.92,0.57,2.97c0,1.01-0.19,1.98-0.55,2.91c-0.37,0.93-0.9,1.75-1.6,2.46c-0.7,0.71-1.55,1.28-2.56,1.7
		c-1.01,0.42-2.15,0.64-3.42,0.64c-0.82,0-1.58-0.1-2.3-0.29c-0.72-0.19-1.37-0.46-1.96-0.8c-0.59-0.34-1.12-0.75-1.59-1.23
		c-0.47-0.48-0.86-1-1.18-1.57c-0.32-0.57-0.57-1.18-0.74-1.82C3109.88,12.85,3109.79,12.19,3109.79,11.51z M3112.02,11.51
		c0,0.82,0.15,1.58,0.44,2.28c0.29,0.7,0.7,1.31,1.22,1.82c0.52,0.51,1.14,0.91,1.85,1.2c0.71,0.29,1.49,0.43,2.33,0.43
		s1.62-0.14,2.33-0.43c0.72-0.29,1.34-0.69,1.86-1.2c0.52-0.51,0.93-1.12,1.22-1.82c0.29-0.7,0.44-1.46,0.44-2.28
		c0-0.83-0.15-1.6-0.44-2.3c-0.29-0.7-0.7-1.3-1.22-1.81c-0.52-0.51-1.14-0.91-1.86-1.19c-0.72-0.29-1.5-0.43-2.33-0.43
		s-1.62,0.14-2.33,0.43c-0.71,0.29-1.33,0.69-1.85,1.19c-0.52,0.51-0.93,1.11-1.22,1.81C3112.17,9.91,3112.02,10.68,3112.02,11.51z"
		/>
	<path d="M3141.34,3.99v15.03h-2.15v-6.54h-8.43v6.54h-2.15V3.99h2.15v6.55h8.43V3.99H3141.34z"/>
</g>
</svg>
